<svg xmlns="http://www.w3.org/2000/svg" version="1.1" xmlns:xlink="http://www.w3.org/1999/xlink" xmlns:svgjs="http://svgjs.dev/svgjs" viewBox="0 0 800 800"><defs><linearGradient x1="50%" y1="0%" x2="50%" y2="100%" id="ssscribble-grad"><stop stop-color="#04ee51" stop-opacity="1" offset="0%"></stop><stop stop-color="hsl(180, 69%, 60%)" stop-opacity="1" offset="100%"></stop></linearGradient></defs><g fill="none" stroke-width="1.5" stroke="url(#ssscribble-grad)" stroke-linecap="round"><path d="M1033.47 529C1093.44 561.86 920.02 604.45 699.93 654.14 642.13 701.94 785.8 752.77 977.68 800.65 1053.38 839.28 945.73 865.57 746.69 871.95 579.88 860.55 539.5 824.77 612.12 766.73 799.18 672.87 808.73 601.9 657.01 698.29 538.68 811.04 440.27 935.69 367.19 1040.44 299.85 1096.67 251.52 1085.86 218.66 1006.65 185.8 886.6 169.96 762.56 175.33 670.48 186.43 632.98 225.07 653.56 286.45 717.91 336.43 810.76 371.9 899.56 355.7 962.75 269.29 994.4 116.07 983.83 -61.03 938.19 -176.72 865.08 -175.3 776.97 -42.7 686.83 122.11 594.89 200.29 513.43 100.49 445.13 -115.46 382.85 -277.83 331.8 -232.72 289.32 -25.31 249.3 141.44 213.5 81.47 180.64 -149.27 147.78 -296.29 119.41 -214.4 97.46 90.53 73.6 -121.78 99.58 -214.62 154.54 -81.68 194.04 111.11 234.98 257.75 265.03 308.49 267.6 262.71 239.22 173.69 173.36 72.07 75.96 10.55 -42.3 -3.17 -159.24 17.74 -247.68 66.63 -286.98 122.01 -262.17 185.49 -182.79 237.41 -65.41 270.27 54.63 303.13 133.86 315.38 151.35 313.87 107.81 320.46 15.74 331.35 -90.2 367.38 -178.86 438.06 -234.39 553.69 -238.49 705.96 -195.06 845.62 -114.03 938.58 -11.65 930.91 93.56 827.34 194.67 673.5 277.62 574.77 339.67 623.65 383.94 809.49 411.77 1012.66 430.1 1070.44 439.17 931.87 448.12 718.25 462.29 649.04 474.57 802.71 496.15 1033.47 529Q1033.47 529 1033.47 529" opacity="0.28"></path><path d="M999.47 610.79C1063.87 641.3 919.88 675.28 705.91 710.33 600.16 743.1 678.73 772.51 856.43 793.62 998.34 806.51 994.33 804.64 859.19 784.37 669.97 753.86 530.92 706.94 489.58 649.52 543.69 599.52 645.22 559.15 739.13 542.46 807.84 562.09 822.29 619.12 794.29 710.97 735.75 822.48 664.7 935.22 599.36 1023.09 529.78 1065.13 477.38 1048.19 446.87 972.65 416.36 861.77 409.17 745.01 421.2 652.07 429 602.74 444.55 603.41 450.2 646.21 425.32 721.91 360.62 805.13 244.89 876.48 103.95 930 -41.39 950.56 -135.49 939.08 -134.14 900.93 -31.27 841.37 126.17 771.02 229.53 691.45 206.19 613.81 41.9 543.69 -158.16 474.61 -254.09 415.49 -160.12 366.71 42.07 319.19 179.87 280.12 115.47 249.6 -98.26 219.09 -253.85 198.57 -216.2 188.54 71.48 181.58 13.88 230.52 -177.04 276.76 -159.66 300.08 -29.26 315.85 138.39 314 284.26 285.5 355.71 228.77 356.81 143.48 302.05 40.36 231.06 -70.22 173.5 -168.28 123.42 -233.46 103.7 -251.51 108.54 -213.97 121.14 -132.81 145.78 -22.24 176.29 88.63 206.8 164.19 241.75 187.32 286.69 157.07 339.4 80.99 414.63 -14.37 517.59 -103.52 628.03 -173.01 749.26 -202.68 851.06 -190.55 896.99 -142.1 869.34 -65.55 763.47 24.43 635.8 121.84 541.58 212.57 555.97 290.11 693.22 357.41 891.49 409.54 1026.88 449.53 1002.44 481.31 831.67 507.4 649.82 532.18 623.95 554.67 785.73 580.27 999.47 610.79Q999.47 610.79 999.47 610.79" opacity="0.59"></path><path d="M965.47 622.18C1032.94 650.35 917.81 675.29 718.47 695.52 578.76 713.89 590.92 724.15 725.79 723.5 892.06 717.65 975.14 698.15 935.69 665 797.34 629.51 630.54 586.37 502.72 543 443.04 514.24 457.45 501.55 514.86 514.43 598.79 558.3 668.98 631.74 710.45 728.63 734.13 833.77 729.91 932.11 708.97 1003.07 680.62 1032.13 649.21 1010.19 621.05 938.65 592.88 836.9 569.28 728.06 544.52 636.17 512.33 577.98 465.32 561.26 392.82 582.88 302.54 638.18 185.97 708.73 58.63 778.52 -42.19 842.74 -97.03 884.89 -74.27 901.6 16.62 896.9 150.03 869.5 259.05 826.52 269.17 770.92 160.84 710.05 -26.07 650.31 -181.59 587.68 -209.78 531.15 -80.94 483.35 107.52 435.55 216.94 396.95 149.47 368.77 -46.9 340.61 -206.29 324.21 -208.48 318.89 -57.46 313.56 136.59 318.85 247.17 332.67 218.05 343.6 85.32 358.08 -57.73 370.27 -140.96 369.85 -117.71 356.82 -11.94 324.61 139.1 270.99 277.76 195.45 372.68 101.91 420.58 2.79 423.61 -93.02 404.34 -168.97 365.94 -211.24 334.25 -210.56 319.94 -163.25 305.57 -82.24 312 20.87 340.17 122.63 368.33 194.18 416.91 221.85 484.4 203.67 551.82 143.59 634.76 61.27 721.97 -23.21 790.05 -99.46 833.4 -147.65 828.92 -162.2 777.41 -145.75 679.18 -99.67 565.05 -33.99 496.19 46.28 506.35 129.86 618.9 208.77 791.29 285.33 949.28 351.21 999.04 405.88 909.12 455.34 731.09 496.31 590.93 531.07 603.99 563.96 769.09 594.01 965.47 622.18Q965.47 622.18 965.47 622.18" opacity="0.12"></path><path d="M931.47 559.38C1000.63 585.2 913.05 602.96 735.27 612.28 576.89 620.58 530.01 618.82 604.73 606.49 753.7 592.53 884.9 568.55 935.57 537.08 890.65 509.45 771.19 481.79 628.92 461.1 497.65 457.59 414.95 472.24 383.44 510.23 396.48 571.5 434.55 653.59 475.73 748.75 523.81 843.3 555.34 925.65 566.61 980.23 575.37 997.68 566.23 971.84 540.41 904.65 514.59 811.99 473.31 711.6 415.86 622.56 355.9 558.49 277.39 527.46 184.57 529.54 98.64 563.22 18.06 616.19 -34.77 676.27 -43.05 740.31 2.57 792.77 100 828.03 208.44 849.46 297.28 850.98 315.31 836.04 237.76 808.97 83.41 772.08 -84.48 730.87 -178.13 684.74 -145.94 639.81 2.47 599.62 170.29 558.52 252.63 524.19 183.47 498.37 -74.61 464.5 2.03 439.34 239.27 439.7 290.23 436.17 229.97 430.54 107.92 417.83 -21.77 392.98 -93.07 354.39 -87.18 299.12 -12.3 230.03 103.47 146.96 223.93 56.04 337.86 -30.92 420.57 -107.05 472.86 -159.66 503.6 -180.67 518.1 -164.35 528.9 -110.26 534.07 -31.19 547.13 63.95 572.95 156.62 598.77 223.83 636.13 254.91 679.65 247.44 717.54 202.83 750.01 135.17 764.02 59.55 756.48 -16.68 716.28 -75.62 642.15 -110.01 561.49 -121.11 482.77 -105.15 441.73 -67.81 469.68 -13.28 571.6 51.44 728.18 118.86 877.11 190.13 960.53 256.63 928.49 315.33 798.84 372.41 636.21 421.14 542.86 461.53 588.83 500.9 752.69 533.56 931.47 559.38Q931.47 559.38 931.47 559.38" opacity="0.66"></path><path d="M897.52 443.37C966.94 466.84 904.88 480.58 753.63 485.1 591.7 489.53 499.96 484.8 510.47 472.13 610.68 460.78 743.09 444.16 847.94 425.84 894.24 414.79 863.61 408.93 776.7 413.65 654.74 434.22 534.07 471.56 437.04 527.32 365.06 597.99 326.27 681.07 310.52 768.66 312.87 849.52 320.51 915.2 322.91 954.42 328.63 961.8 321.46 933.19 297.99 870.66 274.51 787.02 235.85 695.54 185.87 610.96 139.2 543.96 88.87 502.11 45.83 487.36 20.91 500.1 21.04 533.01 56.85 577.63 117.7 632.3 204.68 684.08 295.87 726.75 352.02 763.37 354.81 785.33 284.07 793 154.78 791.71 1.32 779.07 -116.08 758.69 -143.8 733.33 -65.42 704.72 87.45 676.04 229.64 646.1 286.94 618.6 217.52 595.12 56.49 571.65 -97.16 553.33 -159.76 539 -104.48 523.41 38.58 509.32 196.13 494 305.28 473.71 325.54 447.69 266.63 412.81 155.33 368.96 45.25 313.31 -26.86 245.92 -51.02 172.49 -19.86 92.88 48.02 13.76 142.4 -55.28 239.19 -109.24 324.03 -139.2 404.25 -141.65 465.79 -113.16 510.88 -55.21 551.89 20.29 582.93 107.02 606.41 190.66 637.28 269.87 637.7 231.91 588.74 142.1 544.59 71.71 486.45 9.68 428.24 -36.54 396.51 -67.86 399.03 -77.37 453.94 -67.18 556.81 -41.13 694.72 -1.57 830.47 45.65 913.83 100.14 914.65 155.42 822.73 207.44 682.4 260.78 552.67 308.21 506.41 348.06 578.03 387.8 736.42 419.89 897.47 443.36Q897.52 443.37 897.52 443.37" opacity="0.77"></path><path d="M862.92 312.75C931.78 333.88 893.21 346.83 771.75 352.5 549.11 355.77 818.81 369.21 841.68 404.5 791.99 443.68 709.87 496.01 616.95 560.76 517.93 632.76 432.81 710.06 366.55 785.59 310.39 850.88 270.39 900.07 241.14 925.4 215.96 924.36 194.24 894.1 173.11 836.55 151.99 761.86 132.46 679.62 117.8 600.95 107.21 533.81 108.79 484.8 128.33 456.77 157.98 450.97 208.32 463.8 274.78 489.97 335.14 528.95 386.93 571.08 408.94 610.73 383.81 650.7 307.9 681.93 187.57 702.84 -13.05 715.48 302.64 657.75 250.92 626.6 107.41 605.48 -37.29 584.28 -118.04 562.42 -106.04 539.46 -7.32 513.76 132.88 483.73 267.73 450.09 351.05 409.42 367.41 360.68 320.23 307.22 235.86 245.65 146.1 178 64.19 110.66 16.29 43.48 4.78 -17.49 23.04 -65.66 65.93 -97.44 119.69 -107.13 184.12 -94.59 244.59 -57.61 294.27 1.36 344.75 71.87 381.57 149.82 402.69 224.52 426.04 299.36 396.75 290.08 357.9 221.7 340.76 161.65 332.66 103.3 346.95 53.28 391.03 10.54 469.25 -16.75 578.85 -28.24 696.3 -27.73 805.72 -13.63 874.9 10.37 880.53 42.22 816.16 78.88 696.79 116.58 572.06 157.21 485.37 195.52 481.52 229.16 570.42 263.33 719.41 291.63 862.92 312.75Q862.92 312.75 862.92 312.75" opacity="0.81"></path><path d="M829.51 211.43C895.4 230.21 876.11 244.5 784.6 255.08 653.12 266.44 527.05 275.64 443 284.44 418.53 296.35 453.43 310.8 527.41 330.08 623.78 355.65 710.39 389.02 769.41 431.44 799.05 481.07 792.28 539.38 758.29 604.3 702.59 670.54 637.49 736.79 573.74 797.36 506.43 846.46 448.98 880.18 404.24 893.45 360.24 885.73 328.52 854.9 309.74 802.63 290.96 736.79 286.01 664.04 294.6 592.5 303.93 527.79 327.22 475.3 361.99 438.06 410.28 414.88 449.08 453.72 384.74 495.9 301.11 529.04 192.24 558.69 76.32 582.39 -17.2 605.23 -68.95 620.4 -58.24 627.66 12.04 633.21 127.42 631.7 251.66 623.78 335.92 615.21 351.4 601.4 285.51 582.62 159.89 563.84 27.06 540.99 -64.54 514.15 -89.13 486.65 -38.34 454 65.31 415.91 193.1 376.11 307.13 330.01 382.63 278.23 410.62 225.59 392.15 168.98 343.02 111.24 271.44 57.82 201.25 8.79 145.48 -31.11 89.35 -64.17 93.12 -18.8 125.89 59.55 152.26 123.85 176.39 192.79 195.16 258.63 220.22 328.22 255.26 342.96 286.88 296.11 322.49 249.3 375.68 199.89 449.6 153.2 534.31 107.83 631.46 71.79 727.66 46.76 801.41 28.96 842.16 22.54 833.74 25.92 777.81 35.58 680.63 52.05 566.6 72.68 476.69 96.42 436.56 121.38 468.37 145.44 567.2 170.27 703.82 192.64 829.46 211.42Q829.51 211.43 829.51 211.43" opacity="0.10"></path><path d="M795.46 172.99C855.43 205.85 684.4 238.54 470.78 277.02 381.19 324.77 457.07 392.93 589.41 485.51 711.32 589.37 744.48 703.96 714.03 801.4 648.37 855.82 583.35 847.85 550.49 768.62 517.63 648.57 520.04 523.87 528.75 430.25 502.25 381.28 417.81 376.29 252.83 397.25 77.42 441.53 -33.31 480.13 32.18 498.57 221.72 516.75 379.43 510.4 319.46 477.54 88.71 444.68 -53.88 388.42 14.68 313.29 221.9 237.91 399.14 148.02 456.76 60.67 403.3 -3.36 310.86 -33.22 248.98 -8.33 196.37 61.19 191.66 172.57 224.52 292.62 257.38 371.85 324.7 393.14 434.26 362.81 553.09 289.46 696.82 209.72 793.34 148.93 707.6 90.98 486.75 125.17 795.46 172.99Q795.46 172.99 795.46 172.99" opacity="0.61"></path><path d="M761.52 210.34C828.93 238.5 715.26 278.51 526.94 330.99 376.83 388.15 342.62 463.69 396.63 553.59 504.78 642.55 593.3 730.44 634.03 796 656.62 825.28 645.87 806.19 617.71 734.66 589.54 632.91 546.62 523.67 475.21 432.28 385.68 368.06 253.19 335.73 108.13 327.58 17.2 341.19 21.54 358.95 151.01 367.77 318.68 380.12 420.93 374.7 353.52 346.54 157.15 318.37 2.97 270.12 -4.2 208.96 124 151.32 301.01 89.61 433.53 39.08 500.85 10.31 501.34 12.76 480.95 56.33 441.76 127.07 428.01 224.88 456.18 326.63 484.33 398.18 551.74 428.69 639.74 420.07 708.95 375.15 752.43 317.14 722.05 265.09 552.89 196.31 482.31 175.34 761.47 210.33Q761.52 210.34 761.52 210.34" opacity="0.82"></path><path d="M727.52 311.01C796.94 334.48 735.32 374.25 594.82 427.21 437.43 481.03 331.31 547.8 293.63 620.11 314.22 685.42 361.78 743.42 400.18 779.83 443.98 789.07 457.49 763.19 434.02 700.66 410.54 617.02 352.31 525.3 267.84 442.36 188.76 373.33 104.57 324.51 53.21 294.61 60.14 280.49 141.36 274.72 281.54 268.78 404.84 267.17 456.94 256.89 387.52 233.42 226.49 209.95 78.23 175.51 18.33 136.44 57.95 101.7 173.02 70.84 302.09 54.2 425.42 53.33 507.63 77.25 553.31 129.07 581.06 194.79 599.54 276.99 623.01 360.63 659.6 440.87 657.88 430.8 542.54 379.69 444.23 338.15 354.05 308 331.6 294.86 408.68 282.58 566.43 287.53 727.47 311Q727.52 311.01 727.52 311.01" opacity="0.44"></path><path d="M693.25 441.34C759.34 460.12 739.76 492.55 655.67 534.48 534.16 575.25 416.1 622.63 328.77 669.64 269.2 708.87 242.2 739.09 231.91 752.03 233.2 747.24 229.68 718.87 210.9 666.61 192.12 600.76 159.86 527.86 126.03 458.3 103.78 393.98 101.48 340.51 136.43 299.8 199.15 267.9 297.3 244.44 405.04 225.95 475.37 210.64 487.34 194.65 421.25 175.87 295.53 157.09 167.65 137.3 83.76 120.07 54.66 106.03 88.04 100.18 157.35 107.47 250.97 123.57 340.04 157.12 407.64 207.68 472.07 263.47 514.3 328.76 533.08 394.61 551.86 446.87 545.41 482.85 513.52 501.41 478.46 502.23 418.69 491.93 349.69 477.31 304.99 454.91 291.52 436.83 334.38 428.6 432.04 419.22 567.53 422.57 693.25 441.34Q693.25 441.34 693.25 441.34" opacity="0.32"></path><path d="M659.52 557.95C726.93 586.12 616.08 640.45 465.42 689.89 317.23 717.46 234.1 704.19 205.93 632.66 177.76 530.9 209.89 420.9 321.17 338.34 434.91 269.22 522.93 221.4 455.52 193.24 259.13 165.07 115.74 161.89 101.37 194.09 170.06 239.73 261.3 326.9 289.47 428.66 317.63 500.19 277.4 536.29 245.62 545.64 296.91 533.12 463.13 529.78 659.52 557.95Q659.52 557.95 659.52 557.95" opacity="0.29"></path><path d="M625.47 621.76C672.61 659.32 462.08 684.16 424.53 598.65 386.97 460.22 536.61 317.15 489.47 279.59 226.16 242.04 136 324.22 173.56 462.65 211.11 548.16 362.16 584.21 625.47 621.76Q625.47 621.76 625.47 621.76" opacity="0.70"></path></g></svg>