<svg xmlns="http://www.w3.org/2000/svg" version="1.1" xmlns:xlink="http://www.w3.org/1999/xlink" xmlns:svgjs="http://svgjs.dev/svgjs" viewBox="0 0 800 800"><defs><linearGradient x1="50%" y1="0%" x2="50%" y2="100%" id="ccchaos-grad"><stop stop-color="hsl(206, 75%, 49%)" stop-opacity="1" offset="0%"></stop><stop stop-color="hsl(331, 90%, 56%)" stop-opacity="1" offset="100%"></stop></linearGradient></defs><g stroke-width="2" stroke="url(#ccchaos-grad)" fill="none" stroke-linecap="round"><path d="M387.14 118.1C396.71 123.05 406.38 127.08 416.14 129.71 425.92 130.27 435.82 129.34 445.83 127.3 455.9 124.19 466.11 121.24 476.46 119.11 486.89 117.9 497.49 118.58 508.22 121.36 519.05 125.89 530 132.41 541.03 140.53 552.1 149.57 563.18 159.29 574.18 169.18 585.07 178.59 595.73 187.39 606.01 195.35 615.96 202.07 625.32 207.84 633.93 212.81 641.9 216.7 648.9 220.19 654.74 223.53 661.59 228.09 667.32 239.83 666.29 247.76 664.63 253.75 662.03 260.56 658.71 268.11 655.48 276.07 652.06 284.64 648.74 293.66 646.34 302.97 644.6 312.58 643.76 322.35 644.46 332.26 646.35 342.22 649.49 352.12 654.23 362.06 660.03 371.87 666.65 381.46 674.2 391.06 681.72 400.2 688.81 408.89 695.68 417.6 701.39 425.89 705.64 433.84 708.78 441.9 710.07 449.76 709.45 457.54 707.38 465.64 703.42 473.91 697.74 482.52 690.86 491.75 682.59 501.61 673.22 512.24 663.21 523.68 652.56 536 641.51 549.17 630.44 562.9 619.35 577.12 608.41 591.47 597.88 605.43 587.69 618.61 577.91 630.38 568.7 640.34 559.92 647.91 551.53 652.62 543.69 654.76 536.14 653.96 528.81 650.5 521.89 645.72 515.04 639.79 508.2 633.83 501.6 629.61 494.86 627.57 487.94 628.66 481.12 633.78 474.02 642.6 466.6 654.65 459.21 669.1 451.46 684.33 443.34 698.56 435.2 710.32 426.68 717.83 417.77 719.98 408.86 716.94 399.57 708.65 389.94 696.28 380.3 682.33 370.57 668.59 360.79 657.08 351.03 649.59 341.26 646.6 331.52 648.1 321.83 653.98 312.22 662.49 302.73 672.02 293.34 681.62 284.11 689.08 275.11 693.23 266.24 693.89 257.64 690.21 249.36 682.5 241.26 671.6 233.51 658.13 226.19 643.18 219.04 627.79 212.33 612.88 206.09 599.2 200.02 587.32 194.42 577.49 189.28 569.69 181.96 562.07 169.43 554.95 164.04 552.82 158.75 550.49 148.94 540.7 144.25 532.73 140.87 526.55 137.6 519.39 134.49 511.4 131.08 503.07 127.85 494.12 124.85 484.71 121.66 475.14 118.78 465.27 116.29 455.22 113.78 445.13 111.78 434.94 110.36 424.71 109.11 414.47 108.58 404.42 108.79 394.55 109.29 384.65 110.57 374.85 112.59 365.12 114.93 355.26 117.99 345.36 121.72 335.34 125.7 325.1 130.27 314.65 135.37 303.96 140.58 293 146.22 281.78 152.2 270.35 158.15 258.81 164.35 247.22 170.75 235.75 176.99 224.58 183.36 213.89 189.84 203.96 196.07 194.87 202.4 186.93 208.8 180.37 214.95 174.96 221.2 171.02 227.56 168.5 233.7 166.75 240 165.94 246.47 165.7 252.77 165.09 259.3 164.18 266.06 162.54 272.72 159.39 279.65 155.01 286.87 149.35 294.02 142.24 301.49 134.41 309.26 126.39 316.99 118.5 325.04 111.73 333.4 106.71 341.74 103.52 350.4 102.76 359.35 104.44 368.3 107.72 377.56 112.52 387.13 118.1" stroke-dasharray="10 5" transform="rotate(0, 400, 400)" opacity="0.28"></path><path d="M391.99 129.22C401.3 134.13 410.73 138.21 420.28 140.98 429.84 141.79 439.55 141.15 449.37 139.39 459.23 136.47 469.24 133.52 479.37 131.16 489.57 129.46 499.89 129.41 510.31 131.25 520.78 134.73 531.32 140.19 541.86 147.34 552.38 155.61 562.82 164.85 573.08 174.56 583.18 184.15 592.97 193.46 602.29 202.18 611.24 209.91 619.54 216.78 627.05 222.83 633.95 227.79 639.88 232.16 644.69 236.15 650.18 241.17 654 251.95 652.54 258.59 650.81 263.44 648.32 269 645.26 275.26 642.4 281.81 639.45 288.99 636.66 296.71 634.79 304.66 633.54 313.03 633.14 321.7 634.16 330.51 636.26 339.51 639.45 348.61 644.09 357.75 649.66 366.92 655.95 376.08 663.08 385.23 670.18 394.13 676.87 402.79 683.41 411.48 688.91 420 693.1 428.4 696.34 436.95 697.9 445.52 697.72 454.25 696.25 463.3 693.02 472.7 688.18 482.57 682.19 492.96 674.84 503.99 666.38 515.7 657.24 527.93 647.36 540.78 636.99 554.1 626.47 567.5 615.79 580.9 605.14 593.88 594.74 606 584.55 616.88 574.67 625.99 565.24 633.17 556.16 637.94 547.44 640.03 539.18 640.02 531.21 637.64 523.48 633.34 516.14 628.47 508.92 623.24 501.76 618.63 494.85 616.18 487.89 616.15 480.82 619.21 473.89 625.95 466.75 635.87 459.39 648.38 452.08 662.62 444.48 677.08 436.58 690.17 428.68 700.66 420.46 707.04 411.93 708.42 403.39 705.07 394.52 696.97 385.36 685.16 376.2 671.9 366.98 658.75 357.73 647.49 348.51 639.77 339.29 636.07 330.14 636.48 321.03 641.06 312.02 648.34 303.15 656.99 294.37 666.24 285.77 674.04 277.42 679.26 269.18 681.65 261.21 680.17 253.58 674.9 246.09 666.47 238.96 655.15 232.24 641.86 225.66 627.49 219.5 612.84 213.79 598.7 208.2 585.66 203.04 574.13 198.31 564.31 193.65 556.39 189.37 550.11 185.48 545.19 179.74 540.33 169.48 533.54 164.76 529.74 159.83 525.16 150.15 511.14 145.39 501.68 141.99 494.82 138.74 487.23 135.72 479.03 132.53 470.68 129.63 461.85 127.11 452.64 124.58 443.37 122.53 433.8 121.05 423.97 119.75 414.13 119.15 404.28 119.26 394.42 119.67 384.53 120.83 374.59 122.71 364.57 124.92 354.46 127.83 344.21 131.41 333.78 135.24 323.22 139.66 312.45 144.6 301.49 149.68 290.44 155.19 279.25 161.05 268.02 166.91 256.92 173.04 246 179.38 235.45 185.59 225.42 191.95 216.09 198.42 207.7 204.68 200.22 211.03 193.95 217.46 189.02 223.65 185.06 229.93 182.36 236.3 180.81 242.46 179.66 248.75 179.09 255.18 178.74 261.44 177.71 267.89 176.13 274.55 173.66 281.08 169.68 287.86 164.52 294.89 158.23 301.84 150.75 309.08 142.8 316.6 134.91 324.07 127.38 331.85 121.09 339.93 116.61 347.98 113.92 356.35 113.57 365.02 115.51 373.68 118.91 382.67 123.7 391.98 129.22" stroke-dasharray="4 6" transform="rotate(4.04, 400, 400)" opacity="0.24"></path><path d="M397.32 140.34C406.37 145.21 415.56 149.31 424.86 152.21 434.18 153.26 443.63 152.93 453.19 151.46 462.79 148.78 472.52 145.91 482.34 143.41 492.2 141.33 502.15 140.63 512.14 141.62 522.14 144.07 532.14 148.43 542.08 154.53 551.94 161.85 561.65 170.36 571.1 179.62 580.34 189.09 589.2 198.59 597.53 207.8 605.47 216.3 612.73 224.13 619.19 231.23 625.07 237.32 630.01 242.74 633.91 247.63 638.21 253.71 640.49 264.96 638.77 271.06 637.06 275.25 634.74 280 631.99 285.33 629.53 290.81 627.05 296.88 624.78 303.51 623.4 310.29 622.63 317.56 622.63 325.24 623.93 333.01 626.19 341.11 629.42 349.47 633.95 357.87 639.29 366.47 645.25 375.24 651.98 384.02 658.65 392.76 664.96 401.48 671.17 410.23 676.44 419.02 680.55 427.91 683.84 436.94 685.63 446.18 685.84 455.72 684.9 465.54 682.34 475.79 678.27 486.52 673.13 497.61 666.68 509.22 659.12 521.31 650.85 533.61 641.8 546.19 632.17 558.82 622.29 571.14 612.14 582.99 601.9 593.99 591.77 603.83 581.74 612.14 571.91 618.52 562.42 623.09 553.19 625.39 544.25 625.38 535.7 623.82 527.42 620.53 519.38 616.02 511.67 611.64 504.13 607.54 496.69 604.56 489.49 603.99 482.3 605.91 475.08 610.75 468 618.83 460.8 629.56 453.44 642.25 446.15 656.08 438.66 669.64 430.93 681.55 423.23 690.8 415.27 696.12 407.06 696.79 398.85 693.2 390.38 685.3 381.66 674.04 372.95 661.47 364.21 648.91 355.49 637.93 346.79 630.06 338.12 625.73 329.54 625.15 321.01 628.47 312.59 634.51 304.34 642.16 296.17 650.84 288.19 658.69 280.46 664.62 272.84 668.38 265.5 668.83 258.48 665.82 251.59 659.83 245.04 650.84 238.88 639.55 232.84 626.72 227.19 612.98 221.95 599.09 216.79 585.61 212.03 573.06 207.66 561.76 203.32 551.95 199.32 543.61 195.65 536.63 190.18 528.8 180.24 518.01 175.59 513.41 170.69 508.84 161.01 496.61 156.23 488.56 152.82 482.78 149.57 476.26 146.54 469.07 143.34 461.77 140.44 453.87 137.89 445.44 135.35 436.97 133.28 428.03 131.75 418.66 130.4 409.3 129.73 399.74 129.75 390.02 130.06 380.3 131.1 370.39 132.85 360.32 134.91 350.21 137.67 339.91 141.07 329.43 144.74 318.93 148.98 308.27 153.75 297.52 158.67 286.84 164.03 276.18 169.75 265.68 175.5 255.48 181.52 245.67 187.78 236.44 193.93 227.84 200.25 220.08 206.7 213.36 212.96 207.5 219.33 202.8 225.77 199.31 232 196.54 238.31 194.77 244.71 193.82 250.9 192.93 257.21 192.27 263.63 191.52 269.88 189.86 276.3 187.49 282.89 184.14 289.34 179.35 296.02 173.49 302.91 166.69 309.72 158.97 316.78 151.02 324.11 143.37 331.38 136.27 338.93 130.52 346.78 126.59 354.58 124.41 362.7 124.44 371.12 126.62 379.52 130.11 388.25 134.9 397.31 140.34" stroke-dasharray="5 1" transform="rotate(8.08, 400, 400)" opacity="0.39"></path><path d="M402.8 151.46C411.59 156.27 420.51 160.39 429.53 163.4 438.56 164.68 447.72 164.66 456.96 163.51 466.23 161.11 475.59 158.38 485.02 155.83 494.45 153.47 503.93 152.24 513.39 152.46 522.83 153.96 532.21 157.23 541.45 162.2 550.58 168.46 559.48 176.04 568.07 184.6 576.42 193.64 584.32 203.01 591.67 212.39 598.62 221.38 604.89 229.92 610.36 237.89 615.31 245.03 619.36 251.53 622.45 257.45 625.74 264.94 626.85 277.88 625.02 284.15 622.37 290.39 615.86 304.96 613.09 313.5 612.18 319.42 611.84 325.84 612.21 332.73 613.76 339.67 616.15 347.03 619.4 354.78 623.81 362.54 628.92 370.66 634.56 379.12 640.89 387.58 647.15 396.2 653.08 404.96 658.95 413.76 663.99 422.77 667.99 432.02 671.3 441.38 673.26 451.06 673.8 461.1 673.33 471.33 671.38 481.96 668.03 492.99 663.69 504.18 658.09 515.71 651.41 527.44 644.03 539.08 635.82 550.66 626.98 561.9 617.82 572.54 608.29 582.36 598.56 591.01 588.84 598.41 579.1 604.17 569.46 608.02 560.05 610.31 550.81 610.66 541.8 609.16 533.11 606.71 524.63 603.15 516.37 599.04 508.41 595.61 500.61 592.96 492.94 591.79 485.5 593.09 478.11 596.82 470.74 603.2 463.52 612.34 456.24 623.57 448.88 636.2 441.59 649.43 434.16 662 426.59 672.7 419.04 680.75 411.3 685.07 403.38 685.11 395.46 681.3 387.35 673.63 379.05 662.92 370.75 651.02 362.48 639.05 354.26 628.4 346.06 620.43 337.92 615.58 329.91 614.09 321.93 616.23 314.09 621.03 306.44 627.6 298.85 635.52 291.47 643.14 284.35 649.45 277.31 654.22 270.55 656.25 264.12 655.26 257.78 651.57 251.77 644.96 246.13 635.87 240.57 624.97 235.38 612.67 230.56 599.66 225.79 586.47 221.38 573.61 217.31 561.49 213.24 550.36 209.46 540.4 205.98 531.63 202.4 524.14 199.05 517.68 195.92 512.05 191.01 505.24 181.5 493.53 176.81 487.51 173.44 483.49 170.16 478.94 167 473.79 163.59 468.59 160.34 462.75 157.3 456.26 154.11 449.71 151.2 442.55 148.65 434.79 146.1 427 144.01 418.66 142.45 409.8 141.06 400.94 140.33 391.79 140.26 382.39 140.47 373 141.39 363.37 143 353.54 144.91 343.73 147.5 333.74 150.72 323.62 154.2 313.56 158.26 303.45 162.83 293.38 167.57 283.5 172.75 273.81 178.31 264.45 183.91 255.52 189.81 247.12 195.95 239.44 202.02 232.41 208.28 226.27 214.67 221.16 220.92 216.78 227.27 213.42 233.72 211.06 239.97 209.14 246.31 207.92 252.73 207.19 258.95 206.22 265.28 205.19 271.71 203.8 277.97 201.38 284.37 198.13 290.92 193.92 297.34 188.38 303.95 181.92 310.75 174.75 317.46 166.93 324.39 159.12 331.56 151.81 338.67 145.21 346.04 140.03 353.68 136.68 361.28 134.99 369.17 135.39 377.36 137.77 385.52 141.35 394 146.1 402.79 151.46" stroke-dasharray="8 1" transform="rotate(12.12, 400, 400)" opacity="0.43"></path><path d="M408.12 162.58C416.64 167.33 425.26 171.44 433.96 174.55 442.67 176.06 451.47 176.33 460.34 175.51 469.21 173.43 478.14 170.91 487.09 168.4 496.03 165.87 504.95 164.23 513.81 163.79 522.61 164.41 531.29 166.65 539.78 170.5 548.13 175.61 556.19 182.12 563.89 189.76 571.33 198.09 578.3 207.02 584.69 216.23 590.71 225.35 596.05 234.29 600.62 242.87 604.74 250.85 608.01 258.29 610.42 265.2 612.89 274.24 613.17 289.65 611.36 296.67 609.01 303.27 603.67 317.53 601.61 325.53 601.14 330.97 601.19 336.88 601.88 343.26 603.64 349.63 606.15 356.47 609.39 363.76 613.66 371.05 618.54 378.79 623.86 386.98 629.8 395.17 635.67 403.63 641.23 412.36 646.76 421.12 651.56 430.18 655.43 439.54 658.72 448.98 660.81 458.76 661.63 468.85 661.57 479.03 660.16 489.52 657.46 500.23 653.86 510.92 649.08 521.7 643.25 532.41 636.73 542.8 629.38 552.81 621.36 562.18 612.96 570.78 604.12 578.33 595 584.57 585.79 589.61 576.48 593.06 567.16 594.79 557.97 595.34 548.87 594.34 539.93 592.03 531.22 589.32 522.68 586.09 514.32 582.87 506.21 580.75 498.25 579.75 490.43 580.42 482.82 583.5 475.28 588.83 467.8 596.47 460.46 606.35 453.12 617.81 445.76 630.14 438.47 642.61 431.1 654.11 423.65 663.6 416.23 670.5 408.69 673.89 401.03 673.36 393.38 669.4 385.59 661.96 377.68 651.81 369.77 640.56 361.93 629.18 354.19 618.88 346.45 610.89 338.83 605.61 331.35 603.32 323.89 604.35 316.6 607.93 309.51 613.37 302.47 620.39 295.66 627.54 289.1 633.93 282.61 639.34 276.39 642.58 270.49 643.29 264.66 641.68 259.14 637.33 253.96 630.52 248.83 621.77 244.04 611.32 239.59 599.72 235.15 587.46 231.02 574.98 227.21 562.74 223.35 550.99 219.76 540 216.42 529.93 212.95 520.84 209.69 512.71 206.6 505.44 203.32 499.07 200.16 493.31 197.13 487.96 192.24 480.85 182.5 466.91 177.68 459.36 174.28 454.27 171.04 448.68 167.99 442.56 164.82 436.43 161.93 429.74 159.38 422.49 156.84 415.23 154.74 407.42 153.15 399.07 151.72 390.73 150.93 382.08 150.79 373.17 150.91 364.28 151.7 355.15 153.16 345.86 154.92 336.63 157.33 327.28 160.36 317.89 163.64 308.64 167.49 299.45 171.85 290.44 176.39 281.7 181.37 273.28 186.73 265.33 192.16 257.84 197.9 250.99 203.89 244.9 209.85 239.4 216.01 234.77 222.32 231.06 228.52 227.88 234.84 225.52 241.25 223.92 247.51 222.46 253.85 221.41 260.27 220.55 266.53 219.19 272.87 217.55 279.3 215.36 285.58 212.09 291.98 207.97 298.51 202.94 304.91 196.77 311.47 189.86 318.2 182.48 324.84 174.69 331.67 167.14 338.72 160.27 345.7 154.23 352.91 149.65 360.37 146.86 367.79 145.66 375.48 146.41 383.43 148.98 391.37 152.61 399.6 157.32 408.11 162.57" stroke-dasharray="2 7" transform="rotate(16.16, 400, 400)" opacity="0.75"></path><path d="M412.96 173.7C421.18 178.37 429.47 182.47 437.82 185.66 446.17 187.38 454.57 187.95 463 187.47 471.43 185.73 479.87 183.47 488.27 181.08 496.65 178.49 504.97 176.56 513.16 175.58 521.28 175.44 529.22 176.73 536.92 179.49 544.46 183.44 551.68 188.79 558.49 195.35 565.06 202.75 571.13 210.95 576.63 219.66 581.78 228.56 586.28 237.53 590.06 246.39 593.44 254.89 596.07 263.03 597.91 270.75 599.38 277.88 600.11 284.57 600.12 290.89 599.51 299.41 595.85 315.01 593.47 322.62 591.7 330.08 590.46 346.3 591.64 355.3 593.58 361.4 596.17 367.94 599.38 374.93 603.51 381.91 608.15 389.37 613.16 397.31 618.73 405.25 624.21 413.51 629.41 422.06 634.6 430.64 639.14 439.52 642.87 448.69 646.12 457.89 648.29 467.36 649.34 477.04 649.63 486.71 648.69 496.52 646.58 506.36 643.67 516.03 639.64 525.55 634.62 534.73 628.94 543.46 622.44 551.57 615.24 558.84 607.64 565.3 599.55 570.62 591.1 574.63 582.5 577.63 573.71 579.22 564.83 579.4 555.99 578.81 547.17 577.13 538.42 574.65 529.83 572.27 521.36 569.86 513.03 567.9 504.89 567.31 496.88 568.05 489.01 570.5 481.3 575.18 473.69 581.85 466.17 590.43 458.76 600.76 451.39 612.18 444.04 624 436.77 635.58 429.47 645.96 422.14 654.25 414.85 660.05 407.5 662.59 400.08 661.56 392.67 657.49 385.19 650.31 377.64 640.69 370.1 630.09 362.66 619.3 355.36 609.38 348.06 601.43 340.91 595.81 333.92 592.82 326.95 592.83 320.17 595.24 313.61 599.53 307.07 605.54 300.77 612.02 294.73 618.19 285.87 625.95 269.65 629.06 262.33 623.3 257.57 616.79 253.12 608.41 248.97 598.6 244.81 587.79 240.92 576.32 237.31 564.63 233.62 552.95 230.16 541.62 226.92 530.86 223.54 520.73 220.32 511.35 217.26 502.73 214 494.87 210.84 487.66 207.79 480.98 204.5 474.88 201.28 469.08 198.14 463.43 194.76 458.12 191.46 452.76 188.28 447.22 184.89 441.82 181.66 436.12 178.63 430.05 175.49 424.02 172.61 417.56 170.08 410.65 167.55 403.73 165.45 396.36 163.85 388.52 162.4 380.69 161.56 372.59 161.33 364.3 161.36 356.04 162.04 347.61 163.35 339.1 164.95 330.67 167.18 322.22 169.99 313.85 173.07 305.65 176.7 297.62 180.83 289.9 185.15 282.47 189.9 275.47 195.04 269.02 200.27 262.99 205.82 257.62 211.63 253 217.44 248.83 223.46 245.43 229.65 242.79 235.77 240.44 242.02 238.69 248.37 237.43 254.6 236.05 260.92 234.81 267.32 233.51 273.57 231.53 279.92 229.1 286.34 226.03 292.63 221.89 299.03 216.96 305.53 211.22 311.91 204.55 318.44 197.36 325.1 189.91 331.68 182.32 338.43 175.14 345.36 168.79 352.23 163.36 359.3 159.4 366.59 157.17 373.84 156.43 381.33 157.5 389.05 160.23 396.76 163.91 404.73 168.55 412.95 173.69" stroke-dasharray="3 1" transform="rotate(20.200000000000003, 400, 400)" opacity="0.89"></path><path d="M417.02 184.82C424.93 189.39 432.86 193.47 440.82 196.73 448.77 198.64 456.74 199.49 464.68 199.35 472.62 197.98 480.52 196.03 488.34 193.83 496.12 191.29 503.79 189.18 511.28 187.81 518.7 187.04 525.88 187.49 532.78 189.25 539.53 192.06 545.93 196.23 551.89 201.62 557.63 207.92 562.87 215.15 567.54 223.08 571.92 231.41 575.68 240.06 578.77 248.82 581.54 257.48 583.64 265.97 585.04 274.21 586.16 282.04 586.65 289.52 586.54 296.66 586.31 303.32 585.6 309.7 584.5 315.86 582.95 324.47 579.98 341.13 579.24 349.57 579.53 355.12 580.26 360.94 581.48 367.07 583.57 373.14 586.21 379.58 589.38 386.41 593.35 393.22 597.75 400.46 602.46 408.15 607.67 415.84 612.78 423.81 617.62 432.02 622.48 440.25 626.76 448.71 630.33 457.38 633.5 466.02 635.72 474.82 636.94 483.68 637.52 492.45 637 501.17 635.41 509.73 633.11 518.01 629.79 525.94 625.52 533.34 620.65 540.23 614.97 546.37 608.59 551.58 601.8 556.05 594.49 559.43 586.76 561.62 578.84 563.06 570.66 563.37 562.31 562.63 553.94 561.53 545.51 559.8 537.09 557.73 528.75 556.15 520.48 554.93 512.3 554.47 504.25 555.51 496.31 557.94 488.48 562.01 480.79 568.03 473.19 575.75 465.68 584.96 458.28 595.43 450.93 606.56 443.64 617.69 436.42 628.29 429.21 637.51 422.02 644.64 414.86 649.41 407.69 651.17 400.51 649.71 393.34 645.56 386.14 638.65 378.93 629.57 371.72 619.6 364.66 609.41 357.76 599.9 350.87 592.04 344.15 586.16 337.62 582.57 331.1 581.67 324.78 582.99 318.68 586.14 312.61 591.07 306.77 596.72 301.19 602.44 292.98 610.4 277.95 617.01 271.15 614.15 266.7 609.81 262.53 603.57 258.63 595.76 254.69 586.77 250.99 576.79 247.52 566.2 243.96 555.27 240.6 544.27 237.42 533.47 234.09 522.95 230.9 512.91 227.85 503.43 224.59 494.49 221.42 486.13 218.35 478.3 215.04 470.99 211.8 464.06 208.65 457.44 205.26 451.16 201.96 445 198.79 438.87 195.42 432.93 192.21 426.86 189.21 420.62 186.1 414.45 183.26 408.01 180.74 401.28 178.25 394.56 176.16 387.52 174.54 380.15 173.08 372.79 172.19 365.28 171.89 357.68 171.84 350.11 172.4 342.5 173.56 334.91 175 327.4 177.04 319.99 179.64 312.77 182.5 305.73 185.9 298.96 189.78 292.58 193.85 286.47 198.36 280.85 203.25 275.79 208.25 271.06 213.58 266.95 219.18 263.51 224.81 260.35 230.66 257.81 236.69 255.83 242.67 253.91 248.81 252.36 255.06 251.04 261.22 249.4 267.48 247.67 273.82 245.68 280.05 242.92 286.36 239.62 292.75 235.66 299.03 230.72 305.4 225.07 311.86 218.79 318.22 211.79 324.7 204.49 331.29 197.14 337.81 189.87 344.48 183.17 351.29 177.41 358.05 172.62 364.99 169.29 372.1 167.61 379.18 167.31 386.47 168.66 393.95 171.54 401.42 175.23 409.11 179.79 417.01 184.81" stroke-dasharray="10 10" transform="rotate(24.24, 400, 400)" opacity="0.78"></path><path d="M420.08 195.94C427.64 200.41 435.19 204.44 442.72 207.75 450.25 209.84 457.74 210.96 465.17 211.15 472.58 210.16 479.91 208.56 487.12 206.62 494.28 204.21 501.28 202.05 508.07 200.42 514.78 199.18 521.22 198.93 527.35 199.8 533.33 201.56 538.94 204.58 544.12 208.77 549.09 213.87 553.58 219.97 557.53 226.89 561.23 234.37 564.36 242.35 566.89 250.65 569.16 259.07 570.84 267.54 571.92 275.93 572.81 284.11 573.16 292.08 573.02 299.8 572.83 307.17 572.27 314.28 571.41 321.16 570.72 327.7 569.9 334.09 569.06 340.37 568.64 346.4 568.37 352.43 568.34 358.52 568.97 364.45 569.97 370.54 571.41 376.82 573.6 383.02 576.27 389.49 579.38 396.24 583.19 402.97 587.36 410.03 591.76 417.44 596.61 424.84 601.36 432.42 605.86 440.15 610.39 447.87 614.41 455.71 617.79 463.61 620.86 471.47 623.1 479.31 624.45 487.07 625.26 494.67 625.09 502.06 623.96 509.11 622.22 515.86 619.53 522.1 615.96 527.71 611.84 532.84 606.95 537.17 601.37 540.59 595.39 543.44 588.86 545.33 581.9 546.24 574.7 546.71 567.18 546.36 559.45 545.34 551.64 544.34 543.7 543.1 535.71 541.9 527.75 541.47 519.78 541.67 511.87 542.81 504.04 545.43 496.28 549.4 488.6 554.85 481.03 561.94 473.53 570.37 466.13 579.89 458.81 590.24 451.56 600.86 444.38 611.15 437.25 620.7 430.18 628.76 423.14 634.77 416.15 638.58 409.17 639.64 402.22 637.81 395.29 633.63 388.37 627.01 381.47 618.45 374.58 609.11 367.87 599.5 361.35 590.42 354.82 582.72 348.49 576.67 342.37 572.59 336.25 570.87 330.35 571.18 324.67 573.22 319 577.04 313.56 581.75 308.38 586.82 300.73 594.54 286.71 603.53 280.34 603.1 276.15 600.72 272.2 596.56 268.49 590.8 264.71 583.82 261.15 575.64 257.79 566.59 254.32 556.93 251.02 546.86 247.87 536.65 244.57 526.4 241.39 516.33 238.32 506.58 235.05 497.11 231.87 488.08 228.77 479.49 225.45 471.28 222.2 463.46 219.03 456 215.65 448.84 212.36 441.92 209.2 435.17 205.87 428.6 202.69 422.08 199.72 415.56 196.66 409.12 193.87 402.59 191.38 395.94 188.93 389.31 186.86 382.51 185.24 375.57 183.77 368.62 182.85 361.67 182.48 354.78 182.34 347.91 182.78 341.12 183.8 334.48 185.08 327.91 186.93 321.55 189.32 315.47 191.95 309.54 195.1 303.96 198.72 298.81 202.54 293.86 206.78 289.4 211.4 285.48 216.14 281.76 221.22 278.58 226.57 275.93 231.97 273.39 237.61 271.28 243.44 269.53 249.26 267.64 255.24 265.91 261.34 264.2 267.39 262 273.54 259.57 279.78 256.75 285.94 253.15 292.19 248.98 298.51 244.19 304.73 238.56 311.05 232.36 317.44 225.71 323.75 218.57 330.16 211.33 336.67 204.25 343.11 197.42 349.67 191.29 356.36 186.17 363 182.05 369.78 179.34 376.71 178.19 383.61 178.3 390.67 179.91 397.9 182.89 405.11 186.58 412.51 191.05 420.07 195.93" stroke-dasharray="8 6" transform="rotate(28.28, 400, 400)" opacity="0.19"></path><path d="M421.94 207.05C429.13 211.41 436.27 215.38 443.35 218.73 450.43 220.97 457.43 222.34 464.32 222.85 471.2 222.25 477.95 221.02 484.53 219.39 491.07 217.21 497.41 215.11 503.51 213.35 512.39 211.39 528.36 212.95 535.28 216.96 539.57 220.84 543.4 225.72 546.73 231.49 549.86 237.89 552.47 244.93 554.55 252.46 556.44 260.27 557.81 268.32 558.68 276.47 559.43 284.62 559.74 292.7 559.64 300.64 559.56 308.4 559.19 315.98 558.59 323.35 558.2 330.48 557.74 337.44 557.27 344.26 557.22 350.87 557.32 357.4 557.65 363.9 558.56 370.26 559.8 376.66 561.41 383.13 563.68 389.53 566.35 396.07 569.38 402.77 573.03 409.45 576.95 416.32 581.07 423.4 585.57 430.47 589.96 437.59 594.12 444.7 598.34 451.81 602.09 458.89 605.28 465.87 608.23 472.8 610.45 479.56 611.89 486.08 612.94 495.43 609.94 511.59 605.95 517.96 600.46 523.04 585.5 528.78 576.43 529.51 569.98 529.6 563.18 529.2 556.11 528.47 548.92 528.06 541.56 527.73 534.09 527.72 526.6 528.64 519.06 530.33 511.52 533.02 504.02 537.09 496.54 542.37 489.13 548.91 481.77 556.73 474.48 565.55 467.26 575.08 460.11 585.06 453.03 594.98 446.02 604.32 439.06 612.77 432.15 619.69 425.32 624.63 418.51 627.56 411.75 628 405.05 625.86 398.36 621.69 391.71 615.37 385.12 607.33 378.52 598.6 372.14 589.58 365.96 580.94 359.78 573.44 353.8 567.31 348.05 562.84 339.51 560.12 323.56 565.38 316.17 571.5 308.99 578.59 295.8 588.86 289.77 590.31 283.89 588.44 273.04 575.41 268.02 565.04 264.61 557.01 261.34 548.33 258.21 539.23 254.91 529.84 251.73 520.35 248.64 510.92 245.36 501.55 242.16 492.4 239.03 483.55 235.7 474.91 232.45 466.6 229.27 458.62 225.91 450.86 222.65 443.38 219.51 436.15 216.22 429.06 213.1 422.15 210.17 415.36 207.17 408.65 204.43 402 201.99 395.39 199.59 388.8 197.55 382.22 195.94 375.63 194.47 369.05 193.51 362.62 193.09 356.37 193.03 347.12 196.02 329.88 199.02 322.07 202.87 314.78 213.19 302.43 219.49 297.47 226.35 293.06 241.66 286.07 249.95 283.11 255.55 280.91 261.33 278.69 267.24 276.33 273.12 273.41 279.12 270.15 285.21 266.47 291.25 262.04 297.38 257.09 303.58 251.61 309.72 245.46 315.93 238.91 322.22 232.08 328.44 224.99 334.75 217.99 341.14 211.32 347.47 205.04 353.91 199.55 360.44 195.12 366.93 191.66 373.54 189.56 380.25 188.92 386.95 189.39 393.78 191.23 400.72 194.29 407.66 197.96 414.73 202.32 421.92 207.05" stroke-dasharray="3 0" transform="rotate(32.32, 400, 400)" opacity="0.92"></path><path d="M422.49 218.17C429.29 222.4 436.01 226.3 442.62 229.65 449.23 232.03 455.72 233.63 462.07 234.45 468.4 234.22 474.57 233.39 480.54 232.11 489.32 229.26 505.51 224.22 512.78 223.2 519.52 223.79 530.83 230.83 535.28 237.21 537.95 242.4 540.15 248.32 541.9 254.82 543.51 261.73 544.68 269.02 545.43 276.57 546.13 284.27 546.46 292.07 546.47 299.86 546.55 307.62 546.4 315.29 546.09 322.83 546.01 330.25 545.88 337.53 545.78 344.66 546.07 351.66 546.5 358.54 547.13 365.32 548.29 372 549.73 378.64 551.48 385.24 553.8 391.8 556.45 398.37 559.39 404.97 562.85 411.56 566.54 418.21 570.37 424.9 574.54 431.6 578.59 438.18 582.42 444.64 586.32 451.07 589.8 457.33 592.8 463.37 596.69 472.18 600.56 487.9 600.33 494.51 598.67 500.26 590.99 508.34 585.17 510.61 578.23 512.06 561.56 512.82 552.17 512.87 545.66 513.41 538.93 514.25 532.05 515.59 525.11 517.9 518.08 521.03 511 525.11 503.93 530.39 496.84 536.69 489.77 543.97 482.74 552.21 475.74 561.09 468.8 570.35 461.9 579.75 455.05 588.82 448.28 597.14 441.55 604.47 434.87 610.29 428.27 614.24 421.7 616.35 415.18 616.25 408.74 613.87 402.31 609.74 395.94 603.73 389.64 596.21 383.35 588.08 377.27 579.64 371.41 571.47 365.54 564.22 359.89 558.08 354.45 553.32 346.4 549.61 331.37 551.92 324.4 556.61 317.62 562.76 305.09 573.3 299.32 576.03 293.65 576.24 283.09 568.53 278.13 560.97 274.76 554.77 271.5 547.76 268.37 540.14 265.08 532.07 261.88 523.65 258.77 515.08 255.48 506.35 252.26 497.65 249.12 489.07 245.79 480.54 242.54 472.21 239.38 464.14 236.04 456.18 232.81 448.47 229.71 441.02 226.49 433.67 223.42 426.54 220.55 419.62 217.63 412.76 214.96 406.06 212.58 399.52 210.23 393 208.23 386.6 206.64 380.34 204.69 371.08 203.54 353.97 204.39 346.18 206.08 338.76 212.25 325.77 216.64 320.26 221.72 315.17 233.97 306.71 240.98 303.11 245.84 300.61 250.94 298.21 256.25 295.82 261.6 293.06 267.12 290.15 272.79 287 278.46 283.28 284.25 279.2 290.15 274.69 296.02 269.55 301.97 263.97 308.01 257.99 314 251.53 320.07 244.83 326.2 238.04 332.29 231.19 338.45 224.58 344.68 218.45 350.87 212.81 357.13 208.02 363.47 204.28 369.78 201.49 376.18 199.98 382.66 199.79 389.13 200.61 395.68 202.64 402.32 205.75 408.95 209.36 415.68 213.6 422.48 218.17" stroke-dasharray="2 2" transform="rotate(36.36, 400, 400)" opacity="0.96"></path><path d="M421.71 229.29C428.1 233.38 434.37 237.19 440.51 240.53 446.64 243.01 452.62 244.81 458.43 245.92 470 245.3 480.77 242.85 490.51 239.88 499.97 236.42 508.19 235.12 514.94 236.76 521.25 240.73 525.99 248.11 529.1 258.28 531.91 270.29 533.34 283.93 533.6 298.33 534.26 313.1 534.46 327.83 534.59 342.15 536.17 356.25 538.43 369.92 541.61 383.14 543.96 389.71 546.56 396.2 549.39 402.62 552.67 409.03 556.12 415.38 559.67 421.66 563.52 427.93 567.24 433.97 570.75 439.76 574.34 445.53 577.56 451.01 580.35 456.18 585.43 466.33 588.11 474.92 588.2 481.61 586.81 487.76 582.7 491.85 576.18 494.01 568.38 496.28 558.65 497.68 547.52 499.27 535.77 503.29 523.15 509.56 510.09 518.97 496.94 532.2 483.63 548.23 470.43 565.55 457.33 582.43 444.37 596 431.72 603.58 425.42 604.98 419.18 604.4 413.02 601.85 406.87 597.79 400.79 592.11 394.79 585.09 388.79 577.54 383 569.69 377.44 561.99 371.87 555.03 366.51 548.95 361.36 544 351.03 538.7 341.52 538.57 332.87 542.3 324.09 549.4 316.08 556.19 308.83 560.62 301.31 562.86 294.39 560.61 288.04 554.1 281.21 544.61 274.75 532.05 268.66 517.69 261.92 502.23 255.45 486.39 249.32 470.94 242.63 455.54 236.4 440.87 230.87 427.14 228.04 420.33 225.44 413.72 223.13 407.32 220.85 400.95 218.91 394.76 217.34 388.79 215.39 380 214.08 364.12 214.74 357.04 216.56 347.81 220.26 339.97 225.65 333.47 231.75 326.76 239.33 321.04 248.09 315.92 257.24 309.75 267.32 303.26 278.06 295.87 288.87 286.43 300.19 275.57 311.83 263.46 323.38 250.19 335.24 237.15 347.29 225.74 359.26 216.54 371.48 211.29 383.9 210.83 390.09 211.94 396.35 214.12 402.65 217.25 408.95 220.8 415.31 224.89 421.7 229.29" stroke-dasharray="5 10" transform="rotate(40.400000000000006, 400, 400)" opacity="0.38"></path><path d="M419.63 240.41C431.56 247.78 442.9 253.67 453.5 257.26 464.03 257.4 473.71 255.75 482.34 253.3 490.74 249.92 497.95 248 503.81 248.37 509.36 250.43 513.52 255.53 516.3 263.31 518.94 272.91 520.47 284.41 521.07 297.06 522.17 310.45 522.93 324.19 523.69 337.8 525.77 351.47 528.42 364.8 531.81 377.59 536.9 390.36 542.73 402.65 548.97 414.28 556.24 425.92 562.72 436.28 567.93 445.24 574.08 457.63 573.55 473.8 566.62 478.14 560.14 481.28 551.82 484.32 542.11 488.18 531.75 494.51 520.44 503.1 508.58 514.37 496.53 528.48 484.2 544.37 471.86 560.53 459.55 575.5 447.31 586.91 435.32 592.66 423.37 592.78 411.63 586.2 400.24 573.97 388.84 559.92 378.26 546.04 368.51 534.88 358.69 528.63 349.65 526.83 341.38 528.67 332.97 534.03 325.24 539.88 318.17 544.46 310.83 547.96 304.01 547.99 297.67 544.38 290.88 538.27 284.42 529.05 278.3 517.64 271.6 504.88 265.17 491.14 259.11 477.21 252.57 463.03 246.5 449.21 241.13 436.11 235.66 423.06 231.19 410.76 228.03 399.38 225.32 387.99 224.37 378 225.14 369.33 226.64 360.57 229.89 353.01 234.72 346.48 240.22 339.54 247.13 333.17 255.18 326.96 263.65 319.61 273.04 311.67 283.11 302.78 293.32 292.22 304.05 280.58 315.13 268.22 326.18 255.39 337.54 243.33 349.06 233.28 360.54 225.57 372.23 221.62 384.01 222.03 395.78 225.37 407.7 231.92 419.62 240.4" stroke-dasharray="8 7" transform="rotate(44.44, 400, 400)" opacity="0.51"></path><path d="M416.39 251.53C427.44 258.63 437.83 264.51 447.45 268.45 457 269.32 465.68 268.48 473.33 266.68 484 262.56 499.18 263.11 503.66 270.22 506.26 277.37 507.97 286.52 508.95 297.06 510.48 308.51 511.77 320.66 513.09 332.99 515.58 345.59 518.54 358.02 522.06 369.99 527.02 382.01 532.52 393.49 538.27 404.19 544.9 414.89 550.8 424.23 555.55 432.17 561.36 443.24 562 458.68 556.51 464.28 551.22 468.8 544.22 473.76 535.86 479.86 526.89 488.22 516.92 498.58 506.29 511.01 495.44 525.32 484.19 540.51 472.81 555.13 461.42 568.07 450 577.4 438.74 581.5 427.52 580.75 416.45 574.22 405.68 562.86 394.9 549.91 384.87 536.89 375.6 525.94 366.28 518.97 357.64 515.74 349.7 515.81 341.61 519.32 334.11 523.88 327.19 528.01 320 531.98 313.26 533.47 306.93 532.07 300.2 528.79 293.76 522.63 287.64 514.17 281.03 504.36 274.69 493.15 268.73 481.27 262.38 468.93 256.51 456.53 251.33 444.49 246.09 432.42 241.8 420.87 238.73 410.08 236.07 399.29 235.03 389.69 235.58 381.22 236.78 372.61 239.6 364.89 243.88 357.86 248.77 350.33 254.99 343 262.31 335.54 270.05 327.01 278.7 317.81 288.02 307.77 297.54 296.53 307.59 284.61 318 272.51 328.45 260.52 339.19 249.72 350.08 241.17 360.98 234.94 372.03 232.22 383.11 233.4 394.2 237.03 405.34 243.44 416.39 251.53" stroke-dasharray="2 8" transform="rotate(48.48, 400, 400)" opacity="0.61"></path><path d="M412.18 262.65C422.33 269.45 431.81 275.28 440.5 279.49 449.13 281.02 456.91 281 463.73 279.94 473.27 276.41 487 274.74 491.3 279.15 493.96 284.04 495.9 290.86 497.29 299.17 499.21 308.4 500.98 318.57 502.78 329.21 505.6 340.23 508.78 351.32 512.36 362.13 517.14 373.05 522.3 383.52 527.58 393.29 533.59 403.06 538.91 411.62 543.22 418.95 548.64 429.41 550.15 445.87 545.89 453.39 541.66 459.46 535.86 466.28 528.77 474.33 521.12 484.2 512.46 495.66 503.09 508.52 493.46 522.4 483.36 536.4 473.02 549.23 462.63 560.11 452.12 567.46 441.67 570.1 431.24 568.63 420.9 562.25 410.78 551.74 400.65 539.88 391.18 527.77 382.38 517.15 373.52 509.71 365.27 505.3 357.62 503.77 349.83 505.45 342.55 508.48 335.76 511.7 328.72 515.44 322.06 517.6 315.77 517.63 309.13 516.46 302.75 512.81 296.67 506.99 290.19 500.01 283.99 491.41 278.18 481.79 272.06 471.64 266.42 461.02 261.46 450.35 256.48 439.58 252.38 429.01 249.43 418.86 246.84 408.71 245.74 399.42 246.08 390.92 247 382.28 249.39 374.19 253.13 366.44 257.42 358.2 262.96 349.9 269.53 341.3 276.5 331.83 284.36 321.74 292.89 311.05 301.63 299.64 310.93 287.98 320.58 276.62 330.31 265.81 340.34 256.48 350.51 249.49 360.71 244.7 371.04 243.11 381.36 244.93 391.69 248.76 402.02 254.98 412.18 262.65" stroke-dasharray="0 3" transform="rotate(52.52, 400, 400)" opacity="0.12"></path><path d="M407.24 273.77C416.51 280.23 425.1 285.95 432.93 290.36 440.73 292.48 447.71 293.22 453.82 292.95 468.78 288.98 483.25 295.41 486.11 303.97 488.4 310.96 490.57 319.03 492.75 327.78 495.81 336.93 499.13 346.41 502.71 355.86 507.28 365.43 512.07 374.78 516.88 383.67 522.3 392.56 527.07 400.53 530.94 407.61 534.71 414.75 537.15 421.17 538.16 427.06 538.6 433.35 537.46 439.57 534.8 446.05 531.49 453.54 526.76 461.87 520.83 471.29 514.42 482.03 507.02 493.88 498.87 506.47 490.48 519.39 481.54 531.84 472.28 542.71 462.94 551.55 453.4 557.09 443.83 558.48 434.25 556.44 424.68 550.28 415.24 540.62 405.79 529.83 396.89 518.64 388.56 508.49 380.18 500.8 372.31 495.5 364.94 492.61 357.46 492.57 350.39 493.97 343.75 495.98 336.88 498.95 330.34 501.06 324.13 501.76 317.61 501.87 311.34 500.03 305.38 496.3 299.08 491.7 293.07 485.49 287.46 478.04 281.61 470.11 276.25 461.38 271.54 452.23 266.83 442.95 262.95 433.49 260.13 424.05 257.63 414.61 256.47 405.62 256.63 397.05 257.29 388.36 259.28 379.88 262.5 371.46 266.2 362.65 271.05 353.6 276.87 344.2 283.07 334.22 290.1 323.77 297.79 313.01 305.71 301.98 314.17 291.08 322.99 280.86 331.93 271.49 341.16 263.74 350.53 258.31 359.95 254.87 369.47 254.27 378.97 256.62 388.49 260.57 397.96 266.54 407.24 273.77" stroke-dasharray="5 1" transform="rotate(56.56, 400, 400)" opacity="0.95"></path><path d="M401.86 284.89C410.25 290.99 418.01 296.54 425.06 301.07 435.23 304.4 451.74 304.1 458.05 302.7 463.68 301.53 472.11 305.79 475.44 311.71 478.03 316.68 480.52 322.77 482.99 329.67 486.21 336.93 489.58 344.72 493.1 352.75 497.41 360.89 501.83 369.09 506.18 377.15 511.04 385.22 515.27 392.76 518.7 399.78 522.1 406.9 524.37 413.7 525.41 420.34 526.05 427.38 525.32 434.65 523.3 442.35 520.76 450.86 516.97 460.15 512.08 470.26 506.79 481.18 500.55 492.73 493.58 504.44 486.38 515.97 478.59 526.61 470.42 535.49 462.16 542.4 453.62 546.31 444.95 546.64 436.28 544.19 427.52 538.3 418.79 529.5 410.06 519.75 401.76 509.52 393.92 499.94 386.04 492.22 378.56 486.3 371.51 482.31 364.34 480.75 357.53 480.58 351.06 481.2 344.42 483.03 338.04 484.55 331.96 485.24 325.63 485.85 319.54 485.05 313.75 482.73 307.7 479.89 301.94 475.57 296.57 469.98 291.04 464.02 285.98 457.07 281.55 449.4 277.14 441.62 273.51 433.32 270.83 424.66 268.43 416 267.25 407.39 267.25 398.87 267.66 390.26 269.28 381.57 272 372.77 275.14 363.69 279.32 354.32 284.4 344.65 289.81 334.68 296.01 324.45 302.84 314.19 309.9 304.04 317.47 294.32 325.41 285.54 333.48 277.75 341.84 271.63 350.34 267.69 358.91 265.48 367.58 265.73 376.21 268.47 384.88 272.46 393.47 278.13 401.86 284.89" stroke-dasharray="6 9" transform="rotate(60.599999999999994, 400, 400)" opacity="0.70"></path><path d="M396.38 296C403.91 301.71 410.87 307.04 417.2 311.6 426.36 315.62 441.44 317.55 447.38 316.97 457.21 317.11 469.47 327.82 473.5 335.33 476.77 340.88 480.13 347.1 483.53 353.8 487.55 360.58 491.59 367.69 495.49 375 499.8 382.31 503.52 389.47 506.54 396.49 509.56 403.59 511.61 410.72 512.63 417.97 513.38 425.54 512.97 433.5 511.44 441.93 509.54 450.89 506.55 460.47 502.57 470.55 498.27 480.99 493.1 491.63 487.22 502 481.13 511.84 474.46 520.57 467.35 527.48 460.15 532.62 452.62 535.12 444.88 534.6 437.12 531.88 429.2 526.34 421.22 518.38 413.24 509.65 405.57 500.39 398.25 491.49 390.91 483.93 383.87 477.66 377.16 472.87 370.37 470.05 363.85 468.46 357.62 467.71 351.25 468.21 345.11 468.76 339.23 468.94 333.17 469.39 327.33 468.91 321.77 467.32 316.04 465.52 310.58 462.48 305.52 458.28 300.35 453.85 295.64 448.38 291.51 442.02 287.42 435.58 284.04 428.39 281.53 420.57 279.25 412.74 278.06 404.66 277.92 396.4 278.12 388.11 279.4 379.55 281.65 370.78 284.25 361.88 287.79 352.69 292.14 343.33 296.79 333.91 302.16 324.45 308.12 315.22 314.29 306.33 320.96 298.09 327.99 290.94 335.15 284.79 342.59 280.25 350.19 277.68 357.85 276.54 365.62 277.48 373.36 280.49 381.14 284.42 388.85 289.75 396.38 296" stroke-dasharray="3 9" transform="rotate(64.64, 400, 400)" opacity="0.46"></path><path d="M391.12 307.12C397.8 312.4 404.01 317.45 409.68 321.95 417.92 326.48 431.75 330.48 437.4 330.92 447.2 331.37 460.05 338.91 464.25 344.57 467.5 348.76 470.75 353.69 473.98 359.25 477.69 364.85 481.33 370.99 484.79 377.6 488.57 384.2 491.81 390.97 494.42 397.87 497.06 404.85 498.89 412.07 499.84 419.57 500.62 427.29 500.43 435.43 499.3 443.96 497.9 452.77 495.56 461.97 492.37 471.36 488.93 480.78 484.7 490.05 479.81 498.75 474.75 506.77 469.11 513.58 463.02 518.66 456.85 522.22 450.3 523.54 443.49 522.37 436.66 519.52 429.6 514.38 422.4 507.26 415.2 499.53 408.19 491.25 401.44 483.1 394.67 475.89 388.12 469.53 381.82 464.25 375.46 460.48 369.31 457.71 363.39 455.72 354.46 454.59 337.47 453.11 329.47 451.3 321.57 448.69 307.38 438.54 301.41 431.05 297.67 425.7 294.56 419.52 292.22 412.55 290.09 405.59 288.91 398.2 288.66 390.5 288.68 382.8 289.64 374.76 291.46 366.49 293.57 358.21 296.5 349.73 300.16 341.22 304.06 332.83 308.63 324.58 313.74 316.75 319.03 309.39 324.79 302.8 330.89 297.32 337.11 292.77 343.62 289.68 350.29 288.3 357.02 288.05 363.87 289.51 370.71 292.65 377.59 296.45 384.43 301.39 391.12 307.12" stroke-dasharray="8 4" transform="rotate(68.68, 400, 400)" opacity="0.50"></path><path d="M386.38 318.24C398.13 327.23 408.32 335.08 416.72 340.78 425.22 342.65 432.26 343.85 437.92 345.76 444.29 346.69 450.03 350.22 455.22 356.64 461.85 363.22 468.35 372.59 474.09 384.46 480.84 396.33 485.3 409.71 487.08 424.16 488.43 439.07 486.5 455.39 481.58 471.86 475.97 487.54 467.68 500.92 457.47 509 446.99 512.22 435.03 507.86 422.24 496.14 409.44 482.54 397.04 468.3 385.44 456.37 373.69 448.82 362.45 443.85 352.12 440.07 341.43 438.42 331.51 435.17 322.96 429.28 314.3 423.41 307.33 414.34 302.92 402.15 299.17 389.96 298.81 375.97 301.44 361.25 305 346.81 311.35 332.27 319.76 319.4 328.78 308.49 339.44 301.29 350.86 299.56 362.51 301.15 374.62 307.81 386.38 318.24" stroke-dasharray="3 0" transform="rotate(72.72, 400, 400)" opacity="0.75"></path><path d="M382.45 329.36C392.63 337.53 401.65 345.15 409.31 351.31 417.08 354.5 423.77 357.05 429.4 359.83 435.61 361.41 441.29 364.73 446.4 370.3 452.56 375.75 458.41 383.74 463.39 394.28 469.13 404.82 472.86 417.05 474.36 430.27 475.62 443.59 474.21 457.73 470.31 471.27 465.94 483.62 459.25 493.42 450.77 498.52 442.08 499.9 431.91 495.33 420.76 485.02 409.6 473.29 398.55 460.58 388.04 449.16 377.45 440.72 367.22 434.12 357.76 428.73 348.11 425.28 339.15 421.1 331.47 415.31 323.77 409.78 317.57 401.83 313.62 391.34 310.18 380.84 309.63 368.92 311.62 356.63 314.3 344.74 319.38 333.27 326.27 323.72 333.64 315.9 342.49 311.43 352.12 311.45 361.93 313.77 372.26 320.06 382.45 329.36" stroke-dasharray="4 7" transform="rotate(76.76, 400, 400)" opacity="0.92"></path><path d="M379.56 340.48C388.23 347.74 396.1 354.9 402.99 361.19 409.99 365.32 416.23 368.99 421.66 372.67 427.52 375.19 432.94 378.83 437.76 384.04 443.33 389 448.46 396.01 452.69 405.2 457.47 414.38 460.52 424.97 461.71 436.2 462.81 447.32 461.76 458.65 458.68 468.92 455.31 477.98 449.99 484.57 443.07 487.23 436.01 487.27 427.55 482.77 418.04 473.91 408.53 464 398.93 452.98 389.68 442.5 380.38 433.89 371.32 426.4 362.93 419.91 354.44 414.94 346.57 409.78 339.85 403.82 333.17 398.21 327.79 391.04 324.32 382.17 321.24 373.3 320.55 363.64 321.98 354.06 323.91 344.89 327.85 336.51 333.33 330.07 339.17 324.96 346.31 322.69 354.23 323.93 362.28 326.63 370.89 332.36 379.56 340.48" stroke-dasharray="8 9" transform="rotate(80.80000000000001, 400, 400)" opacity="0.11"></path><path d="M377.89 351.6C385.08 357.87 391.8 364.33 397.85 370.38 403.99 375.01 409.63 379.41 414.65 383.75 419.98 387.17 424.92 391.26 429.29 396.32 434.14 401.12 438.5 407.35 442 415.12 445.86 422.88 448.26 431.5 449.15 440.31 450.04 448.92 449.23 457.26 446.81 464.34 442.16 472.39 425.53 472.27 414.25 462.79 406.4 454.68 398.34 445.45 390.47 436.28 382.59 428.16 374.87 420.56 367.68 413.66 360.48 407.79 353.81 401.97 348.13 395.95 342.51 390.23 337.98 383.73 335.02 376.4 332.33 369.08 331.59 361.64 332.55 354.71 335.31 345.29 348.23 335.36 357.32 336.96 363.72 339.71 370.69 344.73 377.89 351.6" stroke-dasharray="5 2" transform="rotate(84.84, 400, 400)" opacity="0.32"></path><path d="M377.53 362.72C389.03 372.38 399.73 383 408.35 392.7 417.73 400 426.05 409.6 431.3 422.16 437.46 434.71 438.54 447.98 434.85 457.26 430.89 463.91 422.05 462.7 409.62 451.67 397.18 438.85 383.78 423.39 372.1 409.78 360.48 398.43 350.7 386.82 345.71 375.13 342.34 358.6 360.95 349.23 377.53 362.72" stroke-dasharray="9 10" transform="rotate(88.88, 400, 400)" opacity="0.63"></path><path d="M378.51 373.84C387.15 381.5 395.63 390.62 402.67 399.36 410.12 406.84 416.66 415.52 420.6 424.97 425.37 438.64 416.83 450.04 404.41 440.55 395.2 431.09 385.11 419.08 376.29 407.85 367.56 397.58 360.21 387.41 356.41 378.59 353.53 366.81 366.25 363.3 378.51 373.84" stroke-dasharray="8 1" transform="rotate(92.92, 400, 400)" opacity="0.23"></path><path d="M380.77 384.96C392.36 394.96 404.91 410.45 409.9 423.03 415.77 435.6 411.06 440.12 398.94 429.43 386.81 417.01 372.39 398.03 367.11 386.13 362.61 374.22 369.17 373.33 380.77 384.96" stroke-dasharray="5 10" transform="rotate(96.96, 400, 400)" opacity="0.53"></path></g></svg>