<svg xmlns="http://www.w3.org/2000/svg" viewBox="0 0 800 800"><defs><linearGradient x1="50%" y1="0%" x2="50%" y2="100%" id="a"><stop stop-color="hsl(206, 75%, 49%)" offset="0%"/><stop stop-color="hsl(331, 90%, 56%)" offset="100%"/></linearGradient></defs><g stroke-width="2" stroke="url(#a)" fill="none" stroke-linecap="round"><path d="M387.14 118.1c9.57 4.95 19.24 8.98 29 11.61 9.78.56 19.68-.37 29.69-2.41 10.07-3.11 20.28-6.06 30.63-8.19 10.43-1.21 21.03-.53 31.76 2.25 10.83 4.53 21.78 11.05 32.81 19.17 11.07 9.04 22.15 18.76 33.15 28.65 10.89 9.41 21.55 18.21 31.83 26.17 9.95 6.72 19.31 12.49 27.92 17.46 7.97 3.89 14.97 7.38 20.81 10.72 6.85 4.56 12.58 16.3 11.55 24.23-1.66 5.99-4.26 12.8-7.58 20.35-3.23 7.96-6.65 16.53-9.97 25.55-2.4 9.31-4.14 18.92-4.98 28.69.7 9.91 2.59 19.87 5.73 29.77 4.74 9.94 10.54 19.75 17.16 29.34 7.55 9.6 15.07 18.74 22.16 27.43 6.87 8.71 12.58 17 16.83 24.95 3.14 8.06 4.43 15.92 3.81 23.7-2.07 8.1-6.03 16.37-11.71 24.98-6.88 9.23-15.15 19.09-24.52 29.72-10.01 11.44-20.66 23.76-31.71 36.93-11.07 13.73-22.16 27.95-33.1 42.3-10.53 13.96-20.72 27.14-30.5 38.91-9.21 9.96-17.99 17.53-26.38 22.24-7.84 2.14-15.39 1.34-22.72-2.12-6.92-4.78-13.77-10.71-20.61-16.67-6.6-4.22-13.34-6.26-20.26-5.17-6.82 5.12-13.92 13.94-21.34 25.99-7.39 14.45-15.14 29.68-23.26 43.91-8.14 11.76-16.66 19.27-25.57 21.42-8.91-3.04-18.2-11.33-27.83-23.7-9.64-13.95-19.37-27.69-29.15-39.2-9.76-7.49-19.53-10.48-29.27-8.98-9.69 5.88-19.3 14.39-28.79 23.92-9.39 9.6-18.62 17.06-27.62 21.21-8.87.66-17.47-3.02-25.75-10.73-8.1-10.9-15.85-24.37-23.17-39.32-7.15-15.39-13.86-30.3-20.1-43.98-6.07-11.88-11.67-21.71-16.81-29.51-7.32-7.62-19.85-14.74-25.24-16.87-5.29-2.33-15.1-12.12-19.79-20.09-3.38-6.18-6.65-13.34-9.76-21.33-3.41-8.33-6.64-17.28-9.64-26.69-3.19-9.57-6.07-19.44-8.56-29.49-2.51-10.09-4.51-20.28-5.93-30.51-1.25-10.24-1.78-20.29-1.57-30.16.5-9.9 1.78-19.7 3.8-29.43 2.34-9.86 5.4-19.76 9.13-29.78 3.98-10.24 8.55-20.69 13.65-31.38 5.21-10.96 10.85-22.18 16.83-33.61 5.95-11.54 12.15-23.13 18.55-34.6 6.24-11.17 12.61-21.86 19.09-31.79 6.23-9.09 12.56-17.03 18.96-23.59 6.15-5.41 12.4-9.35 18.76-11.87 6.14-1.75 12.44-2.56 18.91-2.8 6.3-.61 12.83-1.52 19.59-3.16 6.66-3.15 13.59-7.53 20.81-13.19 7.15-7.11 14.62-14.94 22.39-22.96 7.73-7.89 15.78-14.66 24.14-19.68 8.34-3.19 17-3.95 25.95-2.27 8.95 3.28 18.21 8.08 27.78 13.66" stroke-dasharray="10 5" opacity=".28"/><path d="M411.087 129.329c8.941 5.553 18.06 10.287 27.391 13.723 9.48 1.482 19.21 1.528 29.13.464 10.041-2.218 20.234-4.456 30.505-6.096 10.295-.977 20.593-.3 30.857 2.27 10.199 4.208 20.328 10.397 30.338 18.272 9.911 8.99 19.674 18.943 29.225 29.352 9.4 10.278 18.509 20.255 27.191 29.61a939.509 939.509 0 0 0 23.244 22.343c6.533 5.433 12.14 10.21 16.658 14.53 5.122 5.394 8.173 16.416 6.25 22.937-2.068 4.716-4.944 10.086-8.437 16.115-3.315 6.332-6.763 13.287-10.09 20.791-2.425 7.799-4.262 16.06-5.272 24.68.397 8.86 1.858 17.986 4.399 27.288 3.984 9.444 8.894 18.983 14.523 28.564 6.468 9.63 12.923 19.008 18.986 28.117 5.912 9.13 10.798 18.016 14.386 26.69 2.63 8.757 3.582 17.416 2.787 26.111-2.104 8.924-5.988 18.073-11.511 27.578-6.708 9.942-14.816 20.427-24.08 31.512-9.98 11.555-20.74 23.677-32.023 36.234-11.438 12.625-23.035 25.24-34.573 37.437-11.228 11.357-22.16 21.492-32.657 29.883-9.912 6.498-19.306 10.617-28.151 12.087-8.239-.592-16.021-3.527-23.43-8.361-6.978-5.375-13.812-11.101-20.629-16.204-6.72-2.93-13.66-3.451-20.929-.897-7.387 6.235-15.209 15.628-23.432 27.588-8.295 13.69-16.895 27.578-25.697 40.08-8.62 9.906-17.269 15.692-25.875 16.467-8.282-3.943-16.56-12.648-24.865-25.074-8.203-13.872-16.474-27.64-24.907-39.523-8.654-8.35-17.59-12.69-26.746-12.926-9.41 3.926-18.91 10.553-28.368 18.557-9.41 8.608-18.538 15.783-27.235 20.402-8.388 1.803-16.234-.234-23.474-6.029-6.877-8.937-13.192-20.73-18.959-34.461-5.551-14.798-10.664-29.846-15.363-44.353-4.658-13.401-8.993-25.266-13.019-35.395-4.09-8.229-7.917-14.794-11.451-19.976-5.383-5.253-15.14-12.749-19.58-16.872-4.595-4.916-13.263-19.583-17.345-29.355-2.908-7.082-5.615-14.882-8.05-23.275a284.317 284.317 0 0 1-6.73-26.93 250.593 250.593 0 0 1-4.025-29.026 207.653 207.653 0 0 1 .297-29.603c1.105-9.837 2.963-19.67 5.544-29.533 2.917-9.929 6.542-19.949 10.848-30.1 4.564-10.264 9.732-20.696 15.432-31.28 5.846-10.666 12.13-21.44 18.767-32.229 6.628-10.66 13.512-21.12 20.58-31.197 6.9-9.568 13.902-18.427 20.947-26.34 6.771-7.02 13.547-12.827 20.309-17.292 6.453-3.514 12.908-5.765 19.371-6.862 6.226-.714 12.54-.84 18.98-.735 6.316-.587 12.862-1.708 19.679-3.703 6.794-3.51 13.92-8.18 21.377-13.959 7.46-6.971 15.241-14.391 23.299-21.732 7.982-6.985 16.185-12.711 24.56-16.61 8.22-2.117 16.594-1.877 25.106.67 8.399 4.001 17.03 9.413 25.927 15.575" stroke-dasharray="4 6" opacity=".24"/><path d="M433.843 142.541c8.276 6.094 16.798 11.445 25.598 15.623 9.08 2.35 18.483 3.351 28.155 3.24 9.881-1.305 19.918-2.778 29.992-3.873 10.054-.674 20.004.032 29.756 2.416 9.556 3.831 18.844 9.553 27.828 16.99 8.733 8.633 17.15 18.424 25.205 28.92 7.817 10.675 15.254 21.326 22.207 31.615 6.666 9.532 12.754 18.304 18.152 26.242 4.965 6.856 9.094 12.916 12.268 18.306 3.403 6.624 4.08 18.083 1.519 23.88-2.282 3.909-5.247 8.285-8.719 13.176-3.205 5.08-6.514 10.74-9.693 16.986-2.32 6.519-4.104 13.608-5.183 21.212.195 7.876 1.294 16.213 3.317 24.944 3.304 8.953 7.382 18.218 12.05 27.74 5.43 9.638 10.805 19.229 15.827 28.749 4.918 9.536 8.9 18.98 11.72 28.359 1.988 9.403 2.462 18.802 1.329 28.277-2.311 9.59-6.287 19.38-11.824 29.43-6.648 10.258-14.666 20.846-23.85 31.754-9.917 11.015-20.645 22.198-31.955 33.35-11.513 10.808-23.228 21.114-34.913 30.565-11.412 8.319-22.51 15.137-33.14 20.072-10.038 3.19-19.5 4.17-28.35 2.904-8.245-2.747-15.98-7.168-23.307-12.763-7.018-5.42-13.907-10.54-20.854-14.535-7.048-1.577-14.437-.686-22.265 3.09-8.146 7.005-16.783 16.617-25.853 28.146-9.162 12.668-18.483 25.041-27.81 35.746-8.924 8.076-17.553 12.225-25.776 11.734-7.623-4.708-14.899-13.72-21.95-26.094-6.857-13.67-13.744-27.333-20.835-39.43-7.507-9.015-15.482-14.52-23.896-16.3-8.912 2.087-18.097 6.884-27.34 13.298-9.31 7.446-18.313 14.096-26.8 18.881-8.073 2.652-15.403 2.066-21.93-1.901-5.98-6.9-11.202-16.72-15.714-28.764-4.176-13.552-7.839-27.95-11.075-42.438-3.214-14.072-6.163-27.166-8.9-38.968-2.919-10.323-5.707-19.142-8.36-26.569-4.315-8.521-12.64-20.601-16.597-25.809-4.209-5.213-12.074-18.682-15.675-27.324-2.563-6.202-4.865-13.114-6.854-20.659-2.142-7.677-3.903-15.906-5.243-24.611-1.324-8.743-2.117-17.885-2.315-27.377-.02-9.457.66-19.016 2.046-28.637 1.673-9.58 4.095-19.245 7.243-28.97 3.46-9.72 7.641-19.53 12.48-29.428 5.11-9.88 10.806-19.838 17.04-29.81a532.114 532.114 0 0 1 20.316-29.276c7.127-9.29 14.466-18.157 21.961-26.415 7.298-7.65 14.646-14.445 21.976-20.192 7.022-4.922 13.99-8.68 20.856-11.23a72.522 72.522 0 0 1 19.523-2.773c6.254-.011 12.594.222 19.056.382 6.421-.765 13.11-2.21 20.106-4.6 7.06-3.835 14.496-8.698 22.274-14.462 7.827-6.687 15.935-13.565 24.267-20.11 8.196-6.007 16.48-10.639 24.804-13.426 8.029-1.062 16.064.109 24.094 3.45 7.826 4.637 15.796 10.606 24.001 17.266" stroke-dasharray="5 1" opacity=".39"/><path d="M454.921 157.588c7.584 6.548 15.44 12.45 23.627 17.286 8.56 3.147 17.52 5.051 26.796 5.867 9.567-.4 19.292-1.104 29.047-1.618 9.715-.327 19.242.46 28.445 2.662 8.915 3.449 17.399 8.615 25.39 15.414 7.612 8.038 14.722 17.317 21.323 27.49 6.266 10.592 12.023 21.412 17.24 32.126 4.907 10.249 9.244 19.915 12.919 28.856 3.34 8.02 5.935 15.225 7.713 21.662 1.644 8.014.013 20.898-3.093 26.644-3.9 5.545-13.325 18.423-17.826 26.191-2.133 5.597-3.813 11.803-4.898 18.617.058 7.11.85 14.809 2.4 23.068 2.682 8.513 5.974 17.525 9.712 26.98 4.412 9.601 8.723 19.343 12.681 29.153 3.892 9.836 6.928 19.704 8.897 29.587a103.404 103.404 0 0 1-.426 29.652c-2.607 9.903-6.745 19.887-12.337 29.968-6.592 10.03-14.488 20.126-23.482 30.192-9.66 9.831-20.118 19.43-31.12 28.563-11.19 8.48-22.57 16.08-33.9 22.494-11.056 5.194-21.789 8.78-32.022 10.521-9.681.263-18.789-1.335-27.283-4.693-7.982-4.22-15.525-9.48-22.738-15.234-7.063-5.024-14.132-9.253-21.386-12.007-7.547-.291-15.555 1.804-24.1 6.494-8.979 7.42-18.454 16.872-28.302 27.675-9.905 11.404-19.809 22.134-29.457 31.006-9.072 6.286-17.546 8.884-25.298 7.26-6.944-5.387-13.262-14.59-19.129-26.803-5.616-13.378-11.189-26.817-16.99-38.956-6.343-9.514-13.283-15.965-20.802-19.103-8.251.417-16.924 3.464-25.783 8.281-9.084 6.15-17.9 12.05-26.186 16.725-7.884 3.185-14.92 3.75-20.999 1.433-5.424-4.939-9.912-12.664-13.517-22.735-3.148-11.824-5.64-24.94-7.62-38.672-1.895-13.898-3.507-27.397-4.941-40.101-1.643-11.737-3.247-22.268-4.808-31.573-1.928-8.075-3.847-15.095-5.725-21.256-3.37-7.69-10.21-21.135-13.532-28.006-2.45-4.637-4.702-9.775-6.71-15.473-2.243-5.8-4.194-12.193-5.804-19.176-1.743-7.074-3.085-14.685-3.949-22.808-.857-8.152-1.15-16.745-.815-25.735.501-8.954 1.709-18.053 3.614-27.258 2.177-9.137 5.098-18.36 8.736-27.632 3.927-9.19 8.557-18.414 13.83-27.632 5.515-9.105 11.607-18.138 18.19-27.024a370.774 370.774 0 0 1 21.209-25.035c7.35-7.555 14.882-14.529 22.497-20.748 7.411-5.6 14.82-10.288 22.141-13.943 7.03-2.97 13.944-4.921 20.746-5.875 6.514-.565 12.969-.426 19.399.208 6.285.358 12.69.68 19.269.67 6.628-1.051 13.568-2.885 20.856-5.626 7.44-4.068 15.259-8.997 23.413-14.58 8.202-6.236 16.617-12.417 25.162-18.058 8.338-4.96 16.631-8.478 24.804-10.149 7.786-.057 15.416 1.991 22.923 6.038 7.227 5.213 14.52 11.638 21.99 18.724" stroke-dasharray="8 1" opacity=".43"/><path d="M473.878 174.22c6.861 6.934 13.997 13.281 21.488 18.69 7.945 3.874 16.322 6.583 25.07 8.264 9.098.47 18.377.536 27.672.616 9.29.058 18.315.965 26.947 3.009 8.28 3.044 15.994 7.612 23.077 13.673 6.597 7.232 12.527 15.728 17.797 25.209 4.827 10.071 9.036 20.589 12.61 31.213 3.244 10.435 5.885 20.508 7.887 30.021 1.736 8.812 2.806 16.868 3.198 24.175-.144 9.37-4.164 24.25-7.856 30.489-4.094 5.685-13.192 17.895-17.397 25.006-1.966 5.094-3.563 10.784-4.676 17.104-.082 6.608.425 13.877 1.508 21.78 2.072 8.19 4.605 16.983 7.436 26.33 3.425 9.52 6.709 19.28 9.62 29.212 2.873 9.953 4.962 19.99 6.074 30.058a117.751 117.751 0 0 1-2.203 29.878c-2.89 9.76-7.165 19.444-12.739 28.98-6.433 9.265-14.024 18.289-22.605 26.953a251.422 251.422 0 0 1-29.31 22.501c-10.462 5.922-21.054 10.714-31.55 14.169-10.25 2.277-20.152 3-29.585 2.068-8.98-2.03-17.442-5.523-25.386-10.23-7.611-5.027-14.915-10.506-22.048-15.926-7.2-4.293-14.567-7.47-22.265-9.002-8.166.84-16.892 3.861-26.203 9.117-9.8 7.447-20.039 16.411-30.54 26.206-10.472 9.948-20.752 18.942-30.549 25.984-9.047 4.562-17.233 5.72-24.442 3.079-6.246-5.933-11.658-15.247-16.43-27.198-4.466-13.007-8.83-26.119-13.397-38.166-5.21-9.829-11.06-17.02-17.607-21.302-7.452-1.087-15.45.322-23.774 3.574-8.715 4.783-17.246 9.756-25.326 14.067-7.739 3.39-14.615 4.771-20.48 3.81-5.151-3.168-9.242-8.883-12.322-16.865-2.492-9.832-4.184-21.203-5.23-33.583-.852-13.011-1.346-26.147-1.599-38.964-.437-12.36-.826-23.915-1.232-34.517-.803-9.696-1.671-18.413-2.616-26.255a494.487 494.487 0 0 0-4.23-19.425c-2.718-8.19-8.194-24.29-10.722-32.884-1.849-5.835-3.405-12.106-4.631-18.833-1.339-6.77-2.253-14-2.684-21.673-.42-7.68-.262-15.766.534-24.229.948-8.408 2.597-16.936 4.942-25.533 2.59-8.506 5.89-17.055 9.877-25.571 4.26-8.376 9.177-16.686 14.7-24.861a271.27 271.27 0 0 1 18.676-23.168c6.794-7.131 13.92-13.832 21.281-19.976 7.3-5.683 14.72-10.665 22.168-14.847 7.255-3.624 14.46-6.357 21.554-8.164 6.84-1.329 13.567-1.836 20.17-1.59 6.418.34 12.8 1.097 19.206 2.058 6.39.436 12.937.625 19.722.311 6.942-1.393 14.236-3.569 21.908-6.583 7.864-4.145 16.088-8.956 24.606-14.171 8.546-5.634 17.208-10.985 25.891-15.621 8.385-3.859 16.585-6.251 24.527-6.855 7.46.913 14.638 3.773 21.559 8.454 6.616 5.697 13.21 12.511 19.922 19.922" stroke-dasharray="2 7" opacity=".75"/><path d="M490.304 192.094c6.102 7.221 12.466 13.932 19.201 19.809 7.243 4.497 14.929 7.932 23.006 10.393 8.513 1.278 17.214 2.071 25.922 2.729 8.76.462 17.234 1.524 25.259 3.432a66.52 66.52 0 0 1 20.948 11.874c5.712 6.31 10.641 13.825 14.767 22.333 3.61 9.213 6.476 19.005 8.63 29.078 1.76 10.131 2.886 20.103 3.374 29.723.237 9.145-.105 17.692-1.044 25.573-1.082 7.199-2.707 13.73-4.88 19.664-3.515 7.785-12.336 21.162-17.198 27.482-4.237 6.39-11.001 21.184-13.001 30.038-.286 6.395-.114 13.427.485 21.096 1.466 7.976 3.245 16.58 5.205 25.761 2.486 9.375 4.777 19.02 6.704 28.839 1.909 9.844 3.103 19.746 3.437 29.64a125.602 125.602 0 0 1-3.717 28.84c-3.067 9.176-7.336 18.058-12.714 26.564-6.07 8.07-13.14 15.613-21.02 22.495-8.346 6.232-17.246 11.599-26.514 15.935-9.363 3.439-18.792 5.638-28.107 6.484-9.107-.155-17.906-1.698-26.302-4.595-8.092-3.606-15.79-8.228-23.145-13.577-7.24-5.2-14.357-10.386-21.498-15.102-7.435-3.364-15.208-5.436-23.44-5.854-8.852 1.73-18.297 5.362-28.317 10.818-10.521 7.136-21.381 15.308-32.36 23.863-10.822 8.358-21.257 15.579-30.999 20.828-8.844 2.926-16.62 2.772-23.227-.757-5.549-6.378-10.09-15.7-13.854-27.335-3.416-12.552-6.672-25.247-10.098-37.077-4.106-9.982-8.875-17.725-14.403-22.945-6.545-2.397-13.74-2.477-21.378-.716-8.213 3.382-16.363 7.288-24.162 10.993-10.994 4.224-27.29 1.542-32.171-6.392-2.22-7.753-3.502-17.154-4.01-27.794-.171-11.581.139-23.689.787-35.906.57-12.236 1.235-24.064 1.91-35.281a1568 1568 0 0 0 .647-29.735 672.631 672.631 0 0 0-1.377-23.683c-.981-6.86-2-13.416-2.996-19.802-1.339-6.15-2.585-12.32-3.657-18.618a201.46 201.46 0 0 1-3.127-19.446 164.188 164.188 0 0 1-1.326-21.159c.015-7.368.59-15.01 1.795-22.92 1.343-7.85 3.351-15.741 5.998-23.6 2.88-7.742 6.43-15.419 10.597-22.953 4.413-7.36 9.423-14.52 14.95-21.404a199.756 199.756 0 0 1 18.444-18.734c6.62-5.481 13.495-10.41 20.546-14.69 6.99-3.852 14.053-6.976 21.1-9.305 6.893-1.908 13.717-3.02 20.438-3.36 6.555-.092 13.025.423 19.42 1.434 6.323.856 12.682 1.874 19.137 2.864 6.55.3 13.348.212 20.433-.452 7.333-1.714 15.042-4.13 23.124-7.273 8.29-4.057 16.902-8.55 25.725-13.242 8.796-4.85 17.61-9.259 26.306-12.825 8.323-2.724 16.325-4 23.937-3.575 7.06 1.81 13.72 5.4 20.022 10.628 5.965 6.115 11.842 13.222 17.782 20.884" stroke-dasharray="3 1" opacity=".89"/><path d="M503.864 210.78c5.336 7.414 10.892 14.39 16.812 20.63a94.676 94.676 0 0 0 20.68 12.186c7.803 2.01 15.807 3.476 23.84 4.68 8.137.878 15.997 2.103 23.39 3.93 7.081 2.343 13.444 5.701 19.013 10.14 5 5.333 9.125 11.763 12.346 19.124 2.648 8.102 4.457 16.845 5.46 25.994.574 9.393.45 18.824-.328 28.08-1.03 9.034-2.6 17.638-4.707 25.726-2.193 7.6-4.818 14.622-7.85 21.087a135.512 135.512 0 0 1-9.742 16.67c-4.948 7.214-14.497 21.186-18.636 28.578-2.015 5.18-3.738 10.786-5.143 16.877-.586 6.393-.823 13.349-.736 20.878.824 7.84 1.863 16.248 3 25.193 1.594 9.151 2.982 18.517 4.024 27.99 1.053 9.5 1.482 18.97 1.178 28.342-.657 9.18-2.246 18.116-4.77 26.695a104.596 104.596 0 0 1-12.09 23.125 101.662 101.662 0 0 1-18.712 17.468c-7.27 4.283-14.97 7.55-22.926 9.681-8.027 1.289-16.08 1.37-24.028.193-7.813-1.939-15.399-5.015-22.709-9.118-7.18-4.439-14.157-9.477-20.984-14.822-6.956-4.865-13.996-9.372-21.266-13.15-7.767-2.357-16.005-3.401-24.816-2.904-9.483 2.332-19.583 6.25-30.212 11.565-11.046 6.51-22.318 13.64-33.534 20.796-10.936 6.701-21.295 12.148-30.779 15.698-8.487 1.41-15.747.07-21.695-4.209-4.834-6.727-8.562-15.984-11.409-27.224-2.48-12.05-4.735-24.241-7.122-35.745-3.055-9.996-6.769-18.117-11.25-24.071-5.575-3.498-11.88-4.889-18.735-4.521-7.559 2.003-15.204 4.757-22.64 7.682-10.754 3.888-27.173 3.744-32.2-1.655-2.275-5.785-3.515-13.187-3.865-21.91.098-9.814.822-20.433 2.006-31.514 1.24-11.428 2.693-22.838 4.228-33.991a6771.638 6771.638 0 0 0 3.607-31.32c.697-9.491 1.24-18.416 1.655-26.816-.017-8.024-.127-15.673-.28-23.003-.514-7.118-.994-14.09-1.368-20.98-.634-6.8-1.069-13.653-1.242-20.575a194.338 194.338 0 0 1 .217-21.112 158.974 158.974 0 0 1 3.022-21.813 144.815 144.815 0 0 1 6.808-21.577 144.383 144.383 0 0 1 10.872-20.076 147.219 147.219 0 0 1 14.633-17.692 141.111 141.111 0 0 1 17.536-14.247c6.22-3.9 12.639-7.173 19.175-9.78 6.501-2.26 13.049-3.819 19.568-4.657a98.403 98.403 0 0 1 19.119.186c6.24.705 12.476 1.812 18.717 3.175 6.29 1.033 12.708 2.026 19.306 2.814a155.22 155.22 0 0 0 21.375-1.364c7.755-1.926 15.883-4.463 24.352-7.537 8.673-3.772 17.578-7.768 26.605-11.764 8.93-3.952 17.763-7.323 26.337-9.78 8.13-1.592 15.826-1.779 22.999-.392 6.579 2.634 12.672 6.858 18.31 12.555 5.296 6.431 10.436 13.746 15.579 21.567" stroke-dasharray="10 10" opacity=".78"/><path d="M514.363 229.81c4.54 7.518 9.28 14.644 14.342 21.126 5.641 5.408 11.707 9.943 18.16 13.63 6.995 2.64 14.208 4.704 21.476 6.411 7.448 1.27 14.635 2.684 21.387 4.466 6.497 2.087 12.287 4.918 17.273 8.588 4.432 4.383 7.942 9.7 10.518 15.845 1.96 6.846 3.025 14.345 3.225 22.31-.286 8.34-1.31 16.851-3.014 25.36a190.912 190.912 0 0 1-7.548 24.645 189.01 189.01 0 0 1-10.34 21.542c-3.66 6.4-7.521 12.397-11.538 18.048-3.706 5.432-7.456 10.671-11.171 15.804-3.227 5.11-6.321 10.293-9.233 15.642a154.983 154.983 0 0 0-5.967 17.57c-1.009 6.498-1.723 13.46-2.182 20.879.167 7.731.494 15.924.858 24.535.765 8.814 1.357 17.74 1.658 26.68.332 8.944.157 17.753-.609 26.311-1.02 8.377-2.762 16.342-5.25 23.816-2.887 7.076-6.538 13.504-10.873 19.177-4.73 5.12-10.056 9.34-15.858 12.59-6.059 2.565-12.416 4.062-18.95 4.43-6.617-.324-13.263-1.753-19.824-4.25-6.563-2.996-13.02-6.867-19.344-11.428-6.404-4.58-12.809-9.435-19.276-14.277-6.807-4.15-13.92-7.75-21.426-10.494-8.137-1.402-16.852-1.582-26.197-.421-10.026 2.657-20.624 6.527-31.652 11.405-11.35 5.647-22.766 11.564-33.964 17.224-10.803 5.032-20.848 8.78-29.895 10.738-7.961.043-14.61-2.33-19.864-7.235-4.122-6.964-7.08-16.072-9.1-26.88-1.643-11.49-3-23.131-4.44-34.217-2.102-9.874-4.81-18.201-8.266-24.694-4.575-4.414-9.918-6.936-15.886-7.831-6.803.678-13.825 2.248-20.79 4.259-10.394 3.174-27 4.449-32.406 1.052-2.562-4.081-4.07-9.616-4.608-16.446-.022-7.938.719-16.828 2.048-26.39 1.52-10.151 3.385-20.583 5.449-31.066 1.95-10.59 3.92-20.965 5.836-31.006a2078.514 2078.514 0 0 0 4.425-28.381c.966-8.803 1.809-17.23 2.551-25.301.416-7.907.797-15.56 1.212-23.001.18-7.364.47-14.612.943-21.761.356-7.121.993-14.194 1.95-21.23.984-6.999 2.383-13.968 4.245-20.847a135.631 135.631 0 0 1 7.419-19.616 117.868 117.868 0 0 1 10.78-17.252c4.24-5.18 8.883-9.904 13.868-14.126a98.157 98.157 0 0 1 16.171-10.218c5.71-2.55 11.556-4.468 17.482-5.731a87.277 87.277 0 0 1 17.884-1.223c5.959.321 11.925 1.135 17.889 2.356 6.02 1.093 12.106 2.403 18.289 3.787 6.37.93 12.937 1.703 19.768 2.176 7.13-.252 14.61-.963 22.445-2.187 8.145-2.011 16.648-4.477 25.426-7.306 8.94-3.298 18.015-6.637 27.102-9.787 8.908-2.964 17.589-5.254 25.906-6.594 7.8-.482 15.054.344 21.702 2.614 6.024 3.366 11.479 8.129 16.434 14.179 4.601 6.665 9 14.108 13.346 21.987" stroke-dasharray="8 6" opacity=".19"/><path d="M521.701 248.673c3.745 7.529 7.656 14.7 11.849 21.317 4.785 5.678 9.968 10.579 15.518 14.693 6.135 3.172 12.497 5.741 18.929 7.882 6.692 1.654 13.173 3.269 19.269 5.043 8.552 3.091 21.214 12.948 24.918 20.037 1.55 5.572 2.178 11.744 1.907 18.4-.776 7.082-2.335 14.427-4.603 21.902-2.578 7.61-5.724 15.146-9.346 22.499a232.056 232.056 0 0 1-12.112 20.938 320.605 320.605 0 0 1-13.029 18.63c-4.141 5.818-8.251 11.453-12.295 16.965-3.576 5.56-6.983 11.132-10.18 16.8a192.3 192.3 0 0 0-7.103 18.262c-1.503 6.622-2.744 13.576-3.765 20.858-.487 7.597-.847 15.498-1.151 23.684.023 8.381-.074 16.745-.36 24.978-.235 8.264-.851 16.252-1.887 23.857-1.212 7.433-2.95 14.333-5.22 20.613-4.111 8.462-15.286 20.515-22.064 23.765-7.355 1.357-23.066-1.79-31.122-6.022-5.498-3.373-11.031-7.347-16.615-11.743-5.857-4.191-11.9-8.405-18.208-12.407-6.822-3.227-14.097-5.83-21.907-7.588-8.514-.57-17.658-.108-27.417 1.457-10.4 2.674-21.277 6.23-32.473 10.423-11.378 4.611-22.665 9.21-33.583 13.354-10.4 3.42-19.939 5.573-28.352 6.097-7.321-1.165-13.269-4.408-17.787-9.798-3.424-7.101-5.665-15.997-6.935-26.315-.91-10.906-1.48-21.94-2.082-32.545-1.213-9.643-2.99-18.02-5.459-24.872-5.762-6.864-22.054-10.947-31.57-9.726-9.859 2.153-26.496 3.78-32.367 1.781-3.97-4.724-6.172-21.536-4.87-32.984 1.411-8.609 3.289-17.692 5.509-27.056 2.231-9.7 4.618-19.42 7.048-29.04 2.238-9.672 4.426-19.116 6.512-28.268a2366.416 2366.416 0 0 0 5.081-26.286c1.31-8.354 2.554-16.418 3.766-24.207 1.01-7.75 2.068-15.258 3.222-22.563 1.052-7.274 2.292-14.359 3.764-21.25 1.496-6.852 3.29-13.503 5.452-19.933 2.276-6.346 4.903-12.293 7.89-17.8 4.894-7.849 16.638-20.819 23.349-25.815 7.151-4.102 22.475-9.021 30.45-9.845 8.156-.059 24.831 2.22 33.42 4.15 5.908 1.135 11.98 2.35 18.236 3.515 6.53.676 13.343 1.129 20.457 1.275 7.473-.514 15.3-1.42 23.47-2.736 8.476-1.915 17.226-4.13 26.193-6.539 9.047-2.666 18.122-5.208 27.088-7.428 8.707-1.923 17.085-3.12 24.971-3.372 7.335.546 14.044 2.306 20.056 5.352 5.41 3.98 10.199 9.186 14.428 15.483 3.902 6.811 7.546 14.276 11.093 22.117" stroke-dasharray="3 0" opacity=".92"/><path d="M525.91 266.904c2.969 7.438 6.068 14.563 9.405 21.18 3.912 5.835 8.19 10.97 12.818 15.396 5.234 3.567 10.695 6.557 16.261 9.066 8.76 2.91 24.786 8.45 31.246 11.938 5.078 4.47 10.012 16.846 9.813 24.622-.927 5.762-2.665 11.834-5.109 18.106-2.8 6.519-6.18 13.083-10.052 19.608-4.001 6.616-8.36 13.093-12.97 19.372a447.024 447.024 0 0 1-13.924 18.273c-4.463 5.928-8.884 11.713-13.192 17.396-3.916 5.809-7.649 11.604-11.16 17.438a233.607 233.607 0 0 0-8.307 18.62c-2.021 6.659-3.782 13.52-5.327 20.579-1.121 7.358-2.092 14.901-2.974 22.56-.614 7.867-1.253 15.567-1.999 23.04-.671 7.49-1.58 14.595-2.745 21.237-2.09 9.401-8.294 24.355-12.398 29.542-4.745 3.646-15.72 5.6-21.753 3.977-6.449-2.946-20.324-12.217-27.915-17.744-5.563-3.425-11.48-6.738-17.815-9.738-6.959-2.254-14.476-3.901-22.596-4.813-8.824.06-18.269.93-28.278 2.602-10.547 2.468-21.448 5.469-32.527 8.812-11.13 3.479-22.023 6.722-32.408 9.409-9.765 1.913-18.595 2.64-26.252 1.907-6.541-2.196-11.733-6.142-15.508-11.876-2.73-7.138-4.296-15.755-4.911-25.546-.246-10.276-.138-20.677-.014-30.73-.429-9.32-1.339-17.613-2.898-24.672-4.283-7.76-17.756-14.81-26.15-15.166-9.106.933-25.445 1.993-31.71.77-4.69-3.192-8.624-15.661-8.136-24.69.962-6.99 2.492-14.569 4.49-22.56 2.134-8.45 4.55-17.128 7.125-25.873 2.527-8.981 5.091-17.896 7.65-26.667 2.375-8.844 4.696-17.479 6.936-25.851 2.029-8.39 3.999-16.514 5.92-24.352 1.764-7.828 3.518-15.39 5.31-22.664 1.715-7.256 3.537-14.234 5.498-20.912 1.973-6.644 4.156-12.983 6.587-18.967 3.92-8.613 13.137-23.074 18.44-28.843 5.76-4.974 18.43-11.777 25.232-13.611 7.109-1.088 21.99-.638 29.769.619 5.396.868 10.926 1.958 16.619 3.182 5.944.949 12.115 1.878 18.549 2.703 6.771.366 13.853.513 21.278.379 7.774-.66 15.874-1.626 24.283-2.86 8.654-1.652 17.514-3.449 26.476-5.282 8.966-1.906 17.845-3.577 26.497-4.82 8.328-.873 16.21-1.019 23.532-.272 6.736 1.494 12.785 4.072 18.116 7.761 4.724 4.496 8.795 10.014 12.299 16.455 3.199 6.838 6.105 14.243 8.871 21.954" stroke-dasharray="2 2" opacity=".96"/><path d="M527.174 284.068c2.215 7.257 4.52 14.222 7.032 20.745 3.06 5.861 6.448 11.108 10.153 15.719 9.213 7.026 19.002 12.14 28.345 16.192 9.446 3.496 16.549 7.834 20.626 13.457 2.233 7.113 1.06 15.806-3.164 25.566-5.644 10.967-13.395 22.282-22.53 33.416-9.07 11.676-18.465 23.023-27.647 34.012-7.935 11.762-15.074 23.637-21.22 35.766a292.608 292.608 0 0 0-6.7 19.877c-1.657 7.007-3.146 14.079-4.512 21.162-1.132 7.27-2.214 14.281-3.294 20.965-1.005 6.721-2.105 12.981-3.33 18.727-2.71 11.022-6.237 19.3-10.505 24.453-5.044 3.783-10.825 4.234-17.19 1.653-7.411-3.327-15.728-8.567-25.235-14.57-11.553-4.553-25.228-7.958-41.272-9.256-18.589 1.552-39.114 5.133-60.392 9.768-20.917 4.364-39.581 6.299-54.127 3.872-5.705-3.017-10.081-7.503-13.12-13.437-2.052-7.078-3-15.344-3.02-24.579.324-9.638 1.002-19.369 1.759-28.836.269-8.91.128-17.014-.586-24.122-4.432-10.731-11.59-16.994-20.595-19.76-11.287-.283-21.788-.304-30.18-1.629-7.179-3.168-10.99-9.366-11.607-18.44.95-11.653 4.17-25.405 8.84-40.288 4.886-16.141 10.226-32.397 15.57-48.136 4.887-16.064 9.65-31.273 14.338-45.313 2.259-7.02 4.563-13.74 6.951-20.11 2.393-6.33 4.927-12.3 7.6-17.864 4.213-7.958 13.507-20.9 18.599-25.864 7.368-5.85 15.267-9.422 23.584-10.879 8.994-1.156 18.474-.6 28.464 1.179 10.967 1.232 22.85 2.822 35.818 4.155 14.35-.182 30.01-1.116 46.722-2.794 17.397-2.62 34.88-4.864 51.452-5.743 15.078.752 27.787 4.674 37.543 12.373 3.995 4.857 7.349 10.575 10.118 17.041 2.497 6.787 4.69 14.024 6.704 21.516" stroke-dasharray="5 10" opacity=".38"/><path d="M525.754 299.8c3.358 13.614 7.33 25.76 12.385 35.745 7.42 7.472 15.487 13.072 23.364 17.365 8.364 3.468 14.856 7.145 18.781 11.512 2.52 5.357 1.92 11.911-1.543 19.412-4.836 8.703-11.796 17.985-20.224 27.437-8.59 10.33-17.668 20.673-26.654 30.922-8.086 11.217-15.527 22.59-22.062 34.095-5.307 12.681-9.75 25.538-13.437 38.21-2.96 13.402-5.586 25.336-8.14 35.38-4.284 13.153-15.984 24.327-23.97 22.574-6.826-2.295-14.895-5.95-24.53-9.993-11.829-2.734-25.918-4.52-42.277-4.777-18.483 1.637-38.412 4.35-58.537 7.247-19.27 2.07-35.999 1.646-48.585-2.643-8.616-8.281-12.392-21.2-11.96-37.906 1.697-18.013 3.861-35.331 4.714-50.126-2.636-11.338-7.83-18.953-15.023-23.43-9.757-2.06-19.372-3.296-27.627-4.976-7.69-2.64-12.581-7.394-14.58-14.41-.57-9.117 1.273-20.223 4.892-32.655 4.15-13.801 9.18-28.113 14.606-42.302 5.26-14.703 10.601-28.82 15.94-41.934 5.231-13.147 10.652-25.059 16.363-35.397 6.04-10.03 12.357-17.827 18.977-23.478 7.204-5.204 14.818-8.327 22.838-9.607 8.786-1.104 18.18-.814 28.276.388 11.193.683 23.457 1.588 36.871 2.292 14.684-.391 30.495-1.19 47.06-2.257 16.872-1.423 33.427-2.08 48.689-1.19 13.594 2.533 24.707 7.898 32.83 16.439 6.065 10.625 9.99 23.648 12.563 38.048" stroke-dasharray="8 7" opacity=".51"/><path d="M522.028 313.854c2.009 12.98 4.493 24.656 7.92 34.47 5.68 7.728 12.062 13.67 18.481 18.205 10.158 5.257 19.808 16.988 17.455 25.055-3.63 6.686-9.347 14.032-16.59 21.753-7.558 8.735-15.8 17.755-24.157 26.917-7.783 10.216-15.128 20.672-21.756 31.242a373.38 373.38 0 0 0-14.862 34.808c-3.616 12.056-6.698 22.665-9.494 31.485-4.437 11.688-15.573 22.402-23.405 22.004-6.891-.965-15.245-2.918-25.354-5.134-12.205-1.174-26.571-1.771-42.924-1.49-17.907 1.362-36.737 3.008-55.227 4.178-17.239.05-31.795-2.316-42.328-8.028-6.876-8.898-9.325-21.515-7.96-37.11 2.551-16.655 5.65-32.795 7.704-46.995-.96-11.598-4.268-20.208-9.584-26.107-7.99-3.73-16.376-6.323-24.056-8.766-7.738-2.752-13.322-6.81-16.47-12.478-2.005-7.213-1.662-16.118.616-26.308 2.963-11.452 7.154-23.63 12.098-35.968 5.03-12.934 10.423-25.549 16.004-37.408 5.563-11.925 11.367-22.793 17.411-32.244 6.315-9.144 12.814-16.286 19.52-21.49 7.242-4.808 14.892-7.814 22.992-9.27 8.88-1.33 18.49-1.532 28.929-.996 11.517.14 24.14.519 37.834.841 14.727-.323 30.313-.7 46.274-.926 15.904-.124 31.11.758 44.73 3.244 11.89 4.032 21.251 10.502 27.712 19.58 4.634 10.71 7.22 23.3 8.487 36.936" stroke-dasharray="2 8" opacity=".61"/><path d="M516.408 326.09c.78 12.193 1.921 23.263 3.868 32.721 4.037 7.78 8.787 13.941 13.778 18.708 8.606 5.423 18.286 15.302 17.403 21.398-2.262 5.087-6.494 10.776-12.242 16.936-6.157 7.14-13.15 14.732-20.498 22.635-7.03 8.943-13.895 18.215-20.295 27.634a420.245 420.245 0 0 0-15.467 31.038c-4.096 10.714-7.652 20.145-10.846 28.025-5.003 10.666-17.146 21.88-25.706 23.075-7.39.337-16.332-.116-27.034-.844a1444.59 1444.59 0 0 0-42.758.425c-16.874.804-34.13 1.308-50.603.91-14.956-1.626-27.184-5.494-35.638-12.18-5.18-9.171-6.409-21.259-4.226-35.685 3.248-15.255 7.095-30.14 10.168-43.585.513-11.558-1.007-20.788-4.448-27.79-6.073-5.16-12.907-9.093-19.594-12.522-7.252-3.31-13.019-7.282-16.87-12.255-3.112-5.981-4.097-13.265-3.178-21.631 1.596-9.39 4.648-19.543 8.747-30.007a333.49 333.49 0 0 1 14.776-32.4c5.516-10.505 11.41-20.19 17.669-28.707 6.479-8.232 13.181-14.757 20.134-19.66 7.416-4.527 15.29-7.553 23.716-9.3 9.15-1.61 19.107-2.264 29.93-2.284 11.756-.23 24.545-.133 38.219.131 14.373-.007 29.285.279 44.171 1.024 14.5 1.144 28.006 3.426 39.742 7.243 10.007 5.18 17.555 12.41 22.39 21.707 3.246 10.528 4.596 22.51 4.692 35.24" stroke-dasharray="0 3" opacity=".12"/><path d="M509.324 336.48c-.282 11.296-.322 21.616.313 30.58 2.53 7.677 5.758 13.91 9.35 18.86 11.557 10.295 14.166 25.913 8.599 33.017-4.571 5.763-10.11 12.02-16.21 18.662-5.949 7.595-12.03 15.59-17.943 23.785a621.432 621.432 0 0 0-15.398 27.15c-4.432 9.421-8.454 17.793-12.229 24.924-3.88 7.08-7.893 12.655-12.252 16.743-5.006 3.834-10.825 6.31-17.698 7.661-8.074 1.366-17.631 2.009-28.76 2.252-12.494.569-26.46.924-41.458 1.061-15.404.119-30.72-.48-44.893-2.218-12.524-2.922-22.404-7.83-28.838-15.05-3.577-9.118-3.71-20.499-.851-33.7 3.796-13.83 8.23-27.424 12.109-39.968 1.799-11.23 1.885-20.719.235-28.461-4.089-6.264-9.153-11.392-14.49-15.825-6.263-4.097-11.628-8.391-15.634-13.188-3.685-5.38-5.605-11.626-5.776-18.655.366-7.792 2.237-16.229 5.362-25.016 3.393-9.251 7.725-18.535 12.764-27.507 5.149-9.044 10.905-17.495 17.228-25.05 6.5-7.289 13.362-13.21 20.602-17.8 7.615-4.238 15.788-7.25 24.588-9.203 9.39-1.767 19.615-2.707 30.667-3.03 11.744-.327 24.338-.22 37.555.268 13.568.531 27.326 1.584 40.715 3.312 12.745 2.297 24.298 5.728 33.993 10.555 8.062 5.965 13.808 13.578 17.082 22.8 1.95 10.122 2.187 21.314 1.268 33.042" stroke-dasharray="5 1" opacity=".95"/><path d="M501.199 345.113c-1.196 10.304-2.222 19.789-2.708 28.155 2.092 10.494 10.458 24.73 14.775 29.541 3.783 4.33 4.21 13.766.687 19.573-3.058 4.697-7.142 9.856-11.94 15.395-4.745 6.369-9.877 13.13-15.145 20.138-4.976 7.75-9.95 15.627-14.837 23.373-4.645 8.196-9.137 15.583-13.57 22.017-4.533 6.457-9.343 11.773-14.617 15.939-5.82 4.013-12.512 6.946-20.211 8.966-8.661 1.965-18.615 3.224-29.824 3.927-12.11.751-25.236.985-38.86.661-13.58-.612-26.673-2.176-38.42-4.935-10.075-3.804-17.674-9.324-22.218-16.716-2.121-8.756-1.29-19.28 2.09-31.205 4.21-12.392 9.048-24.645 13.545-36.178 2.858-10.655 4.343-20.078 4.359-28.179-2.161-7.012-5.356-13.028-9.072-18.36-4.854-4.887-9.31-9.7-12.896-14.658-3.64-5.215-5.932-10.913-6.753-17.097-.496-6.665.44-13.804 2.674-21.226 2.478-7.744 6.049-15.564 10.556-23.189 4.614-7.66 10.063-14.898 16.292-21.484 6.366-6.342 13.288-11.597 20.711-15.78 7.702-3.869 16.069-6.723 25.07-8.674 9.453-1.721 19.668-2.68 30.586-3 11.342-.182 23.298.198 35.59 1.111 12.308 1.169 24.493 2.992 36.04 5.6 10.748 3.206 20.184 7.485 27.789 12.956 6.132 6.381 10.17 14.058 12.02 22.921.78 9.512.057 19.78-1.713 30.408" stroke-dasharray="6 9" opacity=".7"/><path d="M492.428 352.185c-1.935 9.25-3.77 17.822-5.18 25.495.29 10 5.006 24.453 8.074 29.572 4.084 8.943-.343 24.608-5.404 31.467-3.614 5.332-7.796 11.032-12.394 16.974a541.164 541.164 0 0 1-14.034 19.887c-4.76 7.026-9.637 13.454-14.687 19.19-5.122 5.77-10.687 10.676-16.801 14.703-6.52 3.92-13.888 6.959-22.161 9.187-8.91 2.12-18.848 3.522-29.661 4.243-11.276.586-23.105.47-34.994-.4-11.5-1.29-22.246-3.578-31.535-7.043-7.729-4.305-13.213-10.038-16.058-17.255-.866-8.177.748-17.707 4.523-28.327 4.471-10.95 9.554-21.847 14.46-32.274 3.689-9.87 6.34-18.918 7.794-27.032-.36-7.344-1.716-13.917-3.707-19.868-3.18-5.542-6.307-10.854-8.988-16.09-3.002-5.284-5.07-10.767-6.014-16.472-.828-5.949-.42-12.185 1.209-18.556 1.789-6.569 4.714-13.168 8.693-19.624 4.067-6.454 9.117-12.588 15.108-18.205 6.099-5.414 12.89-9.95 20.295-13.615 7.576-3.37 15.86-5.88 24.748-7.602 9.156-1.463 18.977-2.2 29.298-2.278 10.504.167 21.352.968 32.246 2.4 10.675 1.768 20.978 4.266 30.45 7.556 8.624 3.836 15.913 8.615 21.49 14.382 4.312 6.433 6.79 13.857 7.385 22.14-.219 8.714-1.733 17.964-4.155 27.445" stroke-dasharray="3 9" opacity=".46"/><path d="M483.295 357.959c-2.49 8.142-4.936 15.763-7.067 22.681-1.224 9.323.078 23.661 1.722 29.085 3.144 9.293.792 24.005-2.954 29.975-2.721 4.55-6.132 9.371-10.137 14.401-3.868 5.493-8.265 11.116-13.164 16.742-4.774 5.921-9.903 11.4-15.382 16.34-5.542 4.998-11.603 9.328-18.244 12.94-6.908 3.533-14.56 6.316-22.917 8.364-8.717 1.9-18.138 3.064-28.045 3.506-10.026.22-20.2-.35-30.082-1.742-9.31-1.798-17.705-4.576-24.652-8.402-5.56-4.453-9.17-10.075-10.557-16.844.172-7.4 2.394-15.845 6.409-25.14 4.583-9.518 9.747-19.06 14.886-28.31 4.255-8.928 7.798-17.343 10.426-25.131 1.2-7.295 1.544-14.032 1.246-20.27-2.194-8.73-6.993-25.095-8.215-33.206-.441-8.308 3.855-25.217 8.662-33.502 3.624-5.43 8.25-10.573 13.893-15.287 5.709-4.515 12.164-8.3 19.246-11.333 7.18-2.781 15.02-4.81 23.385-6.121 8.48-1.045 17.446-1.399 26.704-1.083 9.234.582 18.58 1.84 27.733 3.754 8.78 2.252 17.012 5.221 24.335 8.912 6.5 4.14 11.746 9.08 15.456 14.792 2.68 6.179 3.81 13.091 3.372 20.605-1.038 7.79-3.153 15.958-6.059 24.274" stroke-dasharray="8 4" opacity=".5"/><path d="M474.024 362.709c-5.094 13.89-9.563 25.952-12.51 35.666.739 8.671 1.684 15.75 1.542 21.722 1.004 6.359-.662 12.888-5.25 19.75-4.314 8.286-11.33 17.276-20.96 26.283-9.329 9.971-20.78 18.204-34.05 24.196-13.835 5.718-29.992 8.723-47.18 8.917-16.639-.699-31.877-4.64-42.625-11.99-6.188-9.05-5.577-21.765 1.815-37.46 9.184-16.261 19.098-32.331 27.043-46.952 3.72-13.462 5.126-25.67 5.667-36.657-1.6-10.698-1.443-21.136 1.641-31.05 3.033-10.012 9.623-19.362 19.953-27.194 10.526-7.201 23.778-11.7 38.615-13.562 14.845-.89 30.615.855 45.402 5.062 13.097 5.372 23.139 13.412 28.183 23.803 1.942 11.597-.82 25.138-7.286 39.466" stroke-dasharray="3 0" opacity=".75"/><path d="M464.743 366.738c-5.621 11.78-10.973 22.306-15.215 31.173-1.326 8.294-2.276 15.39-3.692 21.507-.116 6.407-2.047 12.697-6.298 18.946-3.895 7.245-10.333 14.77-19.452 22.031-8.945 8.001-19.996 14.433-32.52 18.921-12.678 4.277-26.765 6.143-40.838 5.448-13.023-1.425-24.095-5.693-31.001-12.78-3.334-8.142-1.215-19.089 6.268-32.304 8.862-13.55 18.703-27.217 27.413-40.063 5.79-12.241 9.871-23.711 12.951-34.154 1.149-10.184 3.165-19.863 7.042-28.665 3.62-8.762 9.939-16.618 19.245-22.865 9.433-5.754 20.91-9.02 33.33-9.897 12.187-.114 24.516 2.204 35.39 6.723 9.3 5.383 15.678 12.974 17.864 22.353-.011 10.08-3.768 21.577-10.487 33.626" stroke-dasharray="4 7" opacity=".92"/><path d="M455.486 370.307c-5.78 9.719-11.59 18.633-16.697 26.44-2.958 7.57-5.583 14.316-8.348 20.265-1.55 6.187-4.277 12.12-8.65 17.71-4.005 6.292-10.104 12.477-18.5 18.122-8.298 6.186-18.264 10.89-29.16 13.86-10.8 2.864-22.152 3.639-32.783 2.24-9.482-1.878-16.838-6.076-20.57-12.482-1.168-6.962 1.921-16.033 9.147-26.837 8.262-10.972 17.605-22.21 26.472-33.017 7.012-10.557 12.957-20.698 18.022-30.018 3.549-9.175 7.384-17.77 12.193-25.356 4.47-7.49 10.688-13.948 18.889-18.791 8.263-4.459 17.689-6.684 27.374-6.804 9.36.439 18.263 2.988 25.496 7.368 5.978 4.948 9.36 11.633 9.403 19.65-1.379 8.378-5.658 17.793-12.288 27.65" stroke-dasharray="8 9" opacity=".11"/><path d="M446.215 373.627c-5.598 7.724-11.427 14.998-16.908 21.568-4.06 6.531-7.934 12.544-11.805 17.934-2.927 5.616-6.556 10.904-11.203 15.711-4.344 5.262-10.157 10.165-17.58 14.35-7.382 4.542-15.751 7.707-24.445 9.386-8.495 1.66-16.874 1.604-24.143-.17-8.436-3.906-9.812-20.48-1.385-32.567 7.371-8.547 15.839-17.405 24.264-26.067 7.378-8.579 14.253-16.951 20.479-24.732 5.198-7.7 10.395-14.866 15.88-21.064 5.19-6.112 11.257-11.208 18.291-14.815 7.049-3.338 14.392-4.744 21.38-4.41 9.63 1.9 20.682 13.875 19.906 23.072-2.163 6.622-6.536 14.015-12.73 21.804" stroke-dasharray="5 2" opacity=".32"/><path d="M436.834 376.806c-9.434 11.686-19.843 22.592-29.372 31.4-7.115 9.52-16.551 18.027-29.006 23.521-12.427 6.404-25.674 7.743-35.024 4.236-6.726-3.83-5.689-12.692 5.096-25.335 12.574-12.688 27.77-26.388 41.149-38.332 11.12-11.84 22.537-21.844 34.127-27.062 16.461-3.692 26.193 14.731 13.03 31.572" stroke-dasharray="9 10" opacity=".63"/><path d="M427.22 379.87c-8.09 8.24-17.63 16.244-26.717 22.83-7.85 7.058-16.852 13.148-26.49 16.601-13.895 4.068-24.845-5.042-14.735-16.962 9.917-8.717 22.425-18.182 34.09-26.418 10.701-8.196 21.233-15.018 30.235-18.364 11.911-2.276 14.769 10.606 3.618 22.314" stroke-dasharray="8 1" opacity=".23"/><path d="M417.26 382.734c-11.331 10.293-28.228 20.874-41.32 24.302-13.189 4.304-17.105-.92-5.025-11.654 13.799-10.536 34.386-22.55 46.838-26.349 12.368-3.024 12.456 3.596-.494 13.701" stroke-dasharray="5 10" opacity=".53"/></g></svg>