<svg xmlns="http://www.w3.org/2000/svg" viewBox="0 0 800 800"><defs><linearGradient x1="50%" y1="0%" x2="50%" y2="100%" id="a"><stop stop-color="#04ee51" offset="0%"/><stop stop-color="hsl(180, 69%, 60%)" offset="100%"/></linearGradient></defs><g fill="none" stroke-width="1.5" stroke="url(#a)" stroke-linecap="round"><path d="M1033.47 529c59.97 32.86-113.45 75.45-333.54 125.14-57.8 47.8 85.87 98.63 277.75 146.51 75.7 38.63-31.95 64.92-230.99 71.3-166.81-11.4-207.19-47.18-134.57-105.22 187.06-93.86 196.61-164.83 44.89-68.44-118.33 112.75-216.74 237.4-289.82 342.15-67.34 56.23-115.67 45.42-148.53-33.79-32.86-120.05-48.7-244.09-43.33-336.17 11.1-37.5 49.74-16.92 111.12 47.43 49.98 92.85 85.45 181.65 69.25 244.84-86.41 31.65-239.63 21.08-416.73-24.56-115.69-73.11-114.27-161.22 18.33-251.36 164.81-91.94 242.99-173.4 143.19-241.7-215.95-62.28-378.32-113.33-333.21-155.81C-25.31 249.3 141.44 213.5 81.47 180.64c-230.74-32.86-377.76-61.23-295.87-83.18 304.93-23.86 92.62 2.12-.22 57.08 132.94 39.5 325.73 80.44 472.37 110.49 50.74 2.57 4.96-25.81-84.06-91.67C72.07 75.96 10.55-42.3-3.17-159.24c20.91-88.44 69.8-127.74 125.18-102.93 63.48 79.38 115.4 196.76 148.26 316.8 32.86 79.23 45.11 96.72 43.6 53.18 6.59-92.07 17.48-198.01 53.51-286.67 70.68-55.53 186.31-59.63 338.58-16.2C845.62-114.03 938.58-11.65 930.91 93.56 827.34 194.67 673.5 277.62 574.77 339.67c48.88 44.27 234.72 72.1 437.89 90.43 57.78 9.07-80.79 18.02-294.41 32.19-69.21 12.28 84.46 33.86 315.22 66.71q0 0 0 0" opacity=".28"/><path d="M999.47 610.79c64.4 30.51-79.59 64.49-293.56 99.54-105.75 32.77-27.18 62.18 150.52 83.29 141.91 12.89 137.9 11.02 2.76-9.25-189.22-30.51-328.27-77.43-369.61-134.85 54.11-50 155.64-90.37 249.55-107.06 68.71 19.63 83.16 76.66 55.16 168.51-58.54 111.51-129.59 224.25-194.93 312.12-69.58 42.04-121.98 25.1-152.49-50.44-30.51-110.88-37.7-227.64-25.67-320.58 7.8-49.33 23.35-48.66 29-5.86-24.88 75.7-89.58 158.92-205.31 230.27-140.94 53.52-286.28 74.08-380.38 62.6 1.35-38.15 104.22-97.71 261.66-168.06 103.36-79.57 80.02-157.21-84.27-227.33-200.06-69.08-295.99-128.2-202.02-176.98 202.19-47.52 339.99-86.59 275.59-117.11-213.73-30.51-369.32-51.03-331.67-61.06 287.68-6.96 230.08 41.98 39.16 88.22 17.38 23.32 147.78 39.09 315.43 37.24 145.87-28.5 217.32-85.23 218.42-170.52C302.05 40.36 231.06-70.22 173.5-168.28c-50.08-65.18-69.8-83.23-64.96-45.69 12.6 81.16 37.24 191.73 67.75 302.6 30.51 75.56 65.46 98.69 110.4 68.44 52.71-76.08 127.94-171.44 230.9-260.59 110.44-69.49 231.67-99.16 333.47-87.03 45.93 48.45 18.28 125-87.59 214.98-127.67 97.41-221.89 188.14-207.5 265.68 137.25 67.3 335.52 119.43 470.91 159.42-24.44 31.78-195.21 57.87-377.06 82.65-25.87 22.49 135.91 48.09 349.65 78.61q0 0 0 0" opacity=".59"/><path d="M965.47 622.18c67.47 28.17-47.66 53.11-247 73.34-139.71 18.37-127.55 28.63 7.32 27.98 166.27-5.85 249.35-25.35 209.9-58.5-138.35-35.49-305.15-78.63-432.97-122-59.68-28.76-45.27-41.45 12.14-28.57 83.93 43.87 154.12 117.31 195.59 214.2 23.68 105.14 19.46 203.48-1.48 274.44-28.35 29.06-59.76 7.12-87.92-64.42-28.17-101.75-51.77-210.59-76.53-302.48-32.19-58.19-79.2-74.91-151.7-53.29-90.28 55.3-206.85 125.85-334.19 195.64C-42.19 842.74-97.03 884.89-74.27 901.6c90.89-4.7 224.3-32.1 333.32-75.08 10.12-55.6-98.21-116.47-285.12-176.21-155.52-62.63-183.71-119.16-54.87-166.96 188.46-47.8 297.88-86.4 230.41-114.58-196.37-28.16-355.76-44.56-357.95-49.88 151.02-5.33 345.07-.04 455.65 13.78-29.12 10.93-161.85 25.41-304.9 37.6-83.23-.42-59.98-13.45 45.79-45.66 151.04-53.62 289.7-129.16 384.62-222.7 47.9-99.12 50.93-194.93 31.66-270.88-38.4-42.27-70.09-41.59-84.4 5.72-14.37 81.01-7.94 184.12 20.23 285.88 28.16 71.55 76.74 99.22 144.23 81.04 67.42-60.08 150.36-142.4 237.57-226.88C790.05-99.46 833.4-147.65 828.92-162.2c-51.51 16.45-149.74 62.53-263.87 128.21-68.86 80.27-58.7 163.85 53.85 242.76 172.39 76.56 330.38 142.44 380.14 197.11-89.92 49.46-267.95 90.43-408.11 125.19 13.06 32.89 178.16 62.94 374.54 91.11q0 0 0 0" opacity=".12"/><path d="M931.47 559.38c69.16 25.82-18.42 43.58-196.2 52.9-158.38 8.3-205.26 6.54-130.54-5.79 148.97-13.96 280.17-37.94 330.84-69.41-44.92-27.63-164.38-55.29-306.65-75.98-131.27-3.51-213.97 11.14-245.48 49.13 13.04 61.27 51.11 143.36 92.29 238.52 48.08 94.55 79.61 176.9 90.88 231.48 8.76 17.45-.38-8.39-26.2-75.58-25.82-92.66-67.1-193.05-124.55-282.09-59.96-64.07-138.47-95.1-231.29-93.02-85.93 33.68-166.51 86.65-219.34 146.73-8.28 64.04 37.34 116.5 134.77 151.76 108.44 21.43 197.28 22.95 215.31 8.01-77.55-27.07-231.9-63.96-399.79-105.17-93.65-46.13-61.46-91.06 86.95-131.25 167.82-41.1 250.16-75.43 181-101.25-258.08-33.87-181.44-59.03 55.8-58.67 50.96-3.53-9.3-9.16-131.35-21.87-129.69-24.85-200.99-63.44-195.1-118.71 74.88-69.09 190.65-152.16 311.11-243.08 113.93-86.96 196.64-163.09 248.93-215.7 30.74-21.01 45.24-4.69 56.04 49.4 5.17 79.07 18.23 174.21 44.05 266.88 25.82 67.21 63.18 98.29 106.7 90.82 37.89-44.61 70.36-112.27 84.37-187.89-7.54-76.23-47.74-135.17-121.87-169.56-80.66-11.1-159.38 4.86-200.42 42.2C469.68-13.28 571.6 51.44 728.18 118.86c148.93 71.27 232.35 137.77 200.31 196.47-129.65 57.08-292.28 105.81-385.63 146.2 45.97 39.37 209.83 72.03 388.61 97.85q0 0 0 0" opacity=".66"/><path d="M897.52 443.37c69.42 23.47 7.36 37.21-143.89 41.73-161.93 4.43-253.67-.3-243.16-12.97 100.21-11.35 232.62-27.97 337.47-46.29 46.3-11.05 15.67-16.91-71.24-12.19-121.96 20.57-242.63 57.91-339.66 113.67-71.98 70.67-110.77 153.75-126.52 241.34 2.35 80.86 9.99 146.54 12.39 185.76 5.72 7.38-1.45-21.23-24.92-83.76-23.48-83.64-62.14-175.12-112.12-259.7-46.67-67-97-108.85-140.04-123.6-24.92 12.74-24.79 45.65 11.02 90.27 60.85 54.67 147.83 106.45 239.02 149.12 56.15 36.62 58.94 58.58-11.8 66.25-129.29-1.29-282.75-13.93-400.15-34.31-27.72-25.36 50.66-53.97 203.53-82.65 142.19-29.94 199.49-57.44 130.07-80.92C56.49 571.65-97.16 553.33-159.76 539c55.28-15.59 198.34-29.68 355.89-45 109.15-20.29 129.41-46.31 70.5-81.19-111.3-43.85-221.38-99.5-293.49-166.89-24.16-73.43 7-153.04 74.88-232.16 94.38-69.04 191.17-123 276.01-152.96 80.22-2.45 141.76 26.04 186.85 83.99 41.01 75.5 72.05 162.23 95.53 245.87 30.87 79.21 31.29 41.25-17.67-48.56C544.59 71.71 486.45 9.68 428.24-36.54c-31.73-31.32-29.21-40.83 25.7-30.64C556.81-41.13 694.72-1.57 830.47 45.65c83.36 54.49 84.18 109.77-7.74 161.79-140.33 53.34-270.06 100.77-316.32 140.62 71.62 39.74 230.01 71.83 391.06 95.3l.05.01" opacity=".77"/><path d="M862.92 312.75c68.86 21.13 30.29 34.08-91.17 39.75-222.64 3.27 47.06 16.71 69.93 52-49.69 39.18-131.81 91.51-224.73 156.26-99.02 72-184.14 149.3-250.4 224.83-56.16 65.29-96.16 114.48-125.41 139.81-25.18-1.04-46.9-31.3-68.03-88.85-21.12-74.69-40.65-156.93-55.31-235.6-10.59-67.14-9.01-116.15 10.53-144.18 29.65-5.8 79.99 7.03 146.45 33.2 60.36 38.98 112.15 81.11 134.16 120.76-25.13 39.97-101.04 71.2-221.37 92.11-200.62 12.64 115.07-45.09 63.35-76.24-143.51-21.12-288.21-42.32-368.96-64.18 12-22.96 110.72-48.66 250.92-78.69 134.85-33.64 218.17-74.31 234.53-123.05C320.23 307.22 235.86 245.65 146.1 178 64.19 110.66 16.29 43.48 4.78-17.49c18.26-48.17 61.15-79.95 114.91-89.64 64.43 12.54 124.9 49.52 174.58 108.49 50.48 70.51 87.3 148.46 108.42 223.16 23.35 74.84-5.94 65.56-44.79-2.82-17.14-60.05-25.24-118.4-10.95-168.42 44.08-42.74 122.3-70.03 231.9-81.52 117.45.51 226.87 14.61 296.05 38.61 5.63 31.85-58.74 68.51-178.11 106.21-124.73 40.63-211.42 78.94-215.27 112.58 88.9 34.17 237.89 62.47 381.4 83.59q0 0 0 0" opacity=".81"/><path d="M829.51 211.43c65.89 18.78 46.6 33.07-44.91 43.65-131.48 11.36-257.55 20.56-341.6 29.36-24.47 11.91 10.43 26.36 84.41 45.64 96.37 25.57 182.98 58.94 242 101.36 29.64 49.63 22.87 107.94-11.12 172.86-55.7 66.24-120.8 132.49-184.55 193.06-67.31 49.1-124.76 82.82-169.5 96.09-44-7.72-75.72-38.55-94.5-90.82-18.78-65.84-23.73-138.59-15.14-210.13 9.33-64.71 32.62-117.2 67.39-154.44 48.29-23.18 87.09 15.66 22.75 57.84-83.63 33.14-192.5 62.79-308.42 86.49-93.52 22.84-145.27 38.01-134.56 45.27 70.28 5.55 185.66 4.04 309.9-3.88 84.26-8.57 99.74-22.38 33.85-41.16-125.62-18.78-258.45-41.63-350.05-68.47-24.59-27.5 26.2-60.15 129.85-98.24 127.79-39.8 241.82-85.9 317.32-137.68 27.99-52.64 9.52-109.25-39.61-166.99C271.44 57.82 201.25 8.79 145.48-31.11 89.35-64.17 93.12-18.8 125.89 59.55c26.37 64.3 50.5 133.24 69.27 199.08 25.06 69.59 60.1 84.33 91.72 37.48 35.61-46.81 88.8-96.22 162.72-142.91 84.71-45.37 181.86-81.41 278.06-106.44 73.75-17.8 114.5-24.22 106.08-20.84-55.93 9.66-153.11 26.13-267.14 46.76-89.91 23.74-130.04 48.7-98.23 72.76 98.83 24.83 235.45 47.2 361.09 65.98l.05.01" opacity=".1"/><path d="M795.46 172.99c59.97 32.86-111.06 65.55-324.68 104.03-89.59 47.75-13.71 115.91 118.63 208.49C711.32 589.37 744.48 703.96 714.03 801.4c-65.66 54.42-130.68 46.45-163.54-32.78-32.86-120.05-30.45-244.75-21.74-338.37-26.5-48.97-110.94-53.96-275.92-33C77.42 441.53-33.31 480.13 32.18 498.57c189.54 18.18 347.25 11.83 287.28-21.03C88.71 444.68-53.88 388.42 14.68 313.29 221.9 237.91 399.14 148.02 456.76 60.67c-53.46-64.03-145.9-93.89-207.78-69-52.61 69.52-57.32 180.9-24.46 300.95 32.86 79.23 100.18 100.52 209.74 70.19 118.83-73.35 262.56-153.09 359.08-213.88-85.74-57.95-306.59-23.76 2.12 24.06q0 0 0 0" opacity=".61"/><path d="M761.52 210.34c67.41 28.16-46.26 68.17-234.58 120.65-150.11 57.16-184.32 132.7-130.31 222.6C504.78 642.55 593.3 730.44 634.03 796c22.59 29.28 11.84 10.19-16.32-61.34-28.17-101.75-71.09-210.99-142.5-302.38-89.53-64.22-222.02-96.55-367.08-104.7-90.93 13.61-86.59 31.37 42.88 40.19 167.67 12.35 269.92 6.93 202.51-21.23C157.15 318.37 2.97 270.12-4.2 208.96 124 151.32 301.01 89.61 433.53 39.08c67.32-28.77 67.81-26.32 47.42 17.25-39.19 70.74-52.94 168.55-24.77 270.3 28.15 71.55 95.56 102.06 183.56 93.44 69.21-44.92 112.69-102.93 82.31-154.98-169.16-68.78-239.74-89.75 39.42-54.76l.05.01" opacity=".82"/><path d="M727.52 311.01c69.42 23.47 7.8 63.24-132.7 116.2-157.39 53.82-263.51 120.59-301.19 192.9 20.59 65.31 68.15 123.31 106.55 159.72 43.8 9.24 57.31-16.64 33.84-79.17-23.48-83.64-81.71-175.36-166.18-258.3-79.08-69.03-163.27-117.85-214.63-147.75 6.93-14.12 88.15-19.89 228.33-25.83 123.3-1.61 175.4-11.89 105.98-35.36-161.03-23.47-309.29-57.91-369.19-96.98 39.62-34.74 154.69-65.6 283.76-82.24 123.33-.87 205.54 23.05 251.22 74.87 27.75 65.72 46.23 147.92 69.7 231.56 36.59 80.24 34.87 70.17-80.47 19.06-98.31-41.54-188.49-71.69-210.94-84.83 77.08-12.28 234.83-7.33 395.87 16.14l.05.01" opacity=".44"/><path d="M693.25 441.34c66.09 18.78 46.51 51.21-37.58 93.14-121.51 40.77-239.57 88.15-326.9 135.16-59.57 39.23-86.57 69.45-96.86 82.39 1.29-4.79-2.23-33.16-21.01-85.42-18.78-65.85-51.04-138.75-84.87-208.31-22.25-64.32-24.55-117.79 10.4-158.5 62.72-31.9 160.87-55.36 268.61-73.85 70.33-15.31 82.3-31.3 16.21-50.08-125.72-18.78-253.6-38.57-337.49-55.8-29.1-14.04 4.28-19.89 73.59-12.6 93.62 16.1 182.69 49.65 250.29 100.21 64.43 55.79 106.66 121.08 125.44 186.93 18.78 52.26 12.33 88.24-19.56 106.8-35.06.82-94.83-9.48-163.83-24.1-44.7-22.4-58.17-40.48-15.31-48.71 97.66-9.38 233.15-6.03 358.87 12.74q0 0 0 0" opacity=".32"/><path d="M659.52 557.95c67.41 28.17-43.44 82.5-194.1 131.94-148.19 27.57-231.32 14.3-259.49-57.23-28.17-101.76 3.96-211.76 115.24-294.32 113.74-69.12 201.76-116.94 134.35-145.1-196.39-28.17-339.78-31.35-354.15.85 68.69 45.64 159.93 132.81 188.1 234.57 28.16 71.53-12.07 107.63-43.85 116.98 51.29-12.52 217.51-15.86 413.9 12.31q0 0 0 0" opacity=".29"/><path d="M625.47 621.76c47.14 37.56-163.39 62.4-200.94-23.11-37.56-138.43 112.08-281.5 64.94-319.06C226.16 242.04 136 324.22 173.56 462.65c37.55 85.51 188.6 121.56 451.91 159.11q0 0 0 0" opacity=".7"/></g></svg>