<svg xmlns="http://www.w3.org/2000/svg" viewBox="0 0 24 24"><path d="M17.5 4h-11a.499.499 0 0 1-.476-.654l.975-3A.5.5 0 0 1 7.475 0H16.5c.215 0 .406.138.475.342l1 3A.501.501 0 0 1 17.5 4zM7.188 3h9.618l-.666-2H7.838l-.65 2z"/><path d="M19.5 6.5h-15A.5.5 0 0 1 4 6V3.5a.5.5 0 0 1 .5-.5h15a.5.5 0 0 1 .5.5V6a.5.5 0 0 1-.5.5zM5 5.5h14V4H5v1.5z"/><path d="M17.951 11a.5.5 0 0 1-.495-.574l.68-4.5a.508.508 0 0 1 .568-.42.5.5 0 0 1 .42.569l-.68 4.5a.5.5 0 0 1-.493.425zM6.049 11a.499.499 0 0 1-.493-.426l-.67-4.5a.5.5 0 1 1 .988-.148l.67 4.5a.499.499 0 0 1-.495.574zM16 24H8a.5.5 0 0 1-.494-.425l-.9-5.97a.5.5 0 1 1 .988-.149L8.431 23h7.139l.837-5.545a.5.5 0 0 1 .988.149l-.9 5.97A.501.501 0 0 1 16 24zm3-20H5a.5.5 0 0 1 0-1h14a.5.5 0 0 1 0 1z"/><path d="M17.5 18.028h-11a.497.497 0 0 1-.48-.363l-2-7.028A.5.5 0 0 1 4.5 10h15a.5.5 0 0 1 .48.637l-2 7.028a.497.497 0 0 1-.48.363zm-10.622-1h10.244L18.838 11H5.162l1.716 6.028z"/></svg>