<svg xmlns="http://www.w3.org/2000/svg" viewBox="0 0 800 800" opacity=".68"><defs><linearGradient x1="50%" y1="0%" x2="50%" y2="100%" id="a"><stop stop-color="hsl(162, 100%, 58%)" offset="45%"/><stop stop-color="hsl(270, 73%, 53%)" offset="100%"/></linearGradient></defs><g stroke-width="6" stroke="url(#a)" fill="none"><path d="M1357.896 595.197C1335.516 979.05 662.163 1200.17 291.82 1303.56c-370.343 103.389-557.016-13.349-711.568-212.095C-574.3 892.717-620.651 689.24-450.03 349.577-279.406 9.912 22.592-590.098 399.243-538.927c376.65 51.17 981.032 750.273 958.653 1134.124-22.38 383.852-695.733 604.973-1066.075 708.362"/><path d="M1344.404 592.448C1322.34 970.893 658.47 1188.9 293.344 1290.833c-365.126 101.932-549.17-13.161-701.546-209.108-152.375-195.947-198.074-396.557-29.854-731.438 168.22-334.881 465.964-926.44 837.31-875.99 371.346 50.45 967.215 739.706 945.15 1118.15-22.064 378.446-685.934 596.453-1051.06 698.386"/><path d="M1330.913 589.699c-21.75 373.038-676.135 587.931-1036.045 688.408-359.91 100.476-541.325-12.973-691.524-206.121-150.198-193.148-195.245-390.892-29.428-720.989C-260.267 20.9 33.223-562.208 399.264-512.479c366.041 49.73 953.398 729.14 931.649 1102.178-21.75 373.038-676.135 587.931-1036.045 688.408"/><path d="M1317.421 586.95c-21.434 367.632-666.335 579.41-1021.03 678.43-354.694 99.021-533.48-12.784-681.501-203.133-148.022-190.348-192.415-385.227-29.002-710.54 163.414-325.312 452.65-899.97 813.387-850.961 360.736 49.009 939.58 718.571 918.146 1086.204-21.434 367.632-666.335 579.41-1021.03 678.43"/><path d="M1303.93 584.2c-21.119 362.226-656.537 570.89-1006.015 668.454-349.478 97.564-525.634-12.597-671.48-200.146-145.844-187.55-189.585-379.562-28.574-700.09C-241.13 31.888 43.855-534.318 399.286-486.03c355.43 48.288 925.763 708.004 904.644 1070.23-21.119 362.226-656.537 570.89-1006.015 668.454"/><path d="M1290.438 581.451c-20.803 356.82-646.737 562.37-991 658.477-344.26 96.108-517.789-12.409-661.457-197.159s-186.756-373.897-28.148-689.641C-231.56 37.383 49.17-520.372 399.296-472.806c350.126 47.568 911.946 697.437 891.142 1054.257-20.803 356.82-646.737 562.37-991 658.477"/><path d="M1276.947 578.702c-20.489 351.413-636.939 553.848-975.984 648.5-339.046 94.652-509.945-12.22-651.436-194.172-141.491-181.95-183.926-368.231-27.722-679.192 156.204-310.96 432.68-860.266 777.502-813.42 344.821 46.848 898.128 686.87 877.64 1038.284-20.489 351.413-636.939 553.848-975.984 648.5"/><path d="M1263.455 575.952c-20.173 346.007-627.14 545.328-960.969 638.524-333.83 93.195-502.099-12.033-641.413-191.185-139.315-179.151-181.097-362.566-27.296-668.743 153.801-306.177 426.024-847.03 765.54-800.905 339.517 46.126 884.311 676.303 864.138 1022.31-20.173 346.006-627.14 545.327-960.969 638.523"/><path d="M1249.964 573.203c-19.858 340.6-617.34 536.807-945.954 628.547-328.614 91.739-494.254-11.845-631.391-188.198-137.138-176.352-178.267-356.901-26.87-658.294 151.398-301.392 419.368-833.796 753.58-788.39 334.21 45.405 870.493 665.735 850.635 1006.335-19.858 340.6-617.34 536.807-945.954 628.547"/><path d="M1236.472 570.454c-19.543 335.194-607.541 528.286-930.938 618.57-323.398 90.283-486.409-11.657-621.37-185.21-134.96-173.554-175.437-351.237-26.442-647.845 148.994-296.61 412.71-820.562 741.617-775.877 328.906 44.684 856.676 655.168 837.133 990.362-19.543 335.194-607.541 528.286-930.938 618.57"/><path d="M1222.98 567.705c-19.227 329.787-597.741 519.765-915.923 608.592-318.181 88.827-478.563-11.469-611.347-182.223-132.784-170.753-172.608-345.57-26.016-637.395C-183.715 64.854 75.748-450.648 399.35-406.684c323.601 43.964 842.858 644.601 823.63 974.389-19.227 329.787-597.741 519.765-915.923 608.592"/><path d="M1209.49 564.956c-18.913 324.381-587.944 511.244-900.91 598.615-312.964 87.371-470.717-11.28-601.324-179.235-130.607-167.955-169.778-339.906-25.59-626.947C-174.146 70.349 81.064-436.702 399.36-393.459c318.297 43.243 829.042 634.033 810.13 958.415-18.913 324.381-587.944 511.244-900.91 598.615"/><path d="M1195.998 562.206c-18.597 318.975-578.144 502.724-885.894 588.639-307.749 85.914-462.872-11.093-591.302-176.248-128.43-165.156-166.949-334.241-25.164-616.498C-164.576 75.842 86.38-422.758 399.371-380.235c312.991 42.522 815.224 623.466 796.627 942.441-18.597 318.975-578.144 502.724-885.894 588.639"/><path d="M1182.506 559.457c-18.282 313.569-568.345 494.203-870.878 578.662-302.533 84.458-455.027-10.905-581.28-173.261-126.254-162.356-164.12-328.576-24.737-606.049C-155.007 81.337 91.695-408.812 399.38-367.01c307.687 41.802 801.407 612.9 783.125 926.468-18.282 313.569-568.345 494.203-870.878 578.662"/><path d="M1169.015 556.708c-17.967 308.162-558.546 485.682-855.863 568.685-297.317 83.002-447.182-10.717-571.259-170.274s-161.29-322.91-24.31-595.6C-145.438 86.832 97.01-394.866 399.393-353.785c302.38 41.08 787.589 602.332 769.622 910.494-17.967 308.162-558.546 485.682-855.863 568.685"/><path d="M1155.523 553.958c-17.651 302.756-548.747 477.162-840.848 558.708-292.1 81.546-439.336-10.528-561.236-167.286-121.9-156.758-158.46-317.246-23.884-585.15 134.576-267.905 372.771-741.152 669.848-700.792 297.077 40.36 773.772 591.765 756.12 894.52-17.651 302.756-548.747 477.162-840.848 558.708"/><path d="M1142.032 551.21c-17.336 297.349-538.948 468.64-825.833 548.73-286.885 80.09-431.491-10.34-551.214-164.299-119.724-153.958-155.63-311.58-23.458-574.701C-126.3 97.82 107.642-366.977 399.414-327.338c291.771 39.64 759.954 581.198 742.618 878.547-17.336 297.35-538.948 468.641-825.833 548.731"/><path d="M1128.54 548.46c-17.02 291.943-529.148 460.12-810.817 538.754-281.669 78.634-423.646-10.153-541.193-161.312-117.546-151.16-152.8-305.915-23.03-564.252 129.769-258.337 359.457-714.682 645.924-675.763 286.467 38.918 746.138 570.63 729.116 862.573-17.02 291.943-529.148 460.12-810.817 538.754"/><path d="M1115.049 545.71c-16.706 286.538-519.35 451.6-795.803 528.778-276.452 77.177-415.8-9.965-531.17-158.325-115.37-148.36-149.97-300.25-22.604-553.803 127.366-253.552 352.8-701.447 633.963-663.25 281.162 38.199 732.32 560.064 715.614 846.6-16.706 286.538-519.35 451.6-795.803 528.778"/><path d="M1101.557 542.961c-16.39 281.13-509.55 443.08-780.787 518.8-271.237 75.722-407.955-9.776-521.148-155.337-113.193-145.56-147.141-294.585-22.178-543.354 124.963-248.768 346.145-688.212 622.002-650.735 275.857 37.477 718.502 549.496 702.111 830.626-16.39 281.13-509.55 443.08-780.787 518.8"/><path d="M1088.066 540.212c-16.076 275.724-499.752 434.558-765.772 508.823-266.02 74.266-400.11-9.588-511.127-152.35-111.016-142.761-144.311-288.92-21.75-532.905 122.56-243.984 339.487-674.977 610.04-638.22 270.551 36.756 704.684 538.928 688.609 814.652-16.076 275.724-499.752 434.558-765.772 508.823"/><path d="M1074.574 537.463c-15.76 270.318-489.952 426.037-750.757 498.846-260.804 72.81-392.264-9.4-501.104-149.363-108.84-139.962-141.482-283.255-21.325-522.455 120.157-239.2 332.832-661.743 598.079-625.707 265.247 36.036 690.868 528.361 675.107 798.679-15.76 270.318-489.952 426.037-750.757 498.846"/><path d="M1061.083 534.714c-15.445 264.911-480.154 417.516-735.742 488.87-255.588 71.352-384.42-9.214-491.082-146.377-106.663-137.163-138.652-277.59-20.898-512.006 117.753-234.417 326.174-648.508 586.117-613.193 259.942 35.315 677.05 517.794 661.605 782.706-15.445 264.911-480.154 417.516-735.742 488.87"/><path d="M1047.591 531.964c-15.13 259.506-470.354 408.996-720.726 478.893-250.373 69.897-376.575-9.025-481.06-143.389-104.486-134.363-135.823-271.924-20.472-501.557 115.35-229.632 319.518-635.273 574.155-600.679 254.637 34.595 663.233 507.227 648.103 766.732-15.13 259.506-470.354 408.996-720.726 478.893"/><path d="M1034.1 529.215c-14.815 254.099-460.556 400.475-705.712 468.916C83.232 1066.57-40.34 989.294-142.65 857.73c-102.309-131.565-132.993-266.26-20.045-491.109C-49.747 141.773 150.167-255.417 399.5-221.543c249.332 33.873 649.416 496.66 634.601 750.758-14.815 254.099-460.556 400.475-705.712 468.916"/><path d="M1020.608 526.466C1006.11 775.158 569.852 918.42 329.912 985.404c-239.94 66.985-360.884-8.648-461.016-137.413-100.132-128.766-130.163-260.595-19.619-480.66 110.545-220.064 306.205-608.803 550.233-575.65 244.027 33.153 635.598 486.092 621.098 734.785-14.499 248.692-450.756 391.954-690.696 458.938"/><path d="M1007.117 523.717C992.933 767.003 566.16 907.15 331.436 972.678c-234.724 65.528-353.039-8.46-450.994-134.426-97.956-125.966-127.334-254.93-19.192-470.21 108.14-215.28 299.548-595.569 538.27-563.137 238.723 32.433 621.781 475.526 607.597 718.812C992.933 767.003 566.16 907.15 331.436 972.678"/><path d="M993.625 520.967C979.756 758.847 562.467 895.88 332.96 959.952c-229.508 64.072-345.193-8.272-440.971-131.44-95.779-123.166-124.504-249.264-18.766-459.76C-21.04 158.255 166.113-213.582 399.53-181.87c233.417 31.711 607.964 464.958 594.094 702.837-13.869 237.88-431.158 374.913-660.666 438.985"/><path d="M980.134 518.218C966.58 750.691 558.774 884.61 334.483 947.226 110.19 1009.842-2.865 939.14-96.467 818.774c-93.602-120.368-121.674-243.6-18.339-449.312 103.335-205.713 286.235-569.099 514.348-538.108 228.112 30.99 594.146 454.39 580.592 686.864-13.554 232.473-421.36 366.392-645.651 429.008"/><path d="M966.643 515.469c-13.24 227.067-411.56 357.871-630.636 419.03C116.93 995.66 6.504 926.604-84.921 809.036c-91.425-117.568-118.845-237.934-17.913-438.863C-1.902 169.244 176.745-185.692 399.552-155.422c222.808 30.27 580.33 443.824 567.09 670.89C953.405 742.537 555.083 873.34 336.008 934.5"/><path d="M953.151 512.72c-12.923 221.66-401.761 349.35-615.62 409.054-213.86 59.703-321.658-7.71-410.906-122.478-89.248-114.77-116.015-232.27-17.487-428.414 98.53-196.144 272.922-542.629 490.425-513.08C617.065-112.647 966.074 291.06 953.15 512.72c-12.923 221.66-401.761 349.35-615.62 409.054"/><path d="M939.66 509.97C927.05 726.225 547.697 850.8 339.054 909.047c-208.644 58.248-313.812-7.52-400.883-119.49-87.072-111.97-113.186-226.604-17.06-417.964 96.125-191.36 266.265-529.395 478.463-500.566C611.77-100.144 952.268 293.717 939.66 509.97 927.05 726.225 547.697 850.8 339.054 909.047"/><path d="M926.168 507.221c-12.293 210.848-382.163 332.31-585.59 389.1C137.15 953.112 34.61 888.99-50.284 779.818c-84.894-109.17-110.355-220.939-16.633-407.515 93.722-186.577 259.608-516.16 466.501-488.052 206.893 28.108 538.877 412.122 526.584 622.97-12.293 210.848-382.163 332.31-585.59 389.1"/><path d="M912.677 504.472C900.699 709.913 540.313 828.26 342.1 883.595 143.89 938.93 43.98 876.451-38.738 770.079c-82.718-106.371-107.526-215.274-16.207-397.066 91.32-181.792 252.952-502.925 454.54-475.537 201.588 27.387 525.06 401.554 513.082 606.996C900.699 709.913 540.313 828.26 342.1 883.595"/><path d="M899.185 501.723C887.522 701.758 536.62 816.99 343.625 870.869 150.63 924.748 53.349 863.912-27.192 760.34s-104.697-209.608-15.78-386.617C45.943 196.715 203.322-115.967 399.604-89.3c196.283 26.667 511.243 390.987 499.58 591.023-11.663 200.035-362.565 315.267-555.56 369.146"/><path d="M885.694 498.973c-11.348 194.63-352.766 306.747-540.545 359.17-187.78 52.422-282.431-6.769-360.795-107.542C-94.011 649.83-117.513 546.658-31 374.433 55.513 202.21 208.638-102.022 399.616-76.076c190.978 25.946 497.425 380.42 486.078 575.05-11.348 194.628-352.766 306.746-540.545 359.169"/><path d="M872.202 496.224C861.17 685.447 529.235 794.45 346.672 845.416 164.11 896.383 72.087 838.836-4.1 740.862c-76.187-97.973-99.037-198.278-14.927-365.719 84.11-167.44 232.982-463.22 418.655-437.994C585.3-37.626 883.234 307.002 872.202 496.224 861.17 685.447 529.235 794.45 346.672 845.416"/><path d="M858.71 493.475C847.995 677.29 525.544 783.18 348.197 832.69 170.849 882.2 81.456 826.298 7.445 731.123c-74.01-95.174-96.208-192.613-14.5-355.27C74.65 213.198 219.268-74.13 399.637-49.626c180.368 24.504 469.79 359.286 459.073 543.102C847.994 677.29 525.543 783.18 348.196 832.69"/><path d="M845.22 490.726c-10.403 178.41-323.37 281.184-495.5 329.238-172.131 48.054-258.895-6.204-330.73-98.58-71.833-92.374-93.377-186.948-14.074-344.82C84.22 218.692 224.585-60.186 399.648-36.403 574.711-12.619 855.621 312.316 845.22 490.726c-10.402 178.41-323.369 281.184-495.5 329.238"/><path d="M831.728 487.976C821.64 660.98 518.158 760.64 351.243 807.238c-166.915 46.598-251.05-6.017-320.707-95.592C-39.12 622.07-60.012 530.362 16.89 377.274 93.789 224.186 229.9-46.24 399.659-23.178 569.417-.115 841.814 314.972 831.728 487.976 821.64 660.98 518.158 760.64 351.243 807.238"/><path d="M818.236 485.227c-9.771 167.597-303.77 264.143-465.47 309.285-161.698 45.141-243.203-5.829-310.684-92.605-67.48-86.777-87.719-175.618-13.221-323.923C103.358 229.68 235.216-32.296 399.669-9.954 564.123 12.388 828.008 317.63 818.236 485.227c-9.771 167.597-303.77 264.143-465.47 309.285"/><path d="M804.745 482.478C795.289 644.668 510.773 738.1 354.29 781.786c-156.482 43.685-235.358-5.64-300.662-89.618-65.304-83.978-84.89-169.953-12.795-313.474C112.927 235.174 240.532-18.35 399.68 3.27 558.828 24.892 814.2 320.287 804.745 482.478 795.289 644.668 510.773 738.1 354.29 781.786"/><path d="M791.253 479.729c-9.14 156.784-284.172 247.101-435.439 289.33-151.267 42.23-227.514-5.452-290.64-86.63C2.047 601.25-16.886 518.14 52.805 379.405 122.496 240.668 245.847-4.406 399.691 16.495c153.843 20.9 400.703 306.45 391.562 463.234-9.14 156.784-284.172 247.101-435.439 289.33"/><path d="M777.762 476.98c-8.826 151.377-274.374 238.58-420.424 279.353-146.05 40.773-219.669-5.264-280.619-83.643C15.77 594.31-2.51 514.067 64.778 380.115 132.065 246.162 251.163 9.539 399.7 29.719c148.539 20.18 386.886 295.882 378.06 447.26-8.825 151.378-274.373 238.581-420.423 279.354"/><path d="M764.27 474.23c-8.51 145.972-264.574 230.06-405.409 269.377-140.834 39.317-211.823-5.076-270.596-80.656-58.773-75.58-76.4-152.958-11.515-282.126C141.635 251.657 256.479 23.484 399.712 42.943 542.946 62.403 772.781 328.258 764.27 474.23c-8.51 145.972-264.574 230.06-405.409 269.377"/><path d="M750.779 471.48c-8.196 140.566-254.776 221.54-390.394 259.4-135.618 37.862-203.978-4.887-260.574-77.668-56.597-72.78-73.57-147.293-11.089-271.677 62.482-124.384 173.072-344.106 311-325.367C537.653 74.906 758.975 330.916 750.78 471.48c-8.196 140.565-254.776 221.54-390.394 259.4"/><path d="M737.287 468.731c-7.88 135.16-244.976 213.019-375.378 249.424-130.402 36.404-196.133-4.7-250.552-74.682-54.42-69.981-70.741-141.627-10.663-261.228 60.079-119.6 166.416-330.871 299.04-312.853 132.623 18.018 345.433 264.18 337.553 399.34-7.88 135.158-244.976 213.018-375.378 249.423"/><path d="M723.796 465.982C716.23 595.735 488.619 670.48 363.432 705.428c-125.186 34.949-188.287-4.512-240.53-71.694-52.243-67.182-67.91-135.962-10.236-250.778 57.676-114.817 159.76-317.637 287.078-300.34C527.063 99.914 731.361 336.23 723.796 465.982 716.23 595.735 488.619 670.48 363.432 705.428"/><path d="M710.304 463.233c-7.25 124.346-225.378 195.977-345.348 229.47-119.97 33.491-180.442-4.325-230.508-68.708-50.066-64.382-65.082-130.297-9.81-240.33C179.912 273.634 277.742 79.265 399.756 95.842c122.013 16.576 317.799 243.046 310.55 367.392-7.25 124.346-225.379 195.977-345.349 229.47"/><path d="M696.813 460.484c-6.935 118.94-215.58 187.456-330.333 219.492-114.754 32.036-172.597-4.136-220.486-65.72-47.89-61.583-62.252-124.632-9.383-229.88C189.48 279.128 283.057 93.209 399.765 109.065c116.71 15.856 303.982 232.479 297.048 351.419-6.935 118.94-215.58 187.456-330.333 219.492"/><path d="M683.321 457.734c-6.62 113.534-205.78 178.936-315.318 209.516-109.538 30.58-164.75-3.948-210.463-62.733-45.713-58.784-59.423-118.967-8.957-219.43 50.466-100.465 139.79-277.933 251.193-262.798 111.404 15.135 290.165 221.912 283.545 335.445-6.62 113.534-205.78 178.936-315.318 209.516"/><path d="M669.83 454.985C663.526 563.112 473.849 625.4 369.527 654.524c-104.322 29.123-156.906-3.76-200.442-59.745-43.535-55.985-56.592-113.303-8.53-208.983 48.063-95.68 133.133-264.697 239.232-250.283 106.099 14.415 276.347 211.345 270.043 319.472-6.304 108.127-195.981 170.415-300.303 199.539"/><path d="M656.338 452.236c-5.989 102.72-186.182 161.894-285.287 189.562-99.106 27.667-149.061-3.573-190.42-56.758-41.359-53.186-53.763-107.637-8.103-198.533 45.66-90.897 126.475-251.463 227.27-237.77 100.793 13.695 262.53 200.778 256.54 303.499-5.989 102.72-186.182 161.894-285.287 189.562"/><path d="M642.847 449.487C637.173 546.8 466.464 602.86 372.574 629.07c-93.89 26.212-141.215-3.384-180.397-53.77-39.182-50.387-50.934-101.972-7.677-188.084 43.256-86.113 119.82-238.228 215.308-225.255 95.489 12.973 248.713 190.21 243.039 287.525C637.173 546.8 466.464 602.86 372.574 629.07"/><path d="M629.355 446.737c-5.358 91.908-166.584 144.853-255.257 169.608-88.674 24.755-133.37-3.196-170.376-50.783-37.005-47.587-48.103-96.307-7.25-177.635 40.853-81.328 113.163-224.993 203.347-212.74 90.184 12.252 234.895 179.642 229.536 271.55-5.358 91.908-166.584 144.853-255.257 169.608"/><path d="M615.864 443.988c-5.043 86.502-156.785 136.332-240.242 159.63-83.458 23.3-125.525-3.007-160.354-47.795-34.828-44.788-45.274-90.642-6.824-167.186 38.45-76.544 106.506-211.758 191.385-200.226 84.88 11.531 221.078 169.075 216.035 255.577-5.043 86.502-156.785 136.332-240.242 159.63"/><path d="M602.372 441.239c-4.728 81.095-146.985 127.811-225.227 149.654-78.241 21.843-117.68-2.82-150.331-44.81-32.652-41.988-42.445-84.976-6.398-156.736 36.048-71.76 99.85-198.523 179.424-187.712 79.574 10.81 207.26 158.509 202.532 239.604-4.728 81.095-146.985 127.811-225.227 149.654"/><path d="M588.88 438.49c-4.412 75.689-137.186 119.29-210.211 139.677-73.025 20.386-109.834-2.633-140.31-41.822-30.474-39.19-39.614-79.311-5.97-146.288 33.644-66.976 93.193-185.288 167.462-175.198 74.269 10.09 193.443 147.942 189.03 223.63-4.413 75.69-137.187 119.291-210.212 139.678"/><path d="M575.39 435.74c-4.098 70.283-127.388 110.77-195.197 129.7-67.81 18.93-101.99-2.444-130.288-38.834-28.298-36.39-36.785-73.646-5.544-135.838 31.24-62.193 86.536-172.054 155.5-162.684 68.965 9.37 179.626 137.374 175.528 207.656-4.097 70.283-127.387 110.77-195.196 129.7"/><path d="M561.898 432.991c-3.783 64.876-117.589 102.249-180.182 119.723-62.593 17.474-94.143-2.256-120.265-35.847-26.121-33.59-33.955-67.981-5.118-125.39 28.838-57.407 79.88-158.818 143.54-150.169 63.658 8.649 165.807 126.807 162.025 191.683-3.783 64.876-117.589 102.249-180.182 119.723"/><path d="M548.406 430.242c-3.467 59.47-107.79 93.728-165.166 109.746-57.377 16.018-86.298-2.068-110.243-32.86-23.945-30.792-31.126-62.316-4.692-114.94 26.435-52.624 73.223-145.583 131.578-137.656 58.354 7.928 151.99 116.24 148.523 175.71-3.467 59.47-107.79 93.728-165.166 109.746"/><path d="M534.915 427.493c-3.152 54.063-97.99 85.207-150.152 99.769-52.16 14.562-78.452-1.88-100.22-29.873-21.768-27.992-28.297-56.65-4.265-104.49 24.031-47.84 66.566-132.35 119.615-125.142 53.05 7.207 138.174 105.672 135.022 159.736-3.152 54.063-97.99 85.207-150.152 99.769"/><path d="M521.423 424.743c-2.836 48.658-88.191 76.687-135.136 89.793-46.945 13.105-70.608-1.692-90.199-26.886-19.59-25.193-25.466-50.986-3.838-94.042 21.628-43.056 59.91-119.113 107.654-112.627 47.745 6.487 124.356 95.105 121.52 143.762-2.837 48.658-88.192 76.687-135.137 89.793"/><path d="M507.932 421.994c-2.522 43.25-78.393 68.166-120.121 79.815-41.729 11.65-62.763-1.504-80.177-23.898-17.414-22.394-22.637-45.32-3.412-83.593 19.225-38.272 53.253-105.878 95.693-100.113 42.44 5.766 110.539 84.538 108.017 127.789-2.522 43.25-78.393 68.166-120.121 79.815"/><path d="M494.44 419.245c-2.206 37.844-68.593 59.645-105.106 69.838-36.512 10.194-54.917-1.316-70.154-20.91-15.238-19.595-19.808-39.656-2.986-73.144 16.822-33.488 46.597-92.644 83.731-87.6 37.135 5.046 96.722 73.971 94.515 111.816-2.206 37.844-68.593 59.645-105.106 69.838"/><path d="M480.949 416.496c-1.891 32.438-58.794 51.124-90.09 59.861-31.297 8.737-47.073-1.128-60.133-17.923-13.061-16.796-16.978-33.991-2.56-62.695 14.42-28.704 39.94-79.41 71.77-75.085 31.83 4.324 82.904 63.403 81.013 95.842-1.891 32.438-58.794 51.124-90.09 59.861"/><path d="M467.457 413.746c-1.576 27.032-48.995 42.604-75.075 49.885-26.08 7.28-39.227-.94-50.11-14.936-10.885-13.997-14.149-28.326-2.133-52.246 12.016-23.92 33.283-66.174 59.808-62.57 26.524 3.603 69.086 52.836 67.51 79.867-1.576 27.032-48.995 42.604-75.075 49.885"/><path d="M453.966 410.997c-1.26 21.625-39.196 34.083-60.06 39.908-20.865 5.824-31.382-.752-40.089-11.95-8.707-11.196-11.318-22.66-1.706-41.796 9.613-19.136 26.627-52.94 47.846-50.056 21.22 2.883 55.27 42.269 54.009 63.894-1.26 21.625-39.196 34.083-60.06 39.908"/><path d="M440.474 408.248c-.945 16.219-29.397 25.562-45.045 29.93-15.648 4.37-23.536-.563-30.066-8.961-6.53-8.398-8.49-16.996-1.28-31.348s19.97-39.704 35.885-37.542c15.915 2.162 41.452 31.702 40.506 47.92-.945 16.22-29.397 25.563-45.045 29.932"/><path d="M426.983 405.499c-.63 10.812-19.598 17.041-30.03 19.953-10.432 2.913-15.69-.376-20.044-5.974-4.354-5.599-5.66-11.33-.853-20.898 4.806-9.568 13.313-26.47 23.923-25.029 10.61 1.442 27.634 21.135 27.004 31.948-.63 10.812-19.598 17.041-30.03 19.953"/><path d="M413.491 402.75c-.315 5.406-9.799 8.52-15.015 9.976-5.216 1.456-7.845-.188-10.022-2.987-2.177-2.8-2.83-5.665-.426-10.45 2.403-4.783 6.656-13.234 11.961-12.513 5.305.72 13.818 10.567 13.502 15.973-.315 5.407-9.799 8.521-15.015 9.977"/></g></svg>