<?xml version="1.0" standalone="no"?><svg xmlns="http://www.w3.org/2000/svg" viewBox="0 0 1440 320"><path fill="#04ee51" fill-opacity="1" d="M0,0L18.5,21.3C36.9,43,74,85,111,106.7C147.7,128,185,128,222,117.3C258.5,107,295,85,332,85.3C369.2,85,406,107,443,106.7C480,107,517,85,554,106.7C590.8,128,628,192,665,192C701.5,192,738,128,775,85.3C812.3,43,849,21,886,37.3C923.1,53,960,107,997,160C1033.8,213,1071,267,1108,240C1144.6,213,1182,107,1218,101.3C1255.4,96,1292,192,1329,213.3C1366.2,235,1403,181,1422,154.7L1440,128L1440,0L1421.5,0C1403.1,0,1366,0,1329,0C1292.3,0,1255,0,1218,0C1181.5,0,1145,0,1108,0C1070.8,0,1034,0,997,0C960,0,923,0,886,0C849.2,0,812,0,775,0C738.5,0,702,0,665,0C627.7,0,591,0,554,0C516.9,0,480,0,443,0C406.2,0,369,0,332,0C295.4,0,258,0,222,0C184.6,0,148,0,111,0C73.8,0,37,0,18,0L0,0Z"></path></svg>