<svg xmlns="http://www.w3.org/2000/svg" version="1.1" xmlns:xlink="http://www.w3.org/1999/xlink" xmlns:svgjs="http://svgjs.dev/svgjs" viewBox="0 0 800 800"><defs><linearGradient x1="50%" y1="0%" x2="50%" y2="100%" id="ffflurry-grad" gradientTransform="rotate(270)"><stop stop-color="hsl(238, 82%, 13%)" stop-opacity="1" offset="0%"></stop><stop stop-color="hsl(162, 100%, 58%)" stop-opacity="1" offset="45%"></stop><stop stop-color="hsl(270, 73%, 53%)" stop-opacity="1" offset="100%"></stop></linearGradient></defs><rect width="100%" height="100%" fill="hsl(238, 82%, 13%)"></rect><g fill="url(#ffflurry-grad)"><rect width="352" height="3" x="17" y="393.5" rx="1.5" transform="rotate(45, 193, 395)" opacity="0.88"></rect><rect width="292" height="3" x="394" y="448.5" rx="1.5" transform="rotate(45, 540, 450)" opacity="0.83"></rect><rect width="91" height="3" x="-10.5" y="232.5" rx="1.5" transform="rotate(45, 35, 234)" opacity="0.53"></rect><rect width="96" height="3" x="298" y="61.5" rx="1.5" transform="rotate(45, 346, 63)" opacity="0.24"></rect><rect width="150" height="3" x="309" y="275.5" rx="1.5" transform="rotate(45, 384, 277)" opacity="0.21"></rect><rect width="239" height="3" x="329.5" y="776.5" rx="1.5" transform="rotate(45, 449, 778)" opacity="0.09"></rect><rect width="595" height="3" x="147.5" y="131.5" rx="1.5" transform="rotate(45, 445, 133)" opacity="0.35"></rect><rect width="407" height="3" x="-177.5" y="436.5" rx="1.5" transform="rotate(45, 26, 438)" opacity="0.98"></rect><rect width="518" height="3" x="-4" y="344.5" rx="1.5" transform="rotate(45, 255, 346)" opacity="0.39"></rect><rect width="256" height="3" x="142" y="767.5" rx="1.5" transform="rotate(45, 270, 769)" opacity="0.99"></rect><rect width="289" height="3" x="-119.5" y="45.5" rx="1.5" transform="rotate(45, 25, 47)" opacity="0.29"></rect><rect width="272" height="3" x="71" y="34.5" rx="1.5" transform="rotate(45, 207, 36)" opacity="0.59"></rect><rect width="354" height="3" x="188" y="439.5" rx="1.5" transform="rotate(45, 365, 441)" opacity="0.72"></rect><rect width="661" height="3" x="-143.5" y="618.5" rx="1.5" transform="rotate(45, 187, 620)" opacity="0.34"></rect><rect width="540" height="3" x="479" y="752.5" rx="1.5" transform="rotate(45, 749, 754)" opacity="0.58"></rect><rect width="388" height="3" x="255" y="707.5" rx="1.5" transform="rotate(45, 449, 709)" opacity="0.51"></rect><rect width="186" height="3" x="-22" y="14.5" rx="1.5" transform="rotate(45, 71, 16)" opacity="0.08"></rect><rect width="184" height="3" x="439" y="752.5" rx="1.5" transform="rotate(45, 531, 754)" opacity="0.83"></rect><rect width="138" height="3" x="25" y="465.5" rx="1.5" transform="rotate(45, 94, 467)" opacity="0.39"></rect><rect width="299" height="3" x="502.5" y="307.5" rx="1.5" transform="rotate(45, 652, 309)" opacity="0.55"></rect><rect width="75" height="3" x="711.5" y="661.5" rx="1.5" transform="rotate(45, 749, 663)" opacity="0.30"></rect><rect width="689" height="3" x="103.5" y="484.5" rx="1.5" transform="rotate(45, 448, 486)" opacity="0.24"></rect><rect width="538" height="3" x="-164" y="200.5" rx="1.5" transform="rotate(45, 105, 202)" opacity="0.19"></rect><rect width="158" height="3" x="247" y="317.5" rx="1.5" transform="rotate(45, 326, 319)" opacity="0.92"></rect><rect width="242" height="3" x="473" y="582.5" rx="1.5" transform="rotate(45, 594, 584)" opacity="0.72"></rect><rect width="208" height="3" x="648" y="351.5" rx="1.5" transform="rotate(45, 752, 353)" opacity="0.29"></rect><rect width="109" height="3" x="620.5" y="517.5" rx="1.5" transform="rotate(45, 675, 519)" opacity="0.71"></rect><rect width="335" height="3" x="330.5" y="64.5" rx="1.5" transform="rotate(45, 498, 66)" opacity="0.49"></rect><rect width="378" height="3" x="-110" y="612.5" rx="1.5" transform="rotate(45, 79, 614)" opacity="0.53"></rect><rect width="467" height="3" x="-158.5" y="755.5" rx="1.5" transform="rotate(45, 75, 757)" opacity="0.66"></rect><rect width="507" height="3" x="-136.5" y="304.5" rx="1.5" transform="rotate(45, 117, 306)" opacity="0.46"></rect><rect width="662" height="3" x="424" y="122.5" rx="1.5" transform="rotate(45, 755, 124)" opacity="0.87"></rect><rect width="274" height="3" x="374" y="640.5" rx="1.5" transform="rotate(45, 511, 642)" opacity="0.15"></rect><rect width="155" height="3" x="214.5" y="577.5" rx="1.5" transform="rotate(45, 292, 579)" opacity="0.88"></rect><rect width="478" height="3" x="54" y="425.5" rx="1.5" transform="rotate(45, 293, 427)" opacity="0.42"></rect><rect width="348" height="3" x="-132" y="533.5" rx="1.5" transform="rotate(45, 42, 535)" opacity="0.28"></rect><rect width="183" height="3" x="413.5" y="714.5" rx="1.5" transform="rotate(45, 505, 716)" opacity="0.47"></rect><rect width="438" height="3" x="238" y="360.5" rx="1.5" transform="rotate(45, 457, 362)" opacity="0.59"></rect><rect width="147" height="3" x="74.5" y="533.5" rx="1.5" transform="rotate(45, 148, 535)" opacity="0.79"></rect><rect width="198" height="3" x="77" y="734.5" rx="1.5" transform="rotate(45, 176, 736)" opacity="0.36"></rect><rect width="177" height="3" x="327.5" y="619.5" rx="1.5" transform="rotate(45, 416, 621)" opacity="0.78"></rect><rect width="85" height="3" x="630.5" y="722.5" rx="1.5" transform="rotate(45, 673, 724)" opacity="0.68"></rect><rect width="48" height="3" x="350" y="549.5" rx="1.5" transform="rotate(45, 374, 551)" opacity="0.38"></rect><rect width="340" height="3" x="237" y="200.5" rx="1.5" transform="rotate(45, 407, 202)" opacity="0.16"></rect><rect width="376" height="3" x="566" y="240.5" rx="1.5" transform="rotate(45, 754, 242)" opacity="0.44"></rect><rect width="72" height="3" x="725" y="578.5" rx="1.5" transform="rotate(45, 761, 580)" opacity="0.74"></rect><rect width="299" height="3" x="19.5" y="456.5" rx="1.5" transform="rotate(45, 169, 458)" opacity="0.15"></rect><rect width="358" height="3" x="404" y="217.5" rx="1.5" transform="rotate(45, 583, 219)" opacity="0.45"></rect><rect width="261" height="3" x="444.5" y="773.5" rx="1.5" transform="rotate(45, 575, 775)" opacity="0.93"></rect><rect width="53" height="3" x="349.5" y="686.5" rx="1.5" transform="rotate(45, 376, 688)" opacity="0.56"></rect><rect width="634" height="3" x="266" y="95.5" rx="1.5" transform="rotate(45, 583, 97)" opacity="0.35"></rect><rect width="309" height="3" x="39.5" y="270.5" rx="1.5" transform="rotate(45, 194, 272)" opacity="0.28"></rect><rect width="239" height="3" x="-84.5" y="328.5" rx="1.5" transform="rotate(45, 35, 330)" opacity="0.66"></rect><rect width="221" height="3" x="160.5" y="671.5" rx="1.5" transform="rotate(45, 271, 673)" opacity="0.39"></rect><rect width="307" height="3" x="352.5" y="257.5" rx="1.5" transform="rotate(45, 506, 259)" opacity="0.36"></rect><rect width="383" height="3" x="491.5" y="614.5" rx="1.5" transform="rotate(45, 683, 616)" opacity="0.75"></rect><rect width="518" height="3" x="-7" y="106.5" rx="1.5" transform="rotate(45, 252, 108)" opacity="0.90"></rect><rect width="390" height="3" x="328" y="573.5" rx="1.5" transform="rotate(45, 523, 575)" opacity="0.96"></rect><rect width="613" height="3" x="395.5" y="42.5" rx="1.5" transform="rotate(45, 702, 44)" opacity="0.64"></rect><rect width="66" height="3" x="639" y="184.5" rx="1.5" transform="rotate(45, 672, 186)" opacity="0.73"></rect><rect width="226" height="3" x="131" y="502.5" rx="1.5" transform="rotate(45, 244, 504)" opacity="0.91"></rect><rect width="600" height="3" x="-146" y="137.5" rx="1.5" transform="rotate(45, 154, 139)" opacity="0.92"></rect><rect width="59" height="3" x="64.5" y="387.5" rx="1.5" transform="rotate(45, 94, 389)" opacity="0.35"></rect><rect width="74" height="3" x="434" y="17.5" rx="1.5" transform="rotate(45, 471, 19)" opacity="0.91"></rect><rect width="55" height="3" x="358.5" y="764.5" rx="1.5" transform="rotate(45, 386, 766)" opacity="0.42"></rect><rect width="139" height="3" x="259.5" y="734.5" rx="1.5" transform="rotate(45, 329, 736)" opacity="0.15"></rect><rect width="404" height="3" x="-162" y="684.5" rx="1.5" transform="rotate(45, 40, 686)" opacity="0.15"></rect><rect width="507" height="3" x="22.5" y="200.5" rx="1.5" transform="rotate(45, 276, 202)" opacity="0.12"></rect><rect width="89" height="3" x="594.5" y="575.5" rx="1.5" transform="rotate(45, 639, 577)" opacity="0.15"></rect><rect width="175" height="3" x="673.5" y="479.5" rx="1.5" transform="rotate(45, 761, 481)" opacity="0.27"></rect><rect width="269" height="3" x="438.5" y="510.5" rx="1.5" transform="rotate(45, 573, 512)" opacity="0.66"></rect><rect width="310" height="3" x="-45" y="52.5" rx="1.5" transform="rotate(45, 110, 54)" opacity="0.17"></rect><rect width="126" height="3" x="-21" y="126.5" rx="1.5" transform="rotate(45, 42, 128)" opacity="0.21"></rect><rect width="324" height="3" x="515" y="426.5" rx="1.5" transform="rotate(45, 677, 428)" opacity="0.80"></rect><rect width="487" height="3" x="365.5" y="665.5" rx="1.5" transform="rotate(45, 609, 667)" opacity="0.64"></rect><rect width="355" height="3" x="398.5" y="365.5" rx="1.5" transform="rotate(45, 576, 367)" opacity="0.34"></rect><rect width="157" height="3" x="542.5" y="754.5" rx="1.5" transform="rotate(45, 621, 756)" opacity="0.49"></rect></g></svg>