<svg xmlns="http://www.w3.org/2000/svg" version="1.1" xmlns:xlink="http://www.w3.org/1999/xlink" xmlns:svgjs="http://svgjs.dev/svgjs" viewBox="0 0 800 800" opacity="0.68"><defs><linearGradient x1="50%" y1="0%" x2="50%" y2="100%" id="uundulate-grad"><stop stop-color="hsl(162, 100%, 58%)" stop-opacity="1" offset="45%"></stop><stop stop-color="hsl(270, 73%, 53%)" stop-opacity="1" offset="100%"></stop></linearGradient></defs><g stroke-width="6" stroke="url(#uundulate-grad)" fill="none"><path d="M1357.8956681793534 595.19723661427C1335.5160278724734 979.0485207387396 662.1629314784436 1200.170125870287 291.8206516325074 1303.5589665775115C-78.52162821342893 1406.947807284736 -265.1953652100776 1290.20999095946 -419.74727508113864 1091.463672008947C-574.2991849521998 892.7173530584341 -620.6514741208119 689.241400037733 -450.0285157485886 349.5766356150475C-279.4055573763653 9.9118711923619 22.59205345387818 -590.0981557614462 399.2429251055323 -538.9271972199414C775.8937967571867 -487.7562386784367 1380.2753084862334 211.3459524898003 1357.8956681793534 595.19723661427C1335.5160278724734 979.0485207387396 662.1629314784436 1200.170125870287 291.8206516325074 1303.5589665775115 "></path><path d="M1344.404180324962 592.4479354885682C1322.3397462195871 970.8928634986087 658.4704962536428 1188.9000798254865 293.3443048562408 1290.8327396776795C-71.78188654116127 1392.7653995298724 -255.82641597447673 1277.6717778007273 -408.20153838256516 1081.724702779095C-560.5766607906535 885.7776277574624 -606.2761008160459 685.1675332300108 -438.05628270258626 350.28677957384184C-269.83646458912665 15.406025917673105 27.907658764634448 -576.1531555860813 399.25358856204 -525.7029147705133C770.5995183594457 -475.2526739549453 1366.4686144303369 214.00300747852793 1344.404180324962 592.4479354885682C1322.3397462195871 970.8928634986087 658.4704962536428 1188.9000798254865 293.3443048562408 1290.8327396776795 "></path><path d="M1330.912692470571 589.6987564331794C1309.1634645667014 962.7373283287905 654.7780610288419 1177.6301558509988 294.8679580799744 1278.10663484816C-65.0421448688935 1378.5831138453223 -246.45746673887606 1265.1336867123073 -396.6558016839917 1071.9858556195554C-546.8541366291074 878.8380245268033 -591.9007275112798 681.0937884926011 -426.0840496565839 350.9970456029489C-260.267371801888 20.900302713296696 33.22326407539083 -562.208033340404 399.2642520185477 -512.4785102507727C765.3052399617047 -462.7489871611414 1352.6619203744403 216.66018453756806 1330.912692470571 589.6987564331794C1309.1634645667014 962.7373283287905 654.7780610288419 1177.6301558509988 294.8679580799744 1278.10663484816 "></path><path d="M1317.4210825458676 586.9496994481026C1295.987060843503 954.5819152292845 651.0855037337285 1166.3603539468231 296.3914892333951 1265.3806520889534C-58.302525266938346 1364.4009502310837 -237.08863957358767 1252.5957176942002 -385.1101870557307 1062.2471305303284C-533.1317345378736 871.8985433664566 -577.5254762768263 677.0201658255039 -414.11193868089407 351.70743370236823C-250.69840108496192 26.394701579232787 38.5387473158346 -548.2627890244142 399.2747934047429 -499.25398366071965C760.0108394936512 -450.245178297025 1338.8551042482313 219.31748366692045 1317.4210825458676 586.9496994481026C1295.987060843503 954.5819152292845 651.0855037337285 1166.3603539468231 296.3914892333951 1265.3806520889534 "></path><path d="M1303.9298388321008 584.2003372872446C1282.8110233312418 946.4261969539975 647.3933126495526 1155.0902468668667 297.91538659775347 1252.6543641539656C-51.56253945404558 1350.2184814410643 -227.719446197362 1240.057443500311 -373.5642062165322 1052.50810026532C-519.4089662357026 864.958757030329 -563.1498588314353 672.9462379826252 -402.1394614942667 352.41751662600655C-241.12906415709813 31.888795269387742 43.85459676721598 -534.3178498842058 399.2857010018756 -486.0297622464478C754.7168052365353 -437.74167460868983 1325.0486543329598 221.9744776204916 1303.9298388321008 584.2003372872446C1282.8110233312418 946.4261969539975 647.3933126495526 1155.0902468668667 297.91538659775347 1252.6543641539656 "></path><path d="M1290.4382289073974 581.4509751263868C1269.634619608044 938.2704786787106 643.700755354439 1143.8201397869097 299.43891775117436 1239.9280762189774C-44.82291985209042 1336.036012651045 -218.3506190320736 1227.5191693064223 -362.0185915882713 1042.7690700003118C-505.6865641444689 858.018970694201 -548.7746075969817 668.8723101397468 -390.1673505185769 353.12759954964463C-231.56009344017207 37.38288895954258 49.17008000765975 -520.3729107439972 399.2962423880708 -472.80554083217595C749.4224047684818 -425.23817092035466 1311.2418382067508 224.63147157406297 1290.4382289073974 581.4509751263868C1269.634619608044 938.2704786787106 643.700755354439 1143.8201397869097 299.43891775117436 1239.9280762189774 "></path><path d="M1276.946741053006 578.7017960709977C1256.4583379551577 930.1149435088923 640.0083201296382 1132.5502158124216 300.96257097490775 1227.2019713894579C-38.08317817982265 1321.8537269664944 -208.98166979647294 1214.9810782180025 -350.47285488969777 1033.0302228407722C-491.9640399829227 851.079367463542 -534.3992342922156 664.7985654023371 -378.1951174725745 353.8378655787517C-221.9910006529335 42.87716575516629 54.48568531841613 -506.42778849831996 399.3069058445785 -459.5811363124354C744.1281263707408 -412.7344841265508 1297.4351441508543 227.2886486331031 1276.946741053006 578.7017960709977C1256.4583379551577 930.1149435088923 640.0083201296382 1132.5502158124216 300.96257097490775 1227.2019713894579 "></path><path d="M1263.4552531986146 575.9524949452959C1243.2820563022724 921.9592862687616 636.3158849048373 1121.2801697676211 302.48622419864114 1214.4757444896265C-31.343436507554998 1307.6713192116313 -199.61272056087205 1202.4428650592702 -338.9271181911243 1023.2912536109202C-478.24151582137654 844.1396421625707 -520.0238609874496 660.7246985946147 -366.22288442657214 354.54800953754625C-212.42190786569483 48.37132048047738 59.8012906291724 -492.4827883229552 399.3175693010862 -446.35685386300725C738.8338479729998 -400.2309194030594 1283.6284500949578 229.9457036218305 1263.4552531986146 575.9524949452959C1243.2820563022724 921.9592862687616 636.3158849048373 1121.2801697676211 302.48622419864114 1214.4757444896265 "></path><path d="M1249.9637653442237 573.2033158899069C1230.1057746493861 913.8037510989432 632.6234496800362 1110.010245793133 304.0098774223743 1201.7496396601068C-24.603694835287342 1293.4890335270807 -190.24377132527127 1189.9047739708499 -327.3813814925508 1013.5524064513806C-464.51899165983036 837.2000389319114 -505.6484876826835 656.650953857205 -354.2506513805698 355.2582755666531C-202.85281507845616 53.865597276101084 65.1168959399289 -478.5376660772779 399.3282327575939 -433.13244934326667C733.5395695752588 -387.72723260925545 1269.8217560390613 232.6028806808705 1249.9637653442237 573.2033158899069C1230.1057746493861 913.8037510989432 632.6234496800362 1110.010245793133 304.0098774223743 1201.7496396601068 "></path><path d="M1236.4722774898325 570.4541368345176C1216.9294929965004 905.648215929125 628.9310144552353 1098.7403218186453 305.5335306461079 1189.0235348305876C-17.863953163019573 1279.30674784253 -180.8748220896705 1177.36668288243 -315.83564479397734 1003.8135592918413C-450.7964674982842 830.2604357012524 -491.2731143779174 652.5772091197953 -342.27841833456745 355.9685415957599C-193.2837222912175 59.35987407172479 70.43250125068516 -464.5925438316006 399.3388962141016 -419.9080448235261C728.2452911775179 -375.22354581545153 1256.0150619831647 235.2600577399105 1236.4722774898325 570.4541368345176C1216.9294929965004 905.648215929125 628.9310144552353 1098.7403218186453 305.5335306461079 1189.0235348305876 "></path><path d="M1222.9807896354412 567.7047136385036C1203.7532113436148 897.4924366186815 625.2385792304344 1087.470153703532 307.0571838698413 1176.2971858604435C-11.124211490751918 1265.1242180173542 -171.5058728540697 1164.828347653385 -304.2899080954039 994.0744679916766C-437.073943336738 823.3205883299681 -476.89774107315134 648.5032202417606 -330.30618528856513 356.67856348424175C-183.71462950397893 64.85390672672338 75.74810656144155 -450.6476657265483 399.3495596706093 -406.68388444441047C722.9510127797771 -362.72010316227266 1242.2083679272678 237.91699065832552 1222.9807896354412 567.7047136385036C1203.7532113436148 897.4924366186815 625.2385792304344 1087.470153703532 307.0571838698413 1176.2971858604435 "></path><path d="M1209.48930178105 564.955656653427C1190.576929690729 889.3370235191758 621.5461440056336 1076.200351799357 308.5808370935747 1163.5712031012367C-4.384469818484149 1250.9420544031161 -162.13692361846893 1152.2903786352776 -292.74417139683044 984.3357429024497C-423.35141917519184 816.3811071696218 -462.5223677683853 644.4295975746631 -318.33395224256276 357.3889515836613C-174.14553671674025 70.34830559265947 81.06371187219793 -436.70242141055854 399.360223127117 -393.4593578543574C717.6567343820361 -350.21629429815624 1228.4016738713713 240.57428978767803 1209.48930178105 564.955656653427C1190.576929690729 889.3370235191758 621.5461440056336 1076.200351799357 308.5808370935747 1163.5712031012367 "></path><path d="M1195.9978139266589 562.2061724222565C1177.4006480378428 881.1811831735761 617.8537087808327 1064.9301226490875 310.1044903173081 1150.8447930959358C2.3552718537835062 1236.7594635427843 -152.76797438286815 1139.7519823710763 -281.19843469825696 974.5965905671289C-409.6288950136457 809.4411987631813 -448.14699446361925 640.3555476614722 -306.36171919656044 358.0989124369871C-164.57644392950158 75.84227721250181 86.3793171829542 -422.7576043406625 399.3708865836247 -380.23525851039807C712.3624559842949 -337.71291268013357 1214.594979815475 243.23116167093667 1195.9978139266589 562.2061724222565C1177.4006480378428 881.1811831735761 617.8537087808327 1064.9301226490875 310.1044903173081 1150.8447930959358 "></path><path d="M1182.5063260722677 559.4570544020235C1164.2243663849572 873.0257090389141 614.1612735560316 1053.6602597097558 311.6281435410415 1138.1187493015727C9.095013526051275 1222.5772388933901 -143.39902514726737 1127.2139523178125 -269.6526979996835 964.8578044427456C-395.90637085209954 802.5016565676785 -433.7716211588532 636.2818639592188 -294.38948615055807 358.80923950125043C-155.0073511422629 81.33661504328165 91.69492249371046 -408.812421059829 399.3815500401324 -367.0107929555012C707.0681775865542 -325.20916485117345 1200.7882857595785 245.88839976513304 1182.5063260722677 559.4570544020235C1164.2243663849572 873.0257090389141 614.1612735560316 1053.6602597097558 311.6281435410415 1138.1187493015727 "></path><path d="M1169.0148382178766 556.7078753466344C1151.0480847320714 864.8701738690961 610.4688383312309 1042.3903357352679 313.1517967647749 1125.3926444720535C15.83475519831893 1208.3949532088393 -134.0300759116666 1114.6758612293927 -258.10696130111 955.1189572832061C-382.18384669055337 795.5620533370197 -419.39624785408716 632.2081192218093 -282.4172531045557 359.51950553035726C-145.43825835502435 86.83089183890547 97.01052780446685 -394.8672988141517 399.3922134966401 -353.7863884357606C701.7738991888132 -312.70547805736953 1186.9815917036817 248.54557682417305 1169.0148382178766 556.7078753466344C1151.0480847320714 864.8701738690961 610.4688383312309 1042.3903357352679 313.1517967647749 1125.3926444720535 "></path><path d="M1155.5233503634854 553.9584521506204C1137.8718030791854 856.7143945586527 606.7764031064298 1031.120167620155 314.67544998850826 1112.6662955019092C22.574496870586586 1194.2124233836637 -124.6611266760658 1102.1375260003476 -246.56122460253653 945.3798659830416C-368.4613225290072 788.6222059657355 -405.0208745493211 628.1341303437744 -270.4450200585534 360.2295274188391C-135.86916556778567 92.32492449390406 102.32613311522323 -380.9224207090994 399.4028769531478 -340.56222805664504C696.4796207910722 -300.2020354041906 1173.1748976477852 251.20250974258795 1155.5233503634854 553.9584521506204C1137.8718030791854 856.7143945586527 606.7764031064298 1031.120167620155 314.67544998850826 1112.6662955019092 "></path><path d="M1142.0318625090943 551.2092730952313C1124.6955214262996 848.5588593888344 603.0839678816287 1019.850243645667 316.19910321224165 1099.9401906723901C29.314238542854355 1180.0301376991129 -115.29217744046503 1089.5994349119276 -235.01548790396305 935.6410188235022C-354.738798367461 781.6826027350764 -390.645501244555 624.0603856063647 -258.472787012551 360.93979344794616C-126.300072780547 97.81920128952765 107.64173842597961 -366.97729846342213 399.4135404096553 -327.3378235369044C691.1853423933312 -287.6983486103867 1159.3682035918887 253.85968680162796 1142.0318625090943 551.2092730952313C1124.6955214262996 848.5588593888344 603.0839678816287 1019.850243645667 316.19910321224165 1099.9401906723901 "></path><path d="M1128.540374654703 548.4600330046856C1111.5192397734138 840.4032631838597 599.3915326568281 1008.5802586360226 317.72275643597504 1087.2140248077144C36.05398021512201 1165.847790979406 -105.92322820486424 1077.0612827883513 -223.46975120538957 925.9021106288062C-341.01627420591484 774.7429384692612 -376.27012793978895 619.9865798337985 -246.5005539665487 361.64999844189674C-116.73097999330844 103.313417049995 112.95734373673588 -353.03223725290115 399.424203866163 -314.1134800523201C685.8910639955902 -275.1947228517391 1145.561509535992 256.5168028255117 1128.540374654703 548.4600330046856C1111.5192397734138 840.4032631838597 599.3915326568281 1008.5802586360226 317.72275643597504 1087.2140248077144 "></path><path d="M1115.0488868003117 545.710670843828C1098.3429581205278 832.2475449085728 595.699097432027 997.3101515560661 319.24640965970843 1074.4877368727264C42.793721887389665 1151.6653221893869 -96.55427896926346 1064.5230085944627 -211.9240145068161 916.1630803637979C-327.2937500443687 767.8031521331334 -361.8947546350229 615.91265199092 -234.52832092054632 362.36008136553505C-107.16188720606976 108.80751074014995 118.27294904749215 -339.0872981126926 399.4348673226707 -300.88925863804826C680.5967855978492 -262.6912191634039 1131.7548154800954 259.173796779083 1115.0488868003117 545.710670843828C1098.3429581205278 832.2475449085728 595.699097432027 997.3101515560661 319.24640965970843 1074.4877368727264 "></path><path d="M1101.5573989459206 542.9614307532825C1085.166676467642 824.0919487035981 592.0066622072261 986.0401665464217 320.7700628834418 1061.7615710080506C49.533463559657434 1137.4829754696798 -87.18532973366268 1051.9848564708861 -200.37827780824261 906.4241721691021C-313.57122588282255 760.8634878673181 -347.51938133025686 611.8388462183539 -222.556087874544 363.07028635948564C-97.59279441883109 114.3017265006174 123.58855435824853 -325.1422369021716 399.4455307791784 -287.6649151534639C675.3025072001083 -250.18759340475623 1117.948121424199 261.83091280296674 1101.5573989459206 542.9614307532825C1085.166676467642 824.0919487035981 592.0066622072261 986.0401665464217 320.7700628834418 1061.7615710080506 "></path><path d="M1088.0659110915294 540.2121906627372C1071.9903948147562 815.9363524986236 588.3142269824252 974.7701815367775 322.2937161071752 1049.035405143375C56.2732052319252 1123.300628749973 -77.8163804980619 1039.44670434731 -188.83254110966914 896.6852639744063C-299.84870172127637 753.9238236015026 -333.1440080254908 607.7650404457879 -210.58385482854163 363.78049135343633C-88.02370163159253 119.79594226108475 128.9041596690049 -311.19717569165056 399.4561942356861 -274.44057166887956C670.0082288023673 -237.6839676461086 1104.1414273683024 264.4880288268505 1088.0659110915294 540.2121906627372C1071.9903948147562 815.9363524986236 588.3142269824252 974.7701815367775 322.2937161071752 1049.035405143375 "></path><path d="M1074.5744232371383 537.4628895370354C1058.8141131618704 807.7806952584929 584.6217917576244 963.5001354919771 323.8173693309086 1036.3091782435436C63.01294690419286 1109.11822099511 -68.44743126246112 1026.9084911885777 -177.28680441109566 886.9462947445545C-286.1261775597302 746.9840983005313 -318.7686347207247 603.6911736380657 -198.61162178253926 364.4906353122309C-78.45460884435386 125.29009698639595 134.2197649797613 -297.2521755162858 399.4668576921938 -261.2162892194515C664.7139504046263 -225.1804029226172 1090.334733312406 267.1450838155781 1074.5744232371383 537.4628895370354C1058.8141131618704 807.7806952584929 584.6217917576244 963.5001354919771 323.8173693309086 1036.3091782435436 "></path><path d="M1061.0829353827469 534.7137104816463C1045.6378315089846 799.6251600886746 580.9293565328235 952.2302115174889 325.341022554642 1023.583073414024C69.75268857646051 1094.9359353105592 -59.07848202686034 1014.3704001001577 -165.74106771252218 877.207447585015C-272.403653398184 740.044495069872 -304.3932614159587 599.6174289006558 -186.63938873653694 365.2009013413377C-68.88551605711518 130.78437378201954 139.53537029051756 -283.3070532706085 399.4775211487015 -247.9918846997109C659.4196720068853 -212.67671612881327 1076.5280392565094 269.802260874618 1061.0829353827469 534.7137104816463C1045.6378315089846 799.6251600886746 580.9293565328235 952.2302115174889 325.341022554642 1023.583073414024 "></path><path d="M1047.5914170107776 531.9644093559446C1032.4615193385205 791.4695028485439 577.2368907904442 940.9601654726887 326.86464526079726 1010.8568465141925C76.49239973115016 1080.753527555696 -49.70956330883769 1001.8321869414253 -154.19536153152683 867.4684783551629C-258.68115975421597 733.1047697689005 -290.01791862877076 595.5435620929338 -174.6671862081127 365.9110453001323C-59.31645378745475 136.27852850733075 144.8509450836957 -269.3620530952437 399.48815408763096 -234.76760225028278C654.1253630915662 -200.17315140532185 1062.7213146830345 272.45931586334564 1047.5914170107776 531.9644093559446C1032.4615193385205 791.4695028485439 577.2368907904442 940.9601654726887 326.86464526079726 1010.8568465141925 "></path><path d="M1034.0999596739643 529.2151692653993C1019.2852682032128 783.3139066435692 573.5444860832217 929.6901804630443 328.3883290021088 998.1306806495168C83.23217192099605 1066.571180835989 -40.34058355565867 989.2940348178488 -142.64959431537523 857.7295701604671C-244.95860507509173 726.1651055030852 -275.64251480642656 591.4697563203677 -162.69492264453226 366.62125029408287C-49.74733048263795 141.7727442677981 150.1665809120302 -255.41699188472268 399.4988480617169 -221.54325876569845C648.8311152114036 -187.66952564667423 1048.9146511447163 275.1164318872293 1034.0999596739643 529.2151692653993C1019.2852682032128 783.3139066435692 573.5444860832217 929.6901804630443 328.3883290021088 998.1306806495168 "></path><path d="M1020.6084718195732 526.4658071045415C1006.108986550327 775.1581883682823 569.8520508584206 918.4200733830878 329.91198222584217 985.4043927145287C89.97191359326371 1052.38871204597 -30.971634320058 976.7557606239602 -131.10385761680175 847.9905398954588C-231.23608091354555 719.2253191669574 -261.2671415016605 587.3958284774894 -150.72268959852988 367.3313332177212C-40.178237695399275 147.26683795795293 155.4821862227866 -241.47205274451414 399.5095115182245 -208.31903735142663C643.5368368136624 -175.16602195833906 1035.1079570888196 277.77342584080054 1020.6084718195732 526.4658071045415C1006.108986550327 775.1581883682823 569.8520508584206 918.4200733830878 329.91198222584217 985.4043927145287 "></path><path d="M1007.1170144827602 523.7166280491522C992.9327354150194 767.0026531984636 566.1596461511976 907.1501494085996 331.4356659671537 972.6782878850092C96.71168578310949 1038.206426361419 -21.602654566879096 964.2176695355402 -119.55809040065014 838.251692735919C-217.51352623442125 712.2857159362984 -246.89173767931635 583.3220837400795 -138.75042603494944 368.041599246828C-30.60911439058259 152.76111475357652 160.7978220511211 -227.52693049883686 399.5202054923104 -195.094632831686C638.2425889334995 -162.66233516453514 1021.3012935505012 280.43060289984055 1007.1170144827602 523.7166280491522C992.9327354150194 767.0026531984636 566.1596461511976 907.1501494085996 331.4356659671537 972.6782878850092 "></path><path d="M993.6254961107909 520.9673879586069C979.7564232445552 758.8470569934893 562.4671804088189 895.8801643989555 332.95928867330895 959.952122020334C103.45139693779913 1024.0240796417124 -12.23373584885644 951.6795174119638 -108.01238421965479 828.5127845412235C-203.7910325904532 705.3460516704831 -232.5163948921284 579.2482779675136 -126.7782235065252 368.7518042407788C-21.04005212092204 158.2553305140441 166.11339684429925 -213.58186928831583 399.5308384312399 -181.87028934710168C632.9482800181806 -150.15870940588752 1007.4945689770263 283.0877189237243 993.6254961107909 520.9673879586069C979.7564232445552 758.8470569934893 562.4671804088189 895.8801643989555 332.95928867330895 959.952122020334 "></path><path d="M980.1340082563997 518.2180257977489C966.5801415916694 750.6913387182024 558.7747451840178 884.6100573189988 334.48294189704234 947.2258340853459C110.1911386100669 1009.8416108516931 -2.8647866132555464 939.1412432180753 -96.46664752108131 818.7737542762152C-190.06850842890702 698.4062653343553 -218.14102158736233 575.1743501246351 -114.80599046052282 369.461887164417C-11.470959333683368 163.74942420419893 171.4290021550555 -199.6369301481073 399.5415018877477 -168.64606793282985C627.6540016204397 -137.65520571755235 993.6878749211301 285.74471287729557 980.1340082563997 518.2180257977489C966.5801415916694 750.6913387182024 558.7747451840178 884.6100573189988 334.48294189704234 947.2258340853459 "></path><path d="M966.6425204020086 515.468907777516C953.4038599387836 742.5358645835402 555.0823099592169 873.3401943796669 336.0065951207757 934.4997902909827C116.93088028233456 995.6593862022985 6.50416262234512 926.6032131648115 -84.92091082250784 809.0349681518319C-176.34598426736085 691.4667231388526 -203.76564828259626 571.1006664223814 -102.8337574145205 370.1722142286801C-1.901866546444694 169.24376203497877 176.7446074658119 -185.69174686727382 399.5521653442553 -155.42160237793297C622.3597232226984 -125.15145788859218 979.8811808652333 288.4019509714917 966.6425204020086 515.468907777516C953.4038599387836 742.5358645835402 555.0823099592169 873.3401943796669 336.0065951207757 934.4997902909827 "></path><path d="M953.1510325476172 512.7195456166583C940.2275782858978 734.3801463082532 551.389874734416 862.0700872997104 337.5302483445091 921.7735023559949C123.67062195460221 981.4769174122791 15.873111857946014 914.0649389709229 -73.37517412393436 799.2959378868236C-162.62346010581473 684.5269368027248 -189.39027497783025 567.026738579503 -90.86152436851813 370.8822971523184C7.667226240793866 174.73785572513373 182.06021277656828 -171.7468077270653 399.562828800763 -142.19738096366115C617.0654448249577 -112.647954200257 966.0744868093368 291.0589449250631 953.1510325476172 512.7195456166583C940.2275782858978 734.3801463082532 551.389874734416 862.0700872997104 337.5302483445091 921.7735023559949 "></path><path d="M939.6595752108042 509.97036656126886C927.0513271505899 726.2246111384347 547.697470027193 850.8001633252222 339.05393208582063 909.0473975264752C130.410394144448 967.2946317277285 25.242091611124806 901.5268478825026 -61.829406907782754 789.557090727284C-148.90090542669043 677.5873335720653 -175.01487115548605 562.9529938420933 -78.88926080493769 371.59256318142525C17.236349545610665 180.23213252075743 187.37584860490279 -157.801685481388 399.5735227748488 -128.97297644392057C611.7711969447948 -100.14426740645314 952.2678232710184 293.716121984103 939.6595752108042 509.97036656126886C927.0513271505899 726.2246111384347 547.697470027193 850.8001633252222 339.05393208582063 909.0473975264752 "></path><path d="M926.168087356413 507.2210654355673C913.8750454977041 718.0689538983042 544.0050348023924 839.5301172804218 340.577585309554 896.3211706266436C137.15013581671576 953.1122239728654 34.6110408467257 888.9886347237702 -50.283670209209276 779.8181214974322C-135.17838126514425 670.6476082710942 -160.63949785071998 558.879127034371 -66.91702775893532 372.3027071402198C26.80544233284934 185.72628724606852 192.69145391565905 -143.85668530602322 399.5841862313565 -115.74869399449244C606.4769185470539 -87.64070268296172 938.4611292151219 296.3731769728306 926.168087356413 507.2210654355673C913.8750454977041 718.0689538983042 544.0050348023924 839.5301172804218 340.577585309554 896.3211706266436 "></path><path d="M912.6765689844437 504.4718558626C900.6987333272402 709.9133882109077 540.3125690600133 828.2601627883555 342.1012080157093 883.5950352795462C143.8898469714054 938.9299077707367 43.97995956474824 876.4505131177721 -38.73796402821392 770.0792438203146C-121.4558876211762 663.7079745228571 -146.26415506353203 554.8053517793832 -54.94482523051113 373.0129426517485C36.37450460250989 191.220533524114 198.0070287088372 -129.91159357792407 399.5948191702861 -102.52431999232999C601.182609631735 -75.13704640673592 924.6544046416473 299.0303235142924 912.6765689844437 504.4718558626C900.6987333272402 709.9133882109077 540.3125690600133 828.2601627883555 342.1012080157093 883.5950352795462 "></path><path d="M899.1850506124742 501.7226157720546C887.5224211567761 701.7577920059332 536.6201033176342 816.9901777787113 343.62483072186456 870.8688694148705C150.62955812609493 924.7475610510298 53.34887828277101 863.9123609941958 -27.19225784721857 760.3403356256185C-107.73339397720815 656.7683102570413 -131.88881227634414 550.7315460068171 -42.97262270208688 373.7231476456993C45.94356687217032 196.71474928458144 203.32260350201545 -115.96653236740303 399.60545210921555 -89.29997650774567C595.8883007164156 -62.633420648088304 910.8476800681724 301.68743953817614 899.1850506124742 501.7226157720546C887.5224211567761 701.7577920059332 536.6201033176342 816.9901777787113 343.62483072186456 870.8688694148705 "></path><path d="M885.6936237932396 498.97328412877494C874.3462005390465 693.6021042482244 532.9277291279894 805.7201012163328 345.1485449807542 858.1426119974606C157.36936083351884 910.5651227785884 62.71788855352804 851.3741173178851 -15.646460113488843 750.6013358781884C-94.01080878050573 649.8285544384917 -117.51337793642182 546.6576486815168 -31.000328620928258 374.43326108691554C55.512720694565246 202.2088734923144 208.6382698479281 -102.02156270961638 399.6161766008795 -76.07572457589566C590.5940833538311 -50.12988644217501 897.0410470474321 304.3444640093255 885.6936237932396 498.97328412877494C874.3462005390465 693.6021042482244 532.9277291279894 805.7201012163328 345.1485449807542 858.1426119974606 "></path><path d="M872.2021359388482 496.22407455580753C861.1699188861608 685.4465385608278 529.2352939031886 794.4501467242667 346.6721982044876 845.4164766503632C164.1091025057865 896.3828065764596 72.08683778912882 838.8359957118871 -4.100723414915365 740.8624582010709C-80.28828461895955 642.8889206902545 -103.13800463165575 542.5838734265288 -19.028095574925942 375.14349659844436C65.08181348180386 207.70311977036 213.95387515868447 -88.07647098151722 399.6268400573872 -62.851350573733214C585.2998049560902 -37.62623016594921 883.2343529915356 307.0016105507874 872.2021359388482 496.22407455580753C861.1699188861608 685.4465385608278 529.2352939031886 794.4501467242667 346.6721982044876 845.4164766503632 "></path><path d="M858.7106480844573 493.474773430106C847.993637233275 677.2908813206968 525.5428586783877 783.1801006794662 348.195851428221 832.6902497505314C170.84884417805426 882.2003988215965 81.4557870247296 826.2977825531548 7.445013283658113 731.1234889712189C-66.56576045741343 635.949195389283 -88.76263132688968 538.5100066188066 -7.055862528923569 375.8536405572388C74.65090626904248 213.19727449567108 219.26948046944074 -74.13147080615244 399.6375035138949 -49.62706812430514C580.0055265583491 -25.122665442457787 869.4276589356391 309.6586655395149 858.7106480844573 493.474773430106C847.993637233275 677.2908813206968 525.5428586783877 783.1801006794662 348.195851428221 832.6902497505314 "></path><path d="M845.2190991949096 490.7255943747168C834.8172945452329 669.1353461508788 521.8503624184304 771.9101767049783 349.7194436167981 819.9641449210121C177.58852481516578 868.0181131370459 90.82467522517413 813.7596914647347 18.990688947075284 721.3846418116793C-52.84329733102351 629.009592158624 -74.38731905727991 534.4362618813968 4.916309481922497 376.56390658634575C84.2199380211249 218.69155129129467 224.58502474504076 -60.18634856047515 399.64810593524635 -36.40266360456451C574.7111871254518 -12.618978648653922 855.6209038445863 312.3158425985549 845.2190991949096 490.7255943747168C834.8172945452329 669.1353461508788 521.8503624184304 771.9101767049783 349.7194436167981 819.9641449210121 "></path><path d="M831.7276723756745 487.97629324901516C821.6410739275034 660.9796889107479 518.1579882287858 760.6401306601779 351.24315787568776 807.2379180211806C184.3283275225897 853.8357053821828 100.19368549593116 801.2214783060022 30.536486680805012 711.6456725818273C-39.12071213432108 622.0698668576525 -60.01188471735759 530.3623950736745 16.88860356308112 377.2740505451403C93.78909184351977 224.18570601660588 229.9006910909534 -46.24134838511037 399.6588304269103 -23.178381155136435C569.4169697628671 -0.11541392516249971 841.8142708238461 314.97289758728243 831.7276723756745 487.97629324901516C821.6410739275034 660.9796889107479 518.1579882287858 760.6401306601779 351.24315787568776 807.2379180211806 "></path><path d="M818.2361845212836 485.2269921233135C808.4647922746174 652.8240316706172 514.4655530039848 749.3700846153774 352.76681109942115 794.5116911213486C191.06806919485734 839.6532976273197 109.56263473153194 788.6832651472696 42.08222337937849 701.9067033519755C-25.398187972774906 615.1301415566809 -45.63651141259152 526.2885282659523 28.860836609083435 377.98419450393465C103.35818463075844 229.67986074191708 235.21629640170977 -32.29634820974559 399.669493883418 -9.954098705708361C564.1226913651261 12.388150798328923 828.0075767679496 317.62995257600994 818.2361845212836 485.2269921233135C808.4647922746174 652.8240316706172 514.4655530039848 749.3700846153774 352.76681109942115 794.5116911213486 "></path><path d="M804.7446966668922 482.4777520327682C795.2885106217318 644.6684354656426 510.77311777918396 738.1000996057332 354.29046432315454 781.785525256673C197.8078108671251 825.4709509076129 118.93158396713272 776.1451130236935 53.62796007795197 692.1677951572797C-11.67566381122873 608.1904772908656 -31.261138107825445 522.2147224933863 40.83306965508581 378.69439949788534C112.92727741799706 235.17407650238442 240.53190171246615 -18.351286999224612 399.6801573399257 3.2702447788760196C558.8284129673852 24.891776556976538 814.2008827120528 320.2870685998937 804.7446966668922 482.4777520327682C795.2885106217318 644.6684354656426 510.77311777918396 738.1000996057332 354.29046432315454 781.785525256673 "></path><path d="M791.2531477773448 479.72851194222267C782.1121679336895 636.512839260668 507.0806215192267 726.8301145960888 355.8140565117317 769.0593593919973C204.54749150423663 811.288604187906 128.30047216757725 763.6069609001172 65.1736357413692 682.4288869625838C2.046799315161195 601.2508130250502 -16.88582583821568 518.1409167208203 52.80524166593193 379.40460449183615C122.49630917007948 240.66829226285176 245.84744598806617 -4.40622578870358 399.69075976127715 16.494588263460344C553.534073534488 37.39540231562421 800.3941276210003 322.94418462377746 791.2531477773448 479.72851194222267C782.1121679336895 636.512839260668 507.0806215192267 726.8301145960888 355.8140565117317 769.0593593919973 "></path><path d="M777.7617209581099 476.9792108165211C768.9359473159598 628.3571820205373 503.3882473295821 715.5600685512884 357.3377707706213 756.3331324921655C211.28729421166054 797.1061964330429 137.66948243833428 751.0687477413849 76.71943347509892 672.6899177327317C15.769384511863564 594.3110877240787 -2.510391498293359 514.0670499130981 64.7775357470905 380.1147484506305C132.06546299247435 246.16244698816297 251.1631123339788 9.538774386661203 399.7014842529411 29.718870712888418C548.2398561719033 49.89896703911563 786.5874946002598 325.60123961250497 777.7617209581099 476.9792108165211C768.9359473159598 628.3571820205373 503.3882473295821 715.5600685512884 357.3377707706213 756.3331324921655 "></path><path d="M764.2702331037187 474.2299707259756C755.759665663074 620.2015858155627 499.6958121047812 704.2900835416441 358.8614239943547 743.60696662749C218.0270358839282 782.9238497133358 147.03843167393507 738.5305956178086 88.2651701736724 662.9510095380359C29.49190867340974 587.3714234582634 11.864981806472713 509.99324414053206 76.74976879309287 380.8249534445812C141.63455577971297 251.6566627486303 256.47871764473507 23.483835597182235 399.7121477094487 42.94321419747274C542.9455777741623 62.402592797763305 772.780800544363 328.2583556363886 764.2702331037187 474.2299707259756C755.759665663074 620.2015858155627 499.6958121047812 704.2900835416441 358.8614239943547 743.60696662749 "></path><path d="M750.7787452493276 471.48079167058654C742.5833840101882 612.0460506457443 496.00337687998024 693.0201595671562 360.3850772180881 730.8808617979706C224.76677755619585 768.7415640287852 156.40738090953585 725.9925045293884 99.81090687224588 653.2121623784964C43.214432834955915 580.4318202276044 26.240355111238785 505.91949940312224 88.72200183909519 381.53521947368813C151.20364856695164 257.150939544254 261.79432295549145 37.42895784285952 399.7228111659564 56.16761871721337C537.6512993764213 74.90627959156717 758.9741064884665 330.91553269542874 750.7787452493276 471.48079167058654C742.5833840101882 612.0460506457443 496.00337687998024 693.0201595671562 360.3850772180881 730.8808617979706 "></path><path d="M737.2872573949362 468.7313684745724C729.4071023573024 603.8902713353011 492.31094165517936 681.7499914520432 361.9087304418215 718.1545128278265C231.50651922846362 754.5590342036098 165.77633014513663 713.4541693003436 111.35664357081936 643.4730710783319C56.93695699650209 573.4919728563203 40.6157284160048 501.84551052508755 100.69423488509756 382.2452413621702C160.77274135419026 262.6449721992526 267.10992826624783 51.3738359479118 399.7334746224641 69.39177909632895C532.3570209786803 87.40972224474609 745.16741243257 333.57246561384375 737.2872573949362 468.7313684745724C729.4071023573024 603.8902713353011 492.31094165517936 681.7499914520432 361.9087304418215 718.1545128278265 "></path><path d="M723.795769540545 465.9822809719176C716.2308207044165 595.7348277182173 488.6185064303784 670.4801590302897 363.4323836655549 705.4284995510416C238.2462609007314 740.3768400717934 175.1452793807374 700.916169764658 122.90238026939284 633.7343154715268C70.65948115804827 566.5524611783956 54.99110172077087 497.7718573404122 112.66646793109987 382.9555989440114C170.34183414142888 268.1393405476107 272.4255335770041 65.31904974632346 399.7441380789717 82.6162751688039C527.0627425809394 99.91350059128439 731.3607183766735 336.22973422561813 723.795769540545 465.9822809719176C716.2308207044165 595.7348277182173 488.6185064303784 670.4801590302897 363.4323836655549 705.4284995510416 "></path><path d="M710.3042206509975 463.2329493286379C703.0544780163744 587.5791399605083 484.92601017042125 659.2100824679111 364.955975854132 692.7022421336316C244.9859415378428 726.1944017993521 184.51416758118194 688.3779260883473 134.44805593281006 623.9953157240966C84.38194428443819 559.6127053598459 69.36641399038069 493.6979600151119 124.638639941946 383.66571238522783C179.9108658935113 273.63346475534365 277.74107785260423 79.26401940411012 399.7547405003231 95.8405271006539C521.7684031480421 112.41703479719769 717.5539632856207 338.8867586967674 710.3042206509975 463.2329493286379C703.0544780163744 587.5791399605083 484.92601017042125 659.2100824679111 364.955975854132 692.7022421336316 "></path><path d="M696.8127327966064 460.48364820293625C689.8781963634885 579.4234827203775 481.2335749456204 647.9400364231105 366.4796290778654 679.9760152337998C251.72568321011045 712.011994044489 193.88311681678272 675.8397129296147 145.99379263138354 614.2563464942446C98.10446844598431 552.6729800588744 83.74178729514676 489.6240932073896 136.61087298794837 384.37585634402217C189.47995868074992 279.12761948065486 283.0566831633605 93.2090195794749 399.7654039568308 109.06480955008197C516.4741247503013 124.92059952068905 703.7472692297241 341.543813685495 696.8127327966064 460.48364820293625C689.8781963634885 579.4234827203775 481.2335749456204 647.9400364231105 366.4796290778654 679.9760152337998 "></path><path d="M683.3212449422152 457.7344691475471C676.7019147106028 571.2679475505591 477.5411397208194 636.6701124486225 368.0032823015988 667.2499104042804C258.4654248823782 697.8297083599383 203.2520660523835 663.3016218411948 157.53952932995702 604.517499334705C111.82699260753049 545.7333768282153 98.11716059991278 485.5503484699798 148.58310603395068 385.0861223731291C199.0490514679886 284.62189627627845 288.3722884741169 107.15414182515218 399.7760674133385 122.28921406982255C511.17984635256016 137.42428631449297 689.9405751738276 344.2009907445349 683.3212449422152 457.7344691475471C676.7019147106028 571.2679475505591 477.5411397208194 636.6701124486225 368.0032823015988 667.2499104042804 "></path><path d="M669.829757087824 454.9851680218453C663.5256330577168 563.1122903104283 473.8487044960184 625.400066403822 369.5269355253322 654.5236835044485C265.20516655464587 683.6473006050752 212.62101528798428 650.7634086824622 169.0852660285305 594.778530104853C125.54951676907666 538.7936515272436 112.49253390467885 481.4764816622576 160.55533907995306 385.79626633192356C208.6181442552272 290.11605100158965 293.68789378487327 121.09914200051696 399.7867308698462 135.51349651925068C505.8855679548193 149.9278510379844 676.1338811179311 346.85804573326243 669.829757087824 454.9851680218453C663.5256330577168 563.1122903104283 473.8487044960184 625.400066403822 369.5269355253322 654.5236835044485 "></path><path d="M656.3382692334328 452.23595844887814C650.349351404831 554.956724623032 470.1562692712175 614.1301119117559 371.0505887490656 641.7975481573512C271.94490822691364 669.4649844029465 221.98996452358506 638.2252870764642 180.63100272710398 585.0396524277354C139.27204093062284 531.8540177790067 126.86790720944492 477.40270640726976 172.52757212595537 386.5065018434524C218.18723704246588 295.6102972796351 299.00349909562954 135.04423372861612 399.7973943263539 148.73787052141313C500.5912895570784 162.43150731421014 662.3271870620346 349.5151922747243 656.3382692334328 452.23595844887814C650.349351404831 554.956724623032 470.1562692712175 614.1301119117559 371.0505887490656 641.7975481573512 "></path><path d="M642.8467966378307 449.4866878407547C637.1730850107342 546.8010979004794 466.4638493052057 602.8600963845336 372.57425723158804 629.0713517750975C278.68466515797036 655.2826071656614 231.35892901797496 625.6871044353097 192.17675468446652 575.3007137154614C152.99458035095807 524.914322995613 141.24329577300006 473.3288701171256 184.4998204307468 387.21667631982496C227.75634508849356 301.1044825225244 304.319119665175 148.98926442155897 399.8080730416507 161.96218348841933C495.2970264181265 174.93510255527968 648.520508264927 352.17227778102995 642.8467966378307 449.4866878407547C637.1730850107342 546.8010979004794 466.4638493052057 602.8600963845336 372.57425723158804 629.0713517750975 "></path><path d="M629.3552782658614 446.7373561974748C623.9967728402703 538.6454101427703 462.7713835628267 591.590019822155 374.0978799377433 616.3450943576876C285.42437631265994 641.1001688932201 240.7278477359976 613.1488607589993 203.72246086546187 565.5617139680313C166.71707399492612 517.9745671770634 155.61863856018795 469.25497279182514 196.472022959171 387.9267897610413C237.32540735815405 306.5986067302574 309.6346944583532 162.93423407934563 399.81870598058026 175.18643542026933C490.0027175028074 187.43863676119298 634.7137836914524 354.82930225217933 629.3552782658614 446.7373561974748C623.9967728402703 538.6454101427703 462.7713835628267 591.590019822155 374.0978799377433 616.3450943576876 "></path><path d="M615.8638209290482 443.9881161069295C610.8205217049626 530.4898139377958 459.07897885560385 580.3200348125108 375.6215636790548 603.6189284930122C292.1641485025058 626.9178221735133 250.09682748917652 600.610708635423 215.26822808161347 555.8228057733355C180.43962867405043 511.0349029112481 169.99404238253214 465.1811670192592 208.4442865227515 388.636994754992C246.89453066297085 312.0928224907248 314.95033028668763 176.87929528986666 399.8293999546661 188.41077890485366C484.70846962264454 199.94226251984065 620.907120153134 357.4864182760631 615.8638209290482 443.9881161069295C610.8205217049626 530.4898139377958 459.07897885560385 580.3200348125108 375.6215636790548 603.6189284930122 "></path><path d="M602.3723025570789 441.2389217927513C597.6442095344987 522.3342635091885 455.38651311322474 569.0500955792338 377.1451863852101 590.8928084047037C298.90385965719537 612.7355212301736 259.4657462071992 588.072602288214 226.81393426260883 546.083943355007C194.16212231801842 504.0952844218 184.3693851697201 461.1074070230603 220.4164890511757 389.34724552530986C256.46359293263134 317.5870840275594 320.2659050798659 190.82440227675488 399.84003289359566 201.63516816580517C479.41416070732544 212.44593405485546 607.1003955796592 360.14358007631404 602.3723025570789 441.2389217927513C597.6442095344987 522.3342635091885 455.38651311322474 569.0500955792338 377.1451863852101 590.8928084047037 "></path><path d="M588.8808452202659 438.4896359258387C584.4679583991908 514.1786215278468 451.694108406002 557.7800647932223 378.6688701265216 578.1665967636609C305.6436318470412 598.5531287340996 268.8347259603781 575.5344043882706 238.35970147876043 536.344989383944C207.88467699714272 497.1555743796175 198.7447889920643 457.0335554741272 232.38875261475619 390.05740474289337C266.0327162374481 323.0812540116596 325.58154090820034 204.76941771090873 399.8507268676815 214.85946587402236C474.1199128271626 224.94951403713594 593.2937320413408 362.8006503238306 588.8808452202659 438.4896359258387C584.4679583991908 514.1786215278468 451.694108406002 557.7800647932223 378.6688701265216 578.1665967636609 "></path><path d="M575.3893573658747 435.74039583529327C571.291676746305 506.0230253228722 448.0016731812011 546.510079783578 380.192523350255 565.4404308989854C312.38337351930886 584.3707820143926 278.20367519597886 562.9962522646942 249.9054381773339 526.6060811892482C221.6072011586889 490.21591011380224 213.1201622968303 452.9597497015611 244.36098566075856 390.76760973684407C275.60180902468676 328.575469772127 330.89714621895666 218.71447892142976 399.8613903241892 228.0838093586067C468.8256344294216 237.4531397957836 579.4870379854442 365.45776634771437 575.3893573658747 435.74039583529327C571.291676746305 506.0230253228722 448.0016731812011 546.510079783578 380.192523350255 565.4404308989854 "></path><path d="M561.8978695114835 432.9910947095916C558.1153950934192 497.86736808274145 444.3092379564001 535.2400337387776 381.7161765739884 552.7142039991536C319.12311519157663 570.1883742595295 287.57262443157964 550.4580391059618 261.4511748759073 516.8671119593962C235.32972532023507 483.2761848128306 227.49553560159637 448.8858828938389 256.3332187067609 391.4777536956385C285.1709018119254 334.06962449743816 336.212751529713 232.65947909679454 399.8720537806968 241.30809180803476C463.5313560316806 249.95670451927498 565.6803439295477 368.1148213364419 561.8978695114835 432.9910947095916C558.1153950934192 497.86736808274145 444.3092379564001 535.2400337387776 381.7161765739884 552.7142039991536 "></path><path d="M548.4063816570922 430.2418241014682C544.9391134405333 489.71174136018874 440.61680273159925 523.9700182115553 383.23982979772177 539.9880076169C325.8628568638443 556.0059970222445 296.9415736671804 537.9198564648074 272.9969115744808 507.1281732471223C249.05224948178125 476.3364900294372 241.87090890636244 444.81204660369485 268.30545175276325 392.1879281720111C294.73999459916405 339.56380974032743 341.5283568404693 246.60450978973745 399.8827172372045 254.53240477504102C458.23707763393963 262.4602997603445 551.8736498736512 370.7719068427475 548.4063816570922 430.2418241014682C544.9391134405333 489.71174136018874 440.61680273159925 523.9700182115553 383.23982979772177 539.9880076169 "></path><path d="M534.914893802701 427.4926145285008C531.7628317876474 481.5561756727923 436.92436750679826 512.7000637194892 384.76348302145516 527.2618722698023C332.602598536112 541.8236808201157 306.3105229027812 525.3817348588093 284.5426482730543 497.3892955700046C262.7747736433274 469.3968562811999 256.2462822111285 440.7382713487069 280.27768479876556 392.8981636835399C304.30908738640267 345.05805601837295 346.8439621512257 260.5496015178366 399.8933806937122 267.75677877720346C452.94279923619865 274.9639560365703 538.0669558177547 373.42905338420934 534.914893802701 427.4926145285008C531.7628317876474 481.5561756727923 436.92436750679826 512.7000637194892 384.76348302145516 527.2618722698023 "></path><path d="M521.4234059483099 424.74331340279923C518.5865501347616 473.40051843266156 433.2319322819974 501.43001767468866 386.28713624518855 514.5356453699706C339.3423402083797 527.6412730652526 315.679472138382 512.8435217000767 296.08838497162776 487.65032634015256C276.49729780487354 462.4571309802284 270.62165551589453 436.66440454098466 292.24991784476794 393.60830764233435C313.87818017364134 350.5522107436841 352.159567461982 274.4946016932014 399.9040441502199 280.98106122663154C447.6485208384578 287.46752076006175 524.260261761858 376.08610837293685 521.4234059483099 424.74331340279923C518.5865501347616 473.40051843266156 433.2319322819974 501.43001767468866 386.28713624518855 514.5356453699706 "></path><path d="M507.9318875763405 421.9940427946757C505.4102379642977 465.24489171010885 429.53946653961833 490.16000214746634 387.8107589513438 501.809448987717C346.0820513630693 513.4588958279676 325.04839085640464 500.3053390589224 307.6340911526231 477.91138762787864C290.2197914488416 455.517436196835 284.9969983030825 432.59056825084053 304.2221203731921 394.3184821187069C323.44724244330183 356.0463959865733 357.4751422551602 288.4396323861443 399.91467708914945 294.20537419363774C442.3542119231387 299.97111600113124 510.4535371883834 378.7431938792425 507.9318875763405 421.9940427946757C505.4102379642977 465.24489171010885 429.53946653961833 490.16000214746634 387.8107589513438 501.809448987717 "></path><path d="M494.4404302395275 419.2448332217084C492.23398682898994 457.08932602271244 425.8470618323955 478.89004765540017 389.33444269265533 489.0833136406195C352.82182355291513 499.27657962583885 334.4173706095836 487.76721745292434 319.1798583687747 468.1725099507611C303.9423461279659 448.5778024485978 299.3724021254267 428.51679299585265 316.1943839367726 395.02871763023575C333.0163657481186 361.5406422646189 362.7907780834947 302.38472411424345 399.9253710632353 307.42974819580024C437.0599640429758 312.47477227735703 496.6468736500649 381.40034042070437 494.4404302395275 419.2448332217084C492.23398682898994 457.08932602271244 425.8470618323955 478.89004765540017 389.33444269265533 489.0833136406195 "></path><path d="M480.9489118675581 416.49556261358487C479.057674658526 448.9336993001598 422.15459609001647 467.62003212817785 390.8580653988106 476.35711725836586C359.5615347076047 485.0942023885538 343.78628932760626 475.22903481176996 330.72556454977007 458.43357123848716C317.66483977193394 441.63810766520436 313.7477449126146 424.4429567057085 328.1665864651969 395.7388921066083C342.5854280177791 367.0348275075081 368.10635287667293 316.3297548071863 399.9360040021648 320.65406116280644C431.7656551276567 324.9783675184266 482.84014907659025 384.05742592701 480.9489118675581 416.49556261358487C479.057674658526 448.9336993001598 422.15459609001647 467.62003212817785 390.8580653988106 476.35711725836586 "></path><path d="M467.45745453074505 413.7462920054613C465.88142352321825 440.7780725776071 418.46219138279366 456.35001660095554 392.3817491401221 463.6309208761121C366.30130689745056 470.9118251512688 353.15526908078516 462.6908521706156 342.2713317659217 448.69463252621324C331.38739445105824 434.6984128818109 328.12314873495876 420.3691204155644 340.1388500287773 396.4490665829809C352.15455132259586 372.5290127503974 373.4219887050074 330.2747855001292 399.9466979762506 333.87837412981264C426.47140724749386 337.48196275949607 469.03348553827186 386.71451143331564 467.45745453074505 413.7462920054613C465.88142352321825 440.7780725776071 418.46219138279366 456.35001660095554 392.3817491401221 463.6309208761121 "></path><path d="M453.96596667635384 410.9970366561269C452.70514187033245 432.6224611138435 414.7697561579928 445.08001633252223 393.9054023638555 450.9047397526476C373.0410485697182 456.72946317277285 362.52421831638594 450.15268478825027 353.81706846449515 438.9557090727284C345.1099186126044 427.75873335720655 342.49852203972483 416.29529938420933 352.1110830747797 397.1592563181425C361.7236441098345 378.0232132520757 378.7375940157637 344.2198314518612 399.9573614327583 347.10270235560796C421.17712884975293 349.9855732593547 455.2267914823753 389.3716121984103 453.96596667635384 410.9970366561269C452.70514187033245 432.6224611138435 414.7697561579928 445.08001633252223 393.9054023638555 450.9047397526476 "></path><path d="M440.4744635631736 408.24776604800337C439.52884495865754 424.46683439129083 411.0773056744028 433.81000080529986 395.42904032879983 438.17854337039387C379.78077498319686 442.54708593548787 371.89315229319766 437.6145021470959 365.36278990427957 429.2167703604545C358.8324275153615 420.81903857381315 356.87388008570184 412.2214630940652 364.08330086199294 397.8694307945151C371.2927216382841 383.517398494965 384.05318406773097 358.1648621448041 399.96800963047696 360.32701532261416C415.8828351932229 362.4891685004242 441.42008216768966 392.0286977047159 440.4744635631736 408.24776604800337C439.52884495865754 424.46683439129083 411.0773056744028 433.81000080529986 395.42904032879983 438.17854337039387 "></path><path d="M426.9829757087824 405.49852595745796C426.3525633057717 416.3112381863163 407.38487044960186 422.5400157956556 396.9526935525332 425.4523775057183C386.5205166554646 428.36473921578096 381.26210152879844 425.0763500235197 376.90852660285304 419.4778621657587C372.55495167690765 413.8793743079978 371.2492533904679 408.1476573214992 376.0555339079953 398.5796357884658C380.8618144255227 389.0116142554324 389.36878937848735 372.1099233553251 399.9786730869846 373.5513588071985C410.5885567954819 374.9927942590719 427.61338811179314 394.68581372859967 426.9829757087824 405.49852595745796C426.3525633057717 416.3112381863163 407.38487044960186 422.5400157956556 396.9526935525332 425.4523775057183 "></path><path d="M413.4914878543912 402.74927060812354C413.17628165288585 408.15562672255265 403.69243522480093 411.27001552722237 398.4763467762666 412.7261963822537C393.2602583277323 414.18237723728504 390.6310507643992 412.5381826411544 388.4542633014265 409.7389387122739C386.2774758384538 406.93969478339346 385.6246266952339 404.07383629014413 388.0277669539976 399.2898255236274C390.4309072127614 394.5058147571107 394.6843946892437 386.0549693070571 399.9893365434923 386.7756870329938C405.294278397741 387.49640475893045 413.80669405589657 397.34291449369437 413.4914878543912 402.74927060812354C413.17628165288585 408.15562672255265 403.69243522480093 411.27001552722237 398.4763467762666 412.7261963822537 "></path></g></svg>